<?xml version="1.0" encoding="utf-8"?>
<!-- Generator: Adobe Illustrator 20.0.0, SVG Export Plug-In . SVG Version: 6.00 Build 0)  -->
<svg version="1.1" id="Layer_1" xmlns="http://www.w3.org/2000/svg" xmlns:xlink="http://www.w3.org/1999/xlink" x="0px" y="0px"
	 viewBox="0 0 200 250" style="enable-background:new 0 0 200 250;" xml:space="preserve">
<style type="text/css">
	.st0{fill:#FFFFFF;}
	.st1{fill:#4C1D12;}
	.st2{fill:#F5CF8B;}
	.st3{opacity:0.1;}
	.st4{opacity:0.1;fill:#4C1D12;}
	.st5{fill:#B4E2EB;}
	.st6{opacity:0.15;fill:#B22124;}
</style>
<g>
	<path class="st0" d="M101.9,247.2c-0.7,0-1.4,0-2.1,0c-0.2,0-0.3,0-0.5,0l-0.3,0c-0.4,0-0.9,0-1.3-0.1c-0.2,0-0.4,0-0.6,0l-0.4,0
		c-0.4,0-0.7,0-1.1-0.1c-0.2,0-0.4,0-0.6-0.1l-0.2,0c-0.4,0-0.8-0.1-1.2-0.1c-0.2,0-0.5-0.1-0.7-0.1l-0.2,0c-0.4,0-0.8-0.1-1.2-0.1
		c-0.3,0-0.5-0.1-0.8-0.1l-0.1,0c-0.4-0.1-0.8-0.1-1.1-0.2c-0.3,0-0.6-0.1-0.9-0.2c-0.4-0.1-0.7-0.1-1.1-0.2
		c-0.3-0.1-0.6-0.1-0.9-0.2c-0.4-0.1-0.7-0.1-1.1-0.2c-0.3-0.1-0.6-0.1-0.9-0.2c-0.4-0.1-0.7-0.2-1.1-0.3c-0.3-0.1-0.6-0.1-0.9-0.2
		c-0.4-0.1-0.7-0.2-1.1-0.3c-0.3-0.1-0.6-0.2-0.9-0.2c-0.4-0.1-0.7-0.2-1.1-0.3l-0.1,0c-0.3-0.1-0.5-0.1-0.8-0.2
		c-0.4-0.1-0.7-0.2-1.1-0.3l-0.1,0c-0.2-0.1-0.5-0.1-0.7-0.2c-0.4-0.1-0.7-0.2-1.1-0.4l-0.2-0.1c-0.2-0.1-0.4-0.1-0.6-0.2
		c-0.3-0.1-0.7-0.3-1-0.4l-0.4-0.1c-0.2-0.1-0.3-0.1-0.5-0.2c-0.4-0.2-0.8-0.3-1.2-0.5l-0.2-0.1c-0.1-0.1-0.3-0.1-0.4-0.2
		c-0.6-0.2-1.1-0.5-1.7-0.7l-0.1,0c-0.6-0.3-1.2-0.6-1.8-0.8c-0.1-0.1-0.2-0.1-0.3-0.2l-0.2-0.1c-0.4-0.2-0.8-0.4-1.3-0.6
		c-0.2-0.1-0.3-0.2-0.5-0.2l-0.2-0.1c-0.4-0.2-0.7-0.4-1.1-0.6c-0.2-0.1-0.3-0.2-0.5-0.3l-0.3-0.2c-0.3-0.2-0.6-0.4-1-0.5
		c-0.2-0.1-0.4-0.2-0.6-0.3l-0.2-0.1c-0.3-0.2-0.7-0.4-1-0.6c-0.2-0.1-0.4-0.3-0.6-0.4l-0.1-0.1c-0.3-0.2-0.6-0.4-0.9-0.6
		c-0.2-0.2-0.5-0.3-0.7-0.5c-0.3-0.2-0.6-0.4-0.9-0.6c-0.2-0.2-0.5-0.3-0.7-0.5c-0.3-0.2-0.6-0.4-0.9-0.6c-0.2-0.2-0.5-0.3-0.7-0.5
		c-0.3-0.2-0.6-0.4-0.9-0.7c-0.2-0.2-0.5-0.3-0.7-0.5c-0.3-0.2-0.6-0.5-0.9-0.7c-0.2-0.2-0.4-0.4-0.7-0.5c-0.3-0.2-0.6-0.5-0.9-0.7
		l-0.1-0.1c-0.2-0.1-0.4-0.3-0.5-0.4c-0.3-0.2-0.6-0.5-0.9-0.8l-0.2-0.2c-0.1-0.1-0.3-0.3-0.4-0.4c-0.3-0.3-0.6-0.5-0.9-0.8
		l-0.2-0.1c-0.1-0.1-0.3-0.3-0.4-0.4c-0.3-0.3-0.6-0.6-0.9-0.9l-0.2-0.2c-0.1-0.1-0.2-0.2-0.4-0.3c-0.3-0.3-0.6-0.7-1-1l-0.1-0.1
		c-0.1-0.1-0.2-0.2-0.3-0.3c-8-8.4-14.1-18.5-17.8-29.4h-0.2l-1-3.9c-1.7-6.2-2.7-12.5-2.9-18.9c-5.4-2.3-9.1-7.6-9.1-13.7
		c0-6.7,4.4-12.4,10.5-14.2c5-14.6,14.2-27.7,26.3-37.5l-0.1-0.5c-2.9,0.8-6,1.2-9.1,1.2c-19.9,0-36.2-16.2-36.2-36.2
		s16.2-36.2,36.2-36.2c3.6,0,7,0.5,10.4,1.5c8.6-18.9,27.6-31.4,48.8-31.4c21.1,0,40.1,12.4,48.8,31.4c3.4-1,6.8-1.5,10.4-1.5
		c19.9,0,36.2,16.2,36.2,36.2s-16.2,36.2-36.2,36.2c-1.8,0-3.6-0.1-5.4-0.4l-0.1,0.5c11.7,9.7,20.7,22.6,25.6,36.8
		c6,2,10.2,7.6,10.2,14.1c0,5.9-3.5,11.1-8.7,13.5c-0.3,9.9-2.4,19.5-6.2,28.6c-0.5,1.2-1,2.4-1.6,3.5c-1.9,4-4.2,7.9-6.8,11.5
		c-4.4,6.2-9.7,11.8-15.7,16.5c-1.5,1.2-3.1,2.3-4.6,3.4c-1,0.7-2.1,1.4-3.2,2.1c-2.2,1.3-4.4,2.6-6.7,3.7c-1.2,0.6-2.3,1.1-3.5,1.6
		c-4.2,1.8-8.5,3.2-13,4.2c-1.9,0.4-3.9,0.8-5.8,1.1c-0.7,0.1-1.3,0.2-2,0.3c-1.3,0.2-2.7,0.3-4,0.4
		C106,247.1,103.9,247.2,101.9,247.2z M73.4,231.3c0.5,0.2,1,0.4,1.5,0.7l0.5,0.2c0.4,0.2,0.7,0.3,1.1,0.4c0.1,0,0.2,0.1,0.4,0.1
		l0.4,0.2c0.3,0.1,0.6,0.2,0.9,0.3c0.2,0.1,0.3,0.1,0.5,0.2l0.2,0.1c0.3,0.1,0.7,0.2,1,0.3c0.2,0.1,0.4,0.1,0.6,0.2l0.2,0.1
		c0.3,0.1,0.6,0.2,1,0.3c0.2,0.1,0.4,0.1,0.7,0.2l0.1,0c0.3,0.1,0.6,0.2,0.9,0.3c0.3,0.1,0.5,0.1,0.8,0.2c0.3,0.1,0.6,0.2,1,0.2
		c0.3,0.1,0.5,0.1,0.8,0.2c0.3,0.1,0.6,0.2,1,0.2c0.3,0.1,0.5,0.1,0.8,0.2c0.3,0.1,0.6,0.1,1,0.2c0.3,0.1,0.5,0.1,0.8,0.2
		c0.3,0.1,0.6,0.1,1,0.2c0.3,0,0.5,0.1,0.8,0.1c0.3,0.1,0.7,0.1,1,0.1l0.1,0c0.2,0,0.5,0.1,0.7,0.1c0.3,0,0.7,0.1,1,0.1l0.2,0
		c0.2,0,0.4,0,0.6,0.1c0.3,0,0.7,0.1,1,0.1l0.3,0c0.2,0,0.3,0,0.5,0c0.3,0,0.6,0,1,0.1l0.4,0c0.2,0,0.3,0,0.5,0c0.4,0,0.8,0,1.1,0
		l0.4,0c0.1,0,0.2,0,0.3,0c2.4,0.1,4.8,0,7.2-0.2c1.2-0.1,2.4-0.2,3.5-0.4c0.6-0.1,1.2-0.2,1.7-0.2c1.7-0.3,3.4-0.6,5.1-1
		c3.9-0.9,7.7-2.1,11.4-3.7c1-0.4,2.1-0.9,3.1-1.4c2-1,4-2.1,5.9-3.2c1-0.6,1.9-1.2,2.8-1.8c1.4-0.9,2.7-1.9,4.1-3
		c5.3-4.1,9.9-9,13.8-14.5c2.3-3.2,4.3-6.6,6-10.1c0.5-1,1-2,1.4-3.1c3.6-8.6,5.5-17.7,5.5-27.1l0-0.2l0-0.2c0-0.2,0-0.3,0-0.5
		l-0.1-4.6l4.3-0.6c2.5-0.4,4.5-2.6,4.5-5.1c0-2.7-2-4.9-4.7-5.2l-3.2-0.3l-1-3.1c-4.5-14.6-13.8-27.8-26.2-37.1l-5.4-4.1l4.8-3.3
		l2.9-10.2l4.7,1.4c2.4,0.7,5,1.1,7.5,1.1c14.6,0,26.4-11.9,26.4-26.4c0-14.6-11.9-26.4-26.4-26.4c-3.9,0-7.6,0.8-11.1,2.4l-4.9,2.3
		l-1.8-5.1c-6.1-17.6-22.8-29.5-41.4-29.5C81.8,13.2,65.1,25,59,42.6l-1.8,5.1l-4.9-2.3c-3.5-1.6-7.2-2.4-11.1-2.4
		c-14.6,0-26.4,11.9-26.4,26.4c0,14.6,11.9,26.4,26.4,26.4c3.6,0,7.1-0.7,10.5-2.2l5.2-2.2l3.3,12.3l3.8,3.2l-5,3.7
		c-12.6,9.3-22,22.6-26.5,37.4l-1,3.2l-3.4,0.2c-2.7,0.2-4.9,2.4-4.9,5.2c0,2.7,2,4.9,4.7,5.2l4.4,0.4l-0.1,4.8c0,0.2,0,0.4,0,0.5
		l0,0.2l0,0.2c0,6.4,0.9,12.7,2.6,18.8L35,187c3.1,10.8,8.8,20.8,16.6,28.9l0.4,0.4c0.3,0.3,0.6,0.6,0.8,0.9
		c0.1,0.1,0.2,0.2,0.3,0.3l0.2,0.2c0.3,0.3,0.5,0.5,0.8,0.8c0.1,0.1,0.2,0.2,0.3,0.3l0.2,0.2c0.3,0.2,0.5,0.5,0.8,0.7
		c0.1,0.1,0.2,0.2,0.4,0.3l0.2,0.2c0.2,0.2,0.5,0.4,0.7,0.7c0.2,0.1,0.3,0.3,0.5,0.4l0.1,0.1c0.2,0.2,0.5,0.4,0.8,0.6
		c0.2,0.2,0.4,0.3,0.6,0.5c0.3,0.2,0.5,0.4,0.8,0.6c0.2,0.2,0.4,0.3,0.6,0.5c0.3,0.2,0.5,0.4,0.8,0.6c0.2,0.1,0.4,0.3,0.6,0.4
		c0.3,0.2,0.5,0.4,0.8,0.6c0.2,0.1,0.4,0.3,0.6,0.4c0.3,0.2,0.5,0.4,0.8,0.5c0.2,0.1,0.4,0.3,0.6,0.4c0.3,0.2,0.6,0.4,0.8,0.5
		l0.1,0.1c0.2,0.1,0.4,0.2,0.5,0.3c0.3,0.2,0.6,0.3,0.9,0.5l0.2,0.1c0.2,0.1,0.3,0.2,0.5,0.3c0.3,0.2,0.6,0.3,0.8,0.5l0.3,0.2
		c0.1,0.1,0.3,0.1,0.4,0.2c0.3,0.2,0.6,0.3,0.9,0.5l0.3,0.1c0.1,0.1,0.2,0.1,0.3,0.2c0.4,0.2,0.7,0.4,1.1,0.6l0.5,0.2
		c0.5,0.2,1,0.5,1.5,0.7L73.4,231.3z"/>
</g>
<path class="st1" d="M29.3,176.7c5,0,8.6,3.8,8.1-1.1c-0.2-2.2-0.3-4.4-0.3-6.6c0-66.7,27.1-45.8,62.9-45.8s66.7-20.9,66.7,45.8
	c0,2.2-0.1,4.4-0.3,6.6c-0.5,4.9,1.4-15.7,6.4-15.7c0,0,6.2,2.2,5.7-1c-5.1-38.4-38.7-68.1-78.4-67.2c-37.9,0.8-69.1,28.9-74.7,65.4
	c-0.6,3.9,5,4,6.1,9.1L29.3,176.7z"/>
<circle class="st2" cx="101.9" cy="167.9" r="74.4"/>
<g>
	<polygon class="st0" points="82.3,189.9 121.4,189.8 119.4,193.3 110.3,196 98.3,197.4 85,193.7 	"/>
	<path class="st1" d="M136,173.8L136,173.8l-30.7,0l-3.3-3.3l-3.3,3.3H69c-5.7,0-10.3,4.6-10.3,10.3c0,3.9,2.2,7.3,5.4,9.1
		c-0.2-0.9-0.4-1.7-0.4-2.7c0-5.7,4.6-10.3,10.3-10.3l4.4-0.1h47.2l4.4,0.1c5.7,0,10.3,4.6,10.3,10.3c0,0.9-0.1,1.8-0.4,2.7
		c3.2-1.7,5.4-5.1,5.4-9.1C145.4,178.7,141.3,174.2,136,173.8z"/>
	<path class="st1" d="M126.2,188.8H78c-2.6,0-4.9-0.7-7-1.9h-0.3c8.6,6.9,19.5,11,31.4,11c11.9,0,22.8-4.1,31.4-11h-0.3
		C131.2,188.1,128.8,188.8,126.2,188.8z M102.1,196.2c-6,0-11.6-1.8-16.2-4.9h32.5C113.7,194.4,108.1,196.2,102.1,196.2z"/>
	<path class="st1" d="M89.8,204.8l12.4,12.4l12.1-12.1c-3.5,2.3-7.6,3.6-12,3.6C97.6,208.7,93.4,207.2,89.8,204.8z"/>
</g>
<g>
	<path class="st1" d="M133.5,149c4.7,0,8.6,3.1,9.9,7.3c0.3-1,0.5-2,0.5-3c0-5.7-4.6-10.3-10.3-10.3s-10.3,4.6-10.3,10.3
		c0,1.1,0.2,2.1,0.5,3C124.9,152.1,128.9,149,133.5,149z"/>
	<path class="st1" d="M69.6,149c4.7,0,8.6,3.1,9.9,7.3c0.3-1,0.5-2,0.5-3c0-5.7-4.6-10.3-10.3-10.3s-10.3,4.6-10.3,10.3
		c0,1.1,0.2,2.1,0.5,3C61,152.1,65,149,69.6,149z"/>
</g>
<g>
	<circle class="st2" cx="174.9" cy="156.6" r="10"/>
	<circle class="st2" cx="28.5" cy="156.6" r="10"/>
	<g class="st3">
		<circle class="st1" cx="174.9" cy="156.6" r="6.3"/>
		<circle class="st1" cx="28.5" cy="156.6" r="6.3"/>
	</g>
</g>
<path class="st1" d="M31.8,182.8c4.8,0,8.5-4.1,8.1-8.9c-0.2-2.1-0.3-4.2-0.3-6.4c0-64.2,26.1-44.1,60.6-44.1s64.2-20.1,64.2,44.1
	c0,2.1-0.1,4.3-0.3,6.4c-0.5,4.8,3.3,8.9,8.1,8.9h2.7c1-5,1.6-10.1,1.6-15.4c-0.1-41.4-34.7-75.2-76.1-74.3
	C59.9,94,27.5,127,27.5,167.6c0,5.2,0.5,10.3,1.6,15.3H31.8z"/>
<path class="st4" d="M152,112.8c12,13.2,19.4,30.8,19.4,50.1c0,41.1-33.3,74.4-74.4,74.4c-19.3,0-36.8-7.3-50.1-19.4
	c13.6,15,33.3,24.4,55.1,24.4c41.1,0,74.4-33.3,74.4-74.4C176.3,146,166.9,126.4,152,112.8z"/>
<g>
	<path class="st1" d="M173.3,188.3l-3.5-0.4c-3-0.3-5.7-1.8-7.6-4.1c-0.3-0.3-0.2-0.8,0.1-1.1v0c0.3-0.2,0.8-0.2,1,0.1
		c1.6,2,4,3.2,6.6,3.5l3.7,0.4L173.3,188.3z"/>
</g>
<g>
	<path class="st1" d="M171.7,193.6l-3.2-0.3c-3-0.3-5.7-1.8-7.6-4.1c-0.3-0.3-0.2-0.8,0.1-1.1l0,0c0.3-0.2,0.8-0.2,1,0.1
		c1.6,2,4,3.2,6.6,3.5l3.6,0.4L171.7,193.6z"/>
</g>
<g>
	<path class="st1" d="M30.3,188.3l3.5-0.4c3-0.3,5.7-1.8,7.6-4.1c0.3-0.3,0.2-0.8-0.1-1.1v0c-0.3-0.2-0.8-0.2-1,0.1
		c-1.6,2-4,3.2-6.6,3.5l-3.7,0.4L30.3,188.3z"/>
</g>
<g>
	<path class="st1" d="M32,193.3l3.2-0.3c3-0.3,5.7-1.8,7.6-4.1c0.3-0.3,0.2-0.8-0.1-1.1h0c-0.3-0.2-0.8-0.2-1,0.1
		c-1.6,2-4,3.2-6.6,3.5l-3.6,0.4L32,193.3z"/>
</g>
<path class="st5" d="M159.6,38.1c-4.7,0-9.1,1-13.1,2.9c-6.6-19-24.7-32.7-46-32.7C79.1,8.3,61,22,54.4,41c-4-1.8-8.4-2.9-13.1-2.9
	C24,38.1,10,52.1,10,69.4s14,31.3,31.3,31.3c9.3,0,17.7-4.1,23.4-10.6c8.9,9.6,21.6,15.6,35.7,15.6s26.8-6,35.7-15.6
	c5.7,6.5,14.1,10.6,23.4,10.6c17.3,0,31.3-14,31.3-31.3S176.9,38.1,159.6,38.1z"/>
<path class="st5" d="M102.4,113.9L102.4,113.9c-22.3,0-41.7-3.1-46.4-7.5L45.6,68.4h113.9l-10.9,38.2
	C143.7,110.9,124.5,113.9,102.4,113.9z"/>
<path class="st5" d="M136.2,90.2c8.2-8.8,13.2-20.6,13.2-33.5c0-0.8,0-1.6-0.1-2.4c-1.3,26-22.7,46.7-49.1,46.7
	c-26.3,0-47.8-20.7-49.1-46.7c0,0.8-0.1,1.6-0.1,2.4c0,13,5.1,24.9,13.4,33.7c-3,3.3-6.7,6-10.9,7.8l1.5,5.6
	c3.6-1.8,6.9-4.3,9.5-7.3c8.9,9.6,21.6,15.6,35.7,15.6s26.8-6,35.7-15.6c3.5,3.9,7.9,7,12.9,8.8l1.6-5.8
	C145,97.8,140,94.5,136.2,90.2z"/>
<ellipse class="st6" cx="148.9" cy="169.6" rx="10" ry="4.6"/>
<ellipse class="st6" cx="55.1" cy="169.6" rx="10" ry="4.6"/>
</svg>
