<?xml version="1.0" encoding="utf-8"?>
<!-- Generator: Adobe Illustrator 20.0.0, SVG Export Plug-In . SVG Version: 6.00 Build 0)  -->
<svg version="1.1" id="Layer_1" xmlns="http://www.w3.org/2000/svg" xmlns:xlink="http://www.w3.org/1999/xlink" x="0px" y="0px"
	 viewBox="0 0 400 600" style="enable-background:new 0 0 400 600;" xml:space="preserve">
<style type="text/css">
	.st0{fill:#FFFFFF;}
	.st1{fill:#4C1D12;}
	.st2{fill:#F5CF8B;}
	.st3{opacity:0.1;}
	.st4{opacity:0.1;fill:#4C1D12;}
	.st5{fill:#B4E2EB;}
	.st6{fill:#7ED0DC;}
	.st7{opacity:0.15;fill:#B22124;}
</style>
<g>
	<g>
		<path class="st0" d="M182.9,527c-3.5,0-6.9,1.7-7.1,5.3h14.3C189.8,528.7,186.5,527,182.9,527z"/>
		<path class="st0" d="M138.4,527.9c-4.2,0-6.7,3.5-6.7,8.1s2.6,8.1,6.7,8.1c4.2,0,6.7-3.5,6.7-8.1S142.6,527.9,138.4,527.9z"/>
		<path class="st0" d="M367.4,495.3c-7.2,0-11.7,3.3-13.9,7.5c-0.4-0.3-0.7-0.5-1.1-0.8l-0.1-0.1c-5.3-3-11-4.5-17.4-4.5
			c-9.6,0-17.9,3.3-24.1,8.9c-1.2-5.7-6.1-11-15.2-11c-7.2,0-11.7,3.3-13.9,7.5c-0.4-0.3-0.7-0.5-1.1-0.8l-0.1-0.1
			c-2.1-1.2-4.4-2.1-6.7-2.9c4.1-2,8.2-4.2,12.1-6.6c2.2-1.3,4.4-2.7,6.5-4.1c3.2-2.1,6.3-4.4,9.3-6.8c12.1-9.5,22.7-20.6,31.5-33.1
			c5.2-7.3,9.8-15.1,13.7-23.2c1.1-2.3,2.2-4.7,3.2-7.1c7.7-18.2,11.9-37.5,12.5-57.4c10.4-4.8,17.4-15.3,17.4-27.2
			c0-13.2-8.4-24.5-20.5-28.4c-9.9-28.6-27.9-54.5-51.5-74l0.3-0.9c3.6,0.6,7.3,0.8,10.9,0.8c40,0,72.6-32.6,72.6-72.6
			S359.3,86,319.2,86c-7.1,0-14.1,1-20.9,3c-17.3-38.1-55.5-63-98-63c-42.4,0-80.6,24.9-98,63c-6.7-2-13.7-3-20.9-3
			C41.5,86,9,118.6,9,158.6s32.6,72.6,72.6,72.6c6.2,0,12.3-0.8,18.2-2.3l0.3,1c-24.3,19.6-42.8,45.9-52.9,75.3
			C34.8,308.9,26,320.4,26,333.8c0,12.3,7.4,23,18.2,27.6c0.4,12.9,2.4,25.7,5.8,38l2.1,7.9h0.3c7.4,22,19.7,42.3,35.8,59.1
			c0.2,0.2,0.4,0.4,0.6,0.6l0.3,0.3c0.6,0.7,1.3,1.3,1.9,2c0.2,0.2,0.5,0.5,0.7,0.7l0.3,0.3c0.6,0.6,1.2,1.2,1.8,1.7
			c0.3,0.3,0.6,0.5,0.8,0.8l0.3,0.3c0.6,0.5,1.2,1.1,1.7,1.6c0.3,0.3,0.6,0.5,0.9,0.8l0.4,0.3c0.6,0.5,1.1,1,1.7,1.5
			c0.4,0.3,0.7,0.6,1.1,0.9l0.2,0.2c0.6,0.5,1.2,1,1.7,1.4c0.4,0.4,0.9,0.7,1.3,1.1c0.6,0.5,1.2,0.9,1.8,1.4
			c0.5,0.4,0.9,0.7,1.4,1.1c0.6,0.4,1.2,0.9,1.8,1.3c0.5,0.3,0.9,0.7,1.4,1c0.6,0.4,1.2,0.9,1.8,1.3c0.5,0.3,1,0.7,1.4,1
			c0.6,0.4,1.2,0.8,1.9,1.2c0.5,0.3,1,0.6,1.5,1c0.6,0.4,1.3,0.8,1.9,1.2l0.2,0.1c0.4,0.3,0.8,0.5,1.2,0.8c0.7,0.4,1.3,0.8,2,1.2
			l0.3,0.2c0.4,0.2,0.7,0.4,1.1,0.7c0.6,0.4,1.3,0.7,1.9,1.1l0.5,0.3c0.3,0.2,0.7,0.4,1,0.5c0.7,0.4,1.4,0.8,2.2,1.2l0.4,0.2
			c0.3,0.2,0.6,0.3,0.9,0.5c0.8,0.4,1.7,0.9,2.5,1.3l0.3,0.2c0.2,0.1,0.5,0.2,0.7,0.3c1.2,0.6,2.4,1.1,3.6,1.7l0.2,0.1
			c1.1,0.5,2.3,1,3.4,1.5c0.3,0.1,0.5,0.2,0.8,0.3l0.5,0.2c0.8,0.3,1.6,0.7,2.4,1c0.3,0.1,0.7,0.3,1,0.4l0.8,0.3
			c0.7,0.3,1.3,0.5,2,0.8c0.4,0.1,0.8,0.3,1.2,0.4l0.4,0.1c0.7,0.3,1.4,0.5,2.2,0.8c0.5,0.2,0.9,0.3,1.4,0.4l0.3,0.1
			c0.7,0.2,1.5,0.5,2.2,0.7c0.5,0.2,1,0.3,1.5,0.5l0.2,0.1c0.7,0.2,1.4,0.4,2.2,0.6c0.6,0.2,1.2,0.3,1.8,0.5
			c0.7,0.2,1.4,0.4,2.2,0.6c0.6,0.2,1.2,0.3,1.8,0.4c0.7,0.2,1.5,0.3,2.2,0.5c0.6,0.1,1.1,0.2,1.7,0.4c-3.6,1.7-6.5,4-8.8,6.7
			c-4.4-5.8-11.1-9.4-19-9.4c-3.3,0-6.3,0.7-9,2c-1.6-0.8-3.5-1.2-5.5-1.2h-6c-3,0-5.6,1-7.5,2.5c-2-1.6-4.5-2.5-7.5-2.5h-6
			c-3.4,0-6.3,1.2-8.4,3.2c-2.1-2-5-3.2-8.4-3.2h-6c-1.9,0-3.7,0.4-5.2,1.1c-0.2-0.5-0.4-1.1-0.7-1.6c-3.2-5.6-9.6-12.4-22.4-12.4
			c-15.1,0-26,9.6-26,23c0.1,5.1,1.9,9.1,4.5,12.2c-2,1.1-3.6,2.6-4.7,4.6c-1.5,2.8-1.7,6.1-0.5,9.2l0,0.1
			c3.9,10.1,13.5,15.9,26.3,15.9c9.1,0,16.5-2.9,21.3-7.8c3.5,5,8.9,7.8,15.9,7.8c3.6,0,6.5-0.7,8.9-1.9c1.6,0.7,3.4,1.1,5.3,1.1h6
			c1.2,0,2.3-0.2,3.4-0.5v4.3c0,6.9,4.8,11.7,11.7,11.7h6c6.9,0,11.7-4.8,11.7-11.7v-3.2c0.9,0.1,1.9,0.2,2.8,0.2
			c7.9,0,14.6-3.7,19-9.5c5.2,5.8,13.1,9.5,22.6,9.5c6.7,0,12.8-1.7,17.9-4.9c0.2-0.1,0.3-0.3,0.5-0.4c2.1,2.8,5.4,4.6,9.5,4.6h6
			c6.9,0,11.7-4.8,11.7-11.7v-11.7c0-0.1,0-0.2,0-0.3c0.1,0,0.2,0,0.3,0c3.7,14.3,16.8,24.4,33.4,24.4c7.1,0,13.7-2.1,19.6-6
			c2,3.2,5.5,5.2,10,5.2h6c5.9,0,10.2-3.5,11.4-8.8c6.2,6,14.9,9.6,24.9,9.6c7.1,0,13.7-2.1,19.6-6c2,3.2,5.5,5.2,10,5.2h6
			c6.9,0,11.7-4.8,11.7-11.7v-28.1c0-2.1-0.4-3.9-1.2-5.6c1.4-2.2,2.1-4.7,2.1-7.2C383,502.5,378.1,495.3,367.4,495.3z M49.3,555
			c-9.6,0-16.5-3.9-19.2-11.1c-1-2.6,0.4-4.4,3-5.1l3.9-0.9c2.4-0.6,3.7,0.5,5.1,2.7c1.5,2.1,3.8,3.3,7.1,3.3c3.3,0,5.7-1.1,5.7-3.5
			c0-1.2-0.6-2.7-4.1-3.8l-5.5-2.1c-2.4-0.8-14.1-3.9-14.3-14.2c0-9.3,7.9-15.4,18.5-15.4c7.5,0,12.7,3,15.9,8.5
			c1.5,2.5,0.3,4.6-2.4,5.3l-3.7,1c-2.4,0.7-3.7-0.3-5.4-2.2c-0.9-1-2.1-1.6-4-1.6c-2.4,0-4.6,1-4.6,3c0,1.4,1,2.6,3.9,3.7l5.4,1.9
			c10.8,3.7,14.2,8.4,14.4,15.3C69.1,550.3,59.8,555,49.3,555z M110.9,550c0,2.7-1.5,4.2-4.2,4.2h-6c-2.7,0-4.2-1.5-4.2-4.2v-0.3
			c-2,3.3-5.2,5.3-10.1,5.3c-11.3,0-12.7-9.9-12.7-15.8v-17.2c0-2.7,1.5-4.2,4.2-4.2h6c2.7,0,4.2,1.5,4.2,4.2v15.8
			c0,2.8,0.6,6.2,4.3,6.2c3.7,0,4.2-3.3,4.2-6.2v-15.8c0-2.7,1.5-4.2,4.2-4.2h6c2.7,0,4.2,1.5,4.2,4.2V550z M142.3,555
			c-4.7,0-8.4-2-10.4-5.3v15.9c0,2.7-1.5,4.2-4.2,4.2h-6c-2.7,0-4.2-1.5-4.2-4.2v-43.6c0-2.7,1.5-4.2,4.2-4.2h6
			c2.7,0,4.2,1.5,4.2,4.2v0.3c1.9-3.3,5.7-5.3,10.4-5.3c9.7,0,17.1,8,17.1,19C159.4,547,152,555,142.3,555z M198.6,538.8h-22.8
			c0,2,3.2,5.5,9.3,5.5c1.7,0,3.9-0.3,6.4-1.5c2.4-1.1,4.2-1,5.7,1.1l1.1,1.5c1.6,2.1,1.5,4.4-0.8,5.9c-4.1,2.6-9,3.7-13.7,3.7
			c-13.4,0-21.4-8.4-21.4-18.8c0-10,7.2-19.1,20.3-19.1c11.5,0,20.1,6.9,20.1,18.6C202.9,537.9,201.2,538.8,198.6,538.8z
			 M201.2,515.6c0.2,0,0.4,0,0.7,0c-0.1,0.1-0.2,0.2-0.2,0.3C201.5,515.8,201.3,515.7,201.2,515.6z M233.7,527.6c0,2.2-1.2,3.2-3,3
			c-0.6-0.1-1.1-0.1-1.6-0.1c-5.8,0-7.2,4-7.2,7.8V550c0,2.7-1.5,4.2-4.2,4.2h-6c-2.7,0-4.2-1.5-4.2-4.2v-28.1
			c0-2.7,1.5-4.2,4.2-4.2h5.4c2.7,0,4.2,1.5,4.2,4.2v3.5c1.2-7.4,7.2-8.4,9.1-8.4h0.8c1.9,0,2.4,1.6,2.4,2.9V527.6z M224.7,494.5
			c-1.2,0.2-2.3,0.3-3.5,0.5c-2.3,0.3-4.7,0.5-7,0.7c-4.8,0.4-9.7,0.5-14.5,0.4c-0.2,0-0.4,0-0.6,0l-0.8,0c-0.8,0-1.5-0.1-2.3-0.1
			c-0.3,0-0.6,0-0.9-0.1l-0.8-0.1c-0.6,0-1.3-0.1-1.9-0.1c-0.3,0-0.7-0.1-1-0.1l-0.6-0.1c-0.7-0.1-1.4-0.1-2.1-0.2
			c-0.4,0-0.7-0.1-1.1-0.1l-0.5-0.1c-0.7-0.1-1.4-0.2-2-0.2c-0.5-0.1-0.9-0.1-1.4-0.2l-0.2,0c-0.7-0.1-1.3-0.2-2-0.3
			c-0.5-0.1-1.1-0.2-1.6-0.3c-0.7-0.1-1.3-0.2-2-0.3c-0.5-0.1-1.1-0.2-1.6-0.3c-0.6-0.1-1.3-0.3-1.9-0.4c-0.5-0.1-1.1-0.2-1.6-0.3
			c-0.6-0.1-1.3-0.3-1.9-0.4c-0.5-0.1-1-0.2-1.6-0.4c-0.6-0.2-1.3-0.3-1.9-0.5c-0.5-0.1-1-0.3-1.5-0.4c-0.6-0.2-1.3-0.4-1.9-0.5
			l-0.2-0.1c-0.4-0.1-0.9-0.3-1.3-0.4c-0.6-0.2-1.3-0.4-1.9-0.6l-0.3-0.1c-0.4-0.1-0.8-0.2-1.1-0.4c-0.6-0.2-1.3-0.4-2-0.7l-0.4-0.1
			c-0.3-0.1-0.7-0.2-1-0.3c-0.6-0.2-1.2-0.4-1.7-0.6l-0.8-0.3c-0.2-0.1-0.5-0.2-0.7-0.3c-0.7-0.3-1.4-0.6-2.2-0.9l-1-0.4
			c-1-0.4-2-0.9-3-1.3l-0.4-0.2c-1-0.5-2-0.9-3-1.4l-0.9-0.5c-0.7-0.4-1.5-0.7-2.2-1.1c-0.2-0.1-0.4-0.2-0.7-0.4l-0.5-0.3
			c-0.6-0.3-1.3-0.7-1.9-1c-0.3-0.1-0.5-0.3-0.8-0.4l-0.6-0.3c-0.6-0.3-1.1-0.6-1.7-0.9c-0.3-0.2-0.6-0.4-0.9-0.5l-0.3-0.2
			c-0.6-0.3-1.2-0.7-1.7-1c-0.4-0.2-0.7-0.4-1.1-0.7l-0.2-0.1c-0.6-0.4-1.1-0.7-1.7-1.1c-0.4-0.3-0.8-0.6-1.3-0.8
			c-0.5-0.4-1.1-0.7-1.6-1.1c-0.4-0.3-0.8-0.6-1.3-0.9c-0.5-0.4-1.1-0.8-1.6-1.1c-0.4-0.3-0.8-0.6-1.2-0.9c-0.5-0.4-1-0.8-1.6-1.2
			c-0.4-0.3-0.8-0.6-1.2-0.9c-0.5-0.4-1-0.8-1.5-1.2c-0.4-0.3-0.8-0.6-1.2-0.9c-0.5-0.4-1-0.8-1.5-1.3l-0.2-0.2
			c-0.3-0.3-0.6-0.5-0.9-0.8c-0.5-0.4-1-0.9-1.5-1.3l-0.4-0.3c-0.2-0.2-0.5-0.4-0.7-0.6c-0.5-0.5-1-0.9-1.5-1.4l-0.4-0.3
			c-0.2-0.2-0.4-0.4-0.6-0.6c-0.5-0.5-1-1-1.6-1.5l-0.4-0.4c-0.2-0.2-0.3-0.3-0.5-0.5c-0.6-0.6-1.1-1.2-1.7-1.7l-0.7-0.7
			c-15.6-16.4-27.2-36.4-33.3-58.1l-0.2-0.6c-3.4-12.3-5.2-25-5.2-37.8l0-0.3l0-0.3c0-0.4,0-0.7,0-1.1l0.1-9.6l-8.9-0.9
			c-5.3-0.5-9.3-5-9.3-10.4c0-5.5,4.3-10,9.8-10.4L62,323l2-6.5c9-29.9,27.9-56.6,53.3-75.2l10-7.4l-7.7-6.4l-6.6-24.6l-10.4,4.5
			c-6.7,2.9-13.8,4.4-21,4.4c-29.3,0-53.1-23.8-53.1-53.1c0-29.3,23.8-53.1,53.1-53.1c7.8,0,15.2,1.6,22.3,4.9l9.8,4.5l3.5-10.2
			c12.3-35.4,45.8-59.2,83.2-59.2c37.5,0,70.9,23.8,83.3,59.2l3.5,10.2l9.8-4.5c7-3.2,14.5-4.9,22.3-4.9c29.3,0,53.1,23.8,53.1,53.1
			c0,29.3-23.8,53.1-53.1,53.1c-5.1,0-10.1-0.7-15-2.2l-9.4-2.8l-5.9,20.5l-9.7,6.7l10.9,8.2c24.9,18.6,43.6,45.1,52.6,74.5l1.9,6.3
			l6.5,0.6c5.4,0.5,9.4,5,9.4,10.4c0,5.2-3.9,9.6-9,10.3l-8.5,1.2l0.1,9.3c0,0.3,0,0.6,0,0.9l0,0.5l0,0.4c0,18.9-3.7,37.2-11,54.4
			c-0.9,2.1-1.8,4.2-2.8,6.2c-3.4,7.1-7.4,13.9-12,20.3c-7.8,11-17.1,20.7-27.7,29.1c-2.6,2.1-5.4,4.1-8.2,5.9
			c-1.8,1.2-3.7,2.5-5.7,3.6c-3.8,2.3-7.8,4.5-11.9,6.5c-2,1-4.1,1.9-6.2,2.8c-7.4,3.1-15,5.6-22.8,7.4
			C231.6,493.3,228.1,494,224.7,494.5z M282.8,544c0,2.1-0.6,3.7-2.1,4.8c-4.8,3.7-10.5,6.1-17.5,6.1c-16.3,0-27-11.5-27-25
			c0-8.5,4.2-16.2,11.4-20.7h0c1.7-1,3.5-1.9,5.5-2.6c0.1,0,0.1,0,0.2-0.1c2-0.6,4-1.1,6.2-1.3h0c1.2-0.1,2.4-0.3,3.7-0.3
			c5.5,0,9.8,1.3,13.7,3.5c2.4,1.5,2.6,3.7,0.8,5.8l-2.8,3.2c-1.7,1.9-3.4,1.9-5.7,1c-2-0.8-4.1-1-6-1c-7.5,0-12.5,5.5-12.5,12.5
			c0,7,4.9,12.5,12.5,12.5c1.5,0,4.2-0.2,5.8-0.8v-5.3h-5.9c-2.7,0-4.2-1.5-4.2-4.2v-2.1c0-2.7,1.5-4.2,4.2-4.2h15.6
			c2.7,0,4.2,1.5,4.2,4.2V544z M302.8,550c0,2.7-1.5,4.2-4.2,4.2h-6c-2.7,0-4.2-1.5-4.2-4.2v-28.1c0-2.7,1.5-4.2,4.2-4.2h6
			c2.7,0,4.2,1.5,4.2,4.2V550z M295.7,515.6c-5.1,0-8-2.8-8-6.4c0-3.6,2.6-6.4,8-6.4c5.4,0,8,2.8,8,6.4
			C303.6,512.8,300.8,515.6,295.7,515.6z M354.6,544c0,2.1-0.6,3.7-2.1,4.8c-4.8,3.7-10.5,6.1-17.5,6.1c-16.3,0-27-11.5-27-25
			c0-13.5,10.7-25,27-25c5.5,0,9.8,1.3,13.7,3.5c2.4,1.5,2.6,3.7,0.8,5.8l-2.8,3.2c-1.7,1.9-3.4,1.9-5.7,1c-2-0.8-4.1-1-6-1
			c-7.5,0-12.5,5.5-12.5,12.5c0,7,4.9,12.5,12.5,12.5c1.5,0,4.2-0.2,5.8-0.8v-5.3h-5.9c-2.7,0-4.2-1.5-4.2-4.2v-2.1
			c0-2.7,1.5-4.2,4.2-4.2h15.6c2.7,0,4.2,1.5,4.2,4.2V544z M374.6,550c0,2.7-1.5,4.2-4.2,4.2h-6c-2.7,0-4.2-1.5-4.2-4.2v-28.1
			c0-2.7,1.5-4.2,4.2-4.2h6c2.7,0,4.2,1.5,4.2,4.2V550z M367.4,515.6c-5.1,0-8-2.8-8-6.4c0-3.6,2.6-6.4,8-6.4c5.4,0,8,2.8,8,6.4
			C375.4,512.8,372.6,515.6,367.4,515.6z"/>
	</g>
	<path class="st1" d="M57.6,374.1c10,0,17.3,7.7,16.3-2.2c-0.4-4.4-0.7-8.8-0.7-13.3c0-134,54.5-92,126.4-92s134.1-41.9,134.1,92
		c0,4.5-0.2,8.9-0.7,13.3c-1,9.9,2.9-31.5,12.9-31.5c0,0,12.4,4.5,11.5-2.1c-10.2-77.1-77.8-136.8-157.5-135
		c-76.1,1.7-138.7,58.1-150,131.4c-1.2,7.8,10.1,8,12.3,18.3L57.6,374.1z"/>
	<circle class="st2" cx="203.4" cy="356.3" r="149.5"/>
	<g>
		<polygon class="st0" points="164,400.7 242.6,400.4 238.6,407.4 220.3,412.9 196.1,415.6 169.5,408.3 		"/>
		<path class="st1" d="M271.9,368.3L271.9,368.3l-61.6-0.1l-6.6-6.6l-6.6,6.6h-59.8c-11.4,0-20.7,9.3-20.7,20.7
			c0,7.9,4.4,14.7,10.9,18.2c-0.5-1.7-0.7-3.5-0.7-5.4c0-11.4,9.3-20.7,20.7-20.7l8.9-0.2h94.8l8.9,0.2c11.4,0,20.7,9.3,20.7,20.7
			c0,1.9-0.3,3.6-0.7,5.4c6.5-3.5,10.9-10.3,10.9-18.2C290.8,378,282.5,369.2,271.9,368.3z"/>
		<path class="st1" d="M252.2,398.4h-96.9c-5.1,0-9.9-1.4-14-3.9h-0.6c17.3,13.8,39.2,22,63.1,22c23.9,0,45.8-8.3,63.1-22h-0.5
			C262.2,397,257.4,398.4,252.2,398.4z M203.8,413.3c-12.1,0-23.3-3.7-32.6-9.9h65.2C227.1,409.7,215.9,413.3,203.8,413.3z"/>
		<path class="st1" d="M179.1,430.5l24.9,24.9l24.3-24.3c-6.9,4.6-15.2,7.2-24.2,7.2C194.9,438.3,186.2,435.4,179.1,430.5z"/>
	</g>
	<g>
		<path class="st1" d="M267,318.4c9.4,0,17.3,6.2,19.9,14.7c0.6-1.9,0.9-4,0.9-6.1c0-11.5-9.3-20.8-20.8-20.8
			c-11.5,0-20.8,9.3-20.8,20.8c0,2.1,0.3,4.2,0.9,6.1C249.7,324.6,257.6,318.4,267,318.4z"/>
		<path class="st1" d="M138.5,318.4c9.4,0,17.3,6.2,19.9,14.7c0.6-1.9,0.9-4,0.9-6.1c0-11.5-9.3-20.8-20.8-20.8
			c-11.5,0-20.8,9.3-20.8,20.8c0,2.1,0.3,4.2,0.9,6.1C121.3,324.6,129.2,318.4,138.5,318.4z"/>
	</g>
	<g>
		<circle class="st2" cx="350.1" cy="333.8" r="20.2"/>
		<circle class="st2" cx="55.9" cy="333.8" r="20.2"/>
		<g class="st3">
			<circle class="st1" cx="350.1" cy="333.8" r="12.7"/>
			<circle class="st1" cx="55.9" cy="333.8" r="12.7"/>
		</g>
	</g>
	<path class="st1" d="M62.5,386.4c9.6,0,17.2-8.3,16.2-17.8c-0.4-4.2-0.6-8.5-0.6-12.8c0-128.9,52.5-88.6,121.7-88.6
		s129-40.4,129,88.6c0,4.3-0.2,8.6-0.6,12.8c-1,9.6,6.6,17.8,16.2,17.8h5.5c2.1-10,3.2-20.3,3.1-30.9
		c-0.2-83.3-69.7-151-152.9-149.2c-81,1.8-146.2,68-146.2,149.5c0,10.5,1.1,20.7,3.1,30.6H62.5z"/>
	<path class="st4" d="M304,245.7c24.2,26.6,38.9,61.8,38.9,100.6c0,82.6-66.9,149.5-149.5,149.5c-38.7,0-74-14.7-100.6-38.9
		c27.4,30.1,66.8,49,110.7,49c82.6,0,149.5-66.9,149.5-149.5C352.9,312.5,334,273,304,245.7z"/>
	<g>
		<path class="st1" d="M346.9,397.5l-7.1-0.7c-6-0.7-11.4-3.6-15.2-8.2c-0.6-0.7-0.4-1.7,0.3-2.2l0,0c0.7-0.5,1.6-0.3,2.1,0.3
			c3.3,4,8.1,6.5,13.2,7.1l7.5,0.8L346.9,397.5z"/>
	</g>
	<g>
		<path class="st1" d="M343.6,408.1l-6.5-0.7c-6-0.7-11.4-3.6-15.2-8.2c-0.6-0.7-0.4-1.7,0.3-2.2l0,0c0.7-0.5,1.6-0.3,2.1,0.3
			c3.3,4,8.1,6.5,13.2,7.1l7.2,0.7L343.6,408.1z"/>
	</g>
	<g>
		<path class="st1" d="M59.6,397.5l7.1-0.7c6-0.7,11.4-3.6,15.2-8.2c0.6-0.7,0.4-1.7-0.3-2.2h0c-0.7-0.5-1.6-0.3-2.1,0.3
			c-3.3,4-8.1,6.5-13.2,7.1l-7.5,0.8L59.6,397.5z"/>
	</g>
	<g>
		<path class="st1" d="M62.9,407.5l6.5-0.7c6-0.7,11.4-3.6,15.2-8.2c0.6-0.7,0.4-1.7-0.3-2.2l0,0c-0.7-0.5-1.6-0.3-2.1,0.3
			c-3.3,4-8.1,6.5-13.2,7.1l-7.2,0.7L62.9,407.5z"/>
	</g>
	<path class="st5" d="M319.2,95.7c-9.4,0-18.3,2.1-26.4,5.8c-13.3-38.3-49.7-65.7-92.5-65.7c-42.8,0-79.2,27.5-92.5,65.7
		c-8-3.7-16.9-5.8-26.4-5.8c-34.7,0-62.9,28.1-62.9,62.9s28.1,62.9,62.9,62.9c18.7,0,35.6-8.2,47.1-21.2
		c17.9,19.3,43.4,31.3,71.7,31.3s53.9-12.1,71.7-31.3c11.5,13,28.3,21.2,47.1,21.2c34.7,0,62.9-28.1,62.9-62.9S354,95.7,319.2,95.7z
		"/>
	<path class="st5" d="M204.3,248L204.3,248c-44.9,0-83.7-6.2-93.3-15l-20.6-76.5h228.9l-21.9,76.7C287.4,241.9,248.8,248,204.3,248z
		"/>
	<path class="st6" d="M272.2,200.3c16.5-17.6,26.6-41.3,26.6-67.4c0-1.6,0-3.3-0.1-4.9c-2.5,52.2-45.7,93.8-98.6,93.8
		c-52.9,0-96-41.6-98.6-93.8c-0.1,1.6-0.1,3.2-0.1,4.9c0,26.2,10.2,50,26.8,67.7c-6,6.7-13.5,12.1-21.8,15.7l3,11.3
		c7.3-3.6,13.8-8.6,19.1-14.7c17.9,19.3,43.4,31.3,71.7,31.3s53.9-12.1,71.7-31.3c7,7.9,15.9,14,26,17.6l3.3-11.6
		C290,215.5,280,209,272.2,200.3z"/>
	<ellipse class="st7" cx="297.8" cy="359.9" rx="20" ry="9.3"/>
	<ellipse class="st7" cx="109.4" cy="359.9" rx="20" ry="9.3"/>
</g>
</svg>
