<?xml version="1.0" encoding="UTF-8" standalone="no"?>
<svg width="100px" height="100px" viewBox="0 0 100 100" version="1.1" xmlns="http://www.w3.org/2000/svg" xmlns:xlink="http://www.w3.org/1999/xlink" xmlns:sketch="http://www.bohemiancoding.com/sketch/ns">
    <!-- Generator: Sketch 3.3.1 (12005) - http://www.bohemiancoding.com/sketch -->
    <title>book-open</title>
    <desc>Created with Sketch.</desc>
    <defs></defs>
    <g id="Icons" stroke="none" stroke-width="1" fill="none" fill-rule="evenodd" sketch:type="MSPage">
        <g id="book-open" sketch:type="MSArtboardGroup" fill="#000000">
            <path d="M92.9514986,0.204993565 L51.666093,11.383158 C50.6167817,11.6640949 48.3370278,11.6609733 47.2908394,11.3675504 L7.06723698,0.226844208 C3.47896685,-0.762677752 -7.81597009e-14,1.82506264 -7.81597009e-14,5.52094277 L-7.81597009e-14,81.4238322 C-7.81597009e-14,84.5547172 2.37344238,87.5482552 5.39645846,88.3910657 L45.6200609,99.5348935 C46.6974788,99.8345594 48.0809459,100 49.5175031,100 C50.5012325,100 51.9565274,99.9250835 53.2962732,99.5567441 L94.5816788,88.3785796 C97.6140637,87.5607413 99.9999979,84.5703248 99.9999979,81.4269538 L99.9999979,5.52094277 C100.003121,1.82818416 96.524154,-0.765799272 92.9483757,0.204993565 L92.9514986,0.204993565 Z M46.8786099,93.3979844 L6.97042551,82.3696529 C6.67062226,82.2884934 6.245901,81.7359843 6.245901,81.4238322 L6.245901,6.50422168 L45.6200609,17.3858417 C46.0010608,17.4919734 46.4289051,17.5762545 46.875487,17.6449279 L46.875487,93.4011059 L46.8786099,93.3979844 Z M93.7572199,81.4238322 C93.7572199,81.7328628 93.2513019,82.2666427 92.9514986,82.3509238 L53.1245109,93.1326552 L53.1245109,17.4451506 C53.180724,17.429543 53.243183,17.4233 53.2993962,17.4076924 L93.7540969,6.46988496 L93.7540969,81.4238322 L93.7572199,81.4238322 Z M62.6901083,35.7840828 C62.9711738,35.7840828 63.2553623,35.7497461 63.5364279,35.6685866 L85.3908355,29.5191914 C87.0522451,29.0509634 88.0203598,27.3278841 87.5519172,25.6703568 C87.0834746,24.0128295 85.3502371,23.0482797 83.7013192,23.5102647 L61.8469117,29.6565383 C60.185502,30.1247664 59.2173873,31.8478456 59.6858299,33.5053729 C60.0730758,34.8819634 61.3285019,35.7809613 62.6901083,35.7809613 L62.6901083,35.7840828 Z M62.6901083,54.5132051 C62.9711738,54.5132051 63.2553623,54.4757468 63.5364279,54.3977088 L85.3908355,48.2483137 C87.0522451,47.7800856 88.0203598,46.0570064 87.5519172,44.3994791 C87.0834746,42.7419517 85.3502371,41.7774019 83.7013192,42.2362654 L61.8469117,48.3856606 C60.185502,48.8538886 59.2173873,50.5769679 59.6858299,52.2344952 C60.0730758,53.6142072 61.3285019,54.5132051 62.6901083,54.5132051 L62.6901083,54.5132051 Z M62.6901083,73.2423273 C62.9711738,73.2423273 63.2553623,73.2048691 63.5364279,73.1268311 L85.3908355,66.9774359 C87.0522451,66.5060864 88.0203598,64.7861286 87.5519172,63.1286013 C87.0834746,61.471074 85.3502371,60.5065242 83.7013192,60.9685092 L61.8469117,67.1179044 C60.185502,67.5892539 59.2173873,69.3092117 59.6858299,70.966739 C60.0730758,72.3433295 61.3285019,73.2454489 62.6901083,73.2454489 L62.6901083,73.2423273 Z M38.546578,29.6565383 L16.6921704,23.5071432 C15.0401296,23.0482797 13.3068921,24.009708 12.8384495,25.6703568 C12.3700069,27.3310056 13.3381216,29.0509634 14.9995312,29.5191914 L36.8539388,35.6685866 C37.1350044,35.7466246 37.4191929,35.7840828 37.7002584,35.7840828 C39.0649878,35.7840828 40.3172909,34.8850849 40.7045368,33.5084945 C41.1698564,31.8509671 40.2048647,30.1278879 38.5403321,29.6596598 L38.546578,29.6565383 Z M38.546578,48.3856606 L16.6921704,42.2362654 C15.0401296,41.7742804 13.3068921,42.7388302 12.8384495,44.3994791 C12.3700069,46.0601279 13.3381216,47.7800856 14.9995312,48.2483137 L36.8539388,54.3977088 C37.1350044,54.4788684 37.4191929,54.5132051 37.7002584,54.5132051 C39.0649878,54.5132051 40.3172909,53.6142072 40.7045368,52.2344952 C41.1698564,50.5769679 40.2048647,48.8538886 38.5403321,48.3856606 L38.546578,48.3856606 Z M38.546578,67.1147828 L16.6921704,60.9653877 C15.0401296,60.5034027 13.3068921,61.4679525 12.8384495,63.1254798 C12.3700069,64.7830071 13.3381216,66.5060864 14.9995312,66.9743144 L36.8539388,73.1237096 C37.1350044,73.2048691 37.4191929,73.2392058 37.7002584,73.2392058 C39.0649878,73.2392058 40.3172909,72.3402079 40.7045368,70.9604959 C41.1698564,69.2998471 40.2048647,67.5798894 38.5403321,67.1116613 L38.546578,67.1147828 Z" id="Shape" sketch:type="MSShapeGroup"></path>
        </g>
    </g>
</svg>