<?xml version="1.0" encoding="UTF-8" standalone="no"?>
<svg width="100px" height="100px" viewBox="0 0 100 100" version="1.1" xmlns="http://www.w3.org/2000/svg" xmlns:xlink="http://www.w3.org/1999/xlink" xmlns:sketch="http://www.bohemiancoding.com/sketch/ns">
    <!-- Generator: Sketch 3.2.2 (9983) - http://www.bohemiancoding.com/sketch -->
    <title>cart</title>
    <desc>Created with Sketch.</desc>
    <defs></defs>
    <g id="Icons" stroke="none" stroke-width="1" fill="none" fill-rule="evenodd" sketch:type="MSPage">
        <g id="cart" sketch:type="MSArtboardGroup" fill="#000000">
            <path d="M99.4381451,27.0220588 C98.8539723,26.1706656 97.902336,25.6611197 96.8847447,25.6611197 L30.229372,25.6611197 L25.1822446,7.79476264 C23.2035948,0.757868937 18.501946,3.05533376e-13 16.5735476,3.05533376e-13 L3.11872898,3.05533376e-13 C1.394477,3.05533376e-13 -9.23705556e-14,1.43511352 -9.23705556e-14,3.20239938 C-9.23705556e-14,4.96968524 1.39761772,6.40479876 3.11872898,6.40479876 L16.5704069,6.40479876 C16.997544,6.40479876 18.2946589,6.40479876 19.1803402,9.54592363 L36.5390664,75.0483746 C36.915952,76.4286636 38.1439712,77.3832559 39.5415889,77.3832559 L81.9380869,77.3832559 C83.254046,77.3832559 84.428673,76.5383127 84.8715137,75.2644479 L99.8150308,29.9438854 C100.160509,28.9634933 100.016036,27.870227 99.4318637,27.0188338 L99.4381451,27.0220588 Z M79.7490092,70.9816821 L41.9159687,70.9816821 L31.9881718,32.0691434 L92.456338,32.0691434 L79.7490092,70.9816821 L79.7490092,70.9816821 Z M73.5618027,83.875129 C69.2244767,83.875129 65.7100178,87.4838751 65.7100178,91.9375645 C65.7100178,96.3912539 69.2244767,100 73.5618027,100 C77.8991287,100 81.4135876,96.3912539 81.4135876,91.9375645 C81.4135876,87.4838751 77.8991287,83.875129 73.5618027,83.875129 L73.5618027,83.875129 Z M45.2953769,83.875129 C40.9580509,83.875129 37.443592,87.4838751 37.443592,91.9375645 C37.443592,96.3912539 40.9580509,100 45.2953769,100 C49.6327029,100 53.1471619,96.3912539 53.1471619,91.9375645 C53.1471619,87.4838751 49.6327029,83.875129 45.2953769,83.875129 L45.2953769,83.875129 Z" id="Shape-5" sketch:type="MSShapeGroup"></path>
        </g>
    </g>
</svg>