<?xml version="1.0" encoding="UTF-8" standalone="no"?>
<svg width="100px" height="100px" viewBox="0 0 100 100" version="1.1" xmlns="http://www.w3.org/2000/svg" xmlns:xlink="http://www.w3.org/1999/xlink" xmlns:sketch="http://www.bohemiancoding.com/sketch/ns">
    <!-- Generator: Sketch 3.2.2 (9983) - http://www.bohemiancoding.com/sketch -->
    <title>calendar</title>
    <desc>Created with Sketch.</desc>
    <defs></defs>
    <g id="Icons" stroke="none" stroke-width="1" fill="none" fill-rule="evenodd" sketch:type="MSPage">
        <g id="calendar" sketch:type="MSArtboardGroup" fill="#000000">
            <path d="M93.9003769,17.0784921 C92.5010806,15.6930864 90.8411976,15.0003836 88.9247996,15.0003836 L81.8482419,15.0003836 L81.8482419,9.75007192 C81.8482419,7.34440624 80.9816554,5.28442076 79.249161,3.5707867 C77.5159879,1.85715264 75.4346874,1 73.0011876,1 L69.4635873,1 C67.0300876,1 64.9481084,1.85715264 63.215614,3.5707867 C61.4824409,5.28442076 60.616533,7.34440624 60.616533,9.75007192 L60.616533,15.0003836 L39.3861814,15.0003836 L39.3861814,9.75007192 C39.3861814,7.34440624 38.5195949,5.28442076 36.7871005,3.5707867 C35.0546061,1.85715264 32.9719483,1 30.5391271,1 L27.0008483,1 C24.5680271,1 22.4853693,1.85715264 20.7528749,3.5707867 C19.0203805,5.28442076 18.153794,7.34440624 18.153794,9.75007192 L18.153794,15.0003836 L11.0772363,15.0003836 C9.16015962,15.0003836 7.50163383,15.6930864 6.1009803,17.0784921 C4.70032677,18.4638978 4,20.1050397 4,22.0005753 L4,92.0004794 C4,93.8953439 4.70032677,95.5358146 6.1009803,96.9218915 C7.50163383,98.3072972 9.16015962,99 11.0772363,99 L88.9234423,99 C90.8398404,99 92.4997234,98.3072972 93.8990197,96.9218915 C95.2996732,95.5364858 96,93.8953439 96,92.0004794 L96,22.0005753 C96,20.1043684 95.3003518,18.4638978 93.9003769,17.0784921 L93.9003769,17.0784921 Z M27.0001697,91.9998082 L11.0772363,91.9998082 L11.0772363,76.2495445 L27.0001697,76.2495445 L27.0001697,91.9998082 L27.0001697,91.9998082 Z M27.0001697,72.7497842 L11.0772363,72.7497842 L11.0772363,55.2509829 L27.0001697,55.2509829 L27.0001697,72.7497842 L27.0001697,72.7497842 Z M27.0001697,51.7498801 L11.0772363,51.7498801 L11.0772363,36.0002877 L27.0001697,36.0002877 L27.0001697,51.7498801 L27.0001697,51.7498801 Z M25.7569539,26.7306886 C25.4067905,26.3843372 25.2317088,25.9748908 25.2317088,25.5003356 L25.2317088,9.75074314 C25.2317088,9.27685922 25.4067905,8.86674155 25.7569539,8.52039013 C26.1071173,8.17403871 26.5210701,8.000863 27.0008483,8.000863 L30.5391271,8.000863 C31.0182266,8.000863 31.4328581,8.17403871 31.7830214,8.52039013 C32.1331848,8.86674155 32.3082665,9.27685922 32.3082665,9.75074314 L32.3082665,25.5003356 C32.3082665,25.9748908 32.1325062,26.3843372 31.7830214,26.7306886 C31.4328581,27.07704 31.0189052,27.2502158 30.5391271,27.2502158 L27.0008483,27.2502158 C26.5217488,27.2502158 26.1071173,27.07704 25.7569539,26.7306886 L25.7569539,26.7306886 Z M48.2311999,91.9998082 L30.5384485,91.9998082 L30.5384485,76.2495445 L48.2311999,76.2495445 L48.2311999,91.9998082 L48.2311999,91.9998082 Z M48.2311999,72.7497842 L30.5384485,72.7497842 L30.5384485,55.2509829 L48.2311999,55.2509829 L48.2311999,72.7497842 L48.2311999,72.7497842 Z M48.2311999,51.7498801 L30.5384485,51.7498801 L30.5384485,36.0002877 L48.2311999,36.0002877 L48.2311999,51.7498801 L48.2311999,51.7498801 Z M69.4629087,91.9998082 L51.7701573,91.9998082 L51.7701573,76.2495445 L69.4629087,76.2495445 L69.4629087,91.9998082 L69.4629087,91.9998082 Z M69.4629087,72.7497842 L51.7701573,72.7497842 L51.7701573,55.2509829 L69.4629087,55.2509829 L69.4629087,72.7497842 L69.4629087,72.7497842 Z M69.4629087,51.7498801 L51.7701573,51.7498801 L51.7701573,36.0002877 L69.4629087,36.0002877 L69.4629087,51.7498801 L69.4629087,51.7498801 Z M68.2183358,26.7306886 C67.868851,26.3843372 67.6944479,25.9748908 67.6944479,25.5003356 L67.6944479,9.75074314 C67.6944479,9.27685922 67.868851,8.86674155 68.2183358,8.52039013 C68.5684992,8.17403871 68.9831306,8.000863 69.4629087,8.000863 L73.000509,8.000863 C73.4802871,8.000863 73.8949185,8.17403871 74.2450819,8.52039013 C74.5952453,8.86674155 74.7696484,9.27685922 74.7696484,9.75074314 L74.7696484,25.5003356 C74.7696484,25.9748908 74.5945667,26.3843372 74.2450819,26.7306886 C73.8955971,27.07704 73.4802871,27.2502158 73.000509,27.2502158 L69.4629087,27.2502158 C68.9831306,27.2502158 68.5678206,27.07704 68.2183358,26.7306886 L68.2183358,26.7306886 Z M88.9234423,91.9998082 L72.9998303,91.9998082 L72.9998303,76.2495445 L88.9234423,76.2495445 L88.9234423,91.9998082 L88.9234423,91.9998082 Z M88.9234423,72.7497842 L72.9998303,72.7497842 L72.9998303,55.2509829 L88.9234423,55.2509829 L88.9234423,72.7497842 L88.9234423,72.7497842 Z M88.9234423,51.7498801 L72.9998303,51.7498801 L72.9998303,36.0002877 L88.9234423,36.0002877 L88.9234423,51.7498801 L88.9234423,51.7498801 Z" id="Shape" sketch:type="MSShapeGroup"></path>
        </g>
    </g>
</svg>