<?xml version="1.0" encoding="UTF-8" standalone="no"?>
<svg width="100px" height="100px" viewBox="0 0 100 100" version="1.1" xmlns="http://www.w3.org/2000/svg" xmlns:xlink="http://www.w3.org/1999/xlink" xmlns:sketch="http://www.bohemiancoding.com/sketch/ns">
    <!-- Generator: Sketch 3.2.2 (9983) - http://www.bohemiancoding.com/sketch -->
    <title>arrow-up-cirlce</title>
    <desc>Created with Sketch.</desc>
    <defs></defs>
    <g id="Icons" stroke="none" stroke-width="1" fill="none" fill-rule="evenodd" sketch:type="MSPage">
        <g id="arrow-up-cirlce" sketch:type="MSArtboardGroup" fill="#000000">
            <path d="M100,50 C100,22.384375 77.615625,0 50,0 C22.384375,0 0,22.384375 0,50 C0,77.615625 22.384375,100 50,100 C77.615625,100 100,77.615625 100,50 Z M6.153125,50 C6.153125,25.875 25.875,6.25 50,6.25 C74.125,6.25 93.75,25.875 93.75,50 C93.75,74.125 74.125,93.75 50,93.75 C25.875,93.75 6.153125,74.125 6.153125,50 L6.153125,50 Z M53.159375,71.90625 L53.159375,36.70625 L64.4625,48.009375 C65.68125,49.228125 67.659375,49.228125 68.88125,48.009375 C70.103125,46.790625 70.1,44.809375 68.88125,43.590625 L49.934375,25.13125 L30.9875,43.590625 C30.378125,44.2 30.071875,45 30.071875,45.8 C30.071875,46.6 30.378125,47.396875 30.9875,48.009375 C32.20625,49.228125 34.1875,49.228125 35.40625,48.009375 L46.903125,36.509375 L46.903125,71.90625 C46.903125,73.63125 48.303125,75.03125 50.028125,75.03125 C51.753125,75.03125 53.153125,73.63125 53.153125,71.90625 L53.159375,71.90625 Z" id="Shape" sketch:type="MSShapeGroup"></path>
        </g>
    </g>
</svg>