<?xml version="1.0" encoding="UTF-8" standalone="no"?>
<svg width="100px" height="100px" viewBox="0 0 100 100" version="1.1" xmlns="http://www.w3.org/2000/svg" xmlns:xlink="http://www.w3.org/1999/xlink" xmlns:sketch="http://www.bohemiancoding.com/sketch/ns">
    <!-- Generator: Sketch 3.3 (11970) - http://www.bohemiancoding.com/sketch -->
    <title>broken-link</title>
    <desc>Created with Sketch.</desc>
    <defs></defs>
    <g id="Icons" stroke="none" stroke-width="1" fill="none" fill-rule="evenodd" sketch:type="MSPage">
        <g id="broken-link" sketch:type="MSArtboardGroup" fill="#000000">
            <path d="M41.1962745,25.3013186 C44.8218199,25.6357621 48.4484765,27.0002028 51.9106891,28.6401982 L60.9517751,32.9224085 C61.3473296,33.1101858 61.3328852,33.544629 61.330663,33.9824056 C61.3173297,36.0990664 60.446221,37.9912834 58.6473371,39.6446121 C58.3251158,39.942389 57.9828945,40.2112772 57.58734,40.0223888 L48.4662543,35.7024008 C47.7773673,31.0335249 44.3240435,28.4290877 41.1962745,25.3013186 L41.1962745,25.3013186 L41.1962745,25.3013186 Z M67.162869,39.7190563 C66.9662029,39.3257241 66.5328707,39.3390574 66.0939831,39.3612796 C63.7884339,39.4779459 62.0184388,40.5757206 60.5062208,42.1468274 C60.2039994,42.4634932 59.9540001,42.822381 60.1506662,43.2146022 C62.4273266,47.7890339 66.535093,54.6934592 66.895092,59.5578901 C67.0939803,62.2656604 66.1162052,64.3489879 63.9595446,65.9312057 C63.1895467,65.1600968 62.4173266,64.3889878 61.6462176,63.6167677 C60.3562212,62.3267713 62.3251047,60.3567768 63.6151011,61.6478843 L64.4406543,62.4723265 C64.8606532,61.6434399 64.9873195,60.7223313 64.9128752,59.7045564 C64.7595423,57.6345621 63.8928781,55.3623462 62.9739917,53.3923517 C60.3984433,53.2979075 57.9117836,54.2645715 56.0873442,56.0890109 C54.2862381,57.8923392 53.3840184,60.2645548 53.3840184,62.632326 C53.3840184,63.7234341 53.575129,64.8167644 53.9584612,65.8523171 C54.5806817,67.5389791 55.3840128,68.4711987 56.6395649,69.7267508 L84.2105994,97.2966742 C86.0117055,99.0977803 88.3839212,100 90.7539146,100 C93.1216858,100 95.4950125,99.0977803 97.2972297,97.2966742 C99.0972247,95.4933459 99.9994444,93.1233524 99.9994444,90.7544701 C99.9994444,88.3844767 99.0972247,86.0122611 97.2961186,84.211155 L76.4906209,63.403435 C76.0283999,66.0556498 74.9361807,68.4911986 73.1628523,70.6678593 L92.0716887,89.5000292 C93.7594618,91.1822467 91.2139133,93.735573 89.5205847,92.048911 L70.7395257,73.3345185 C70.3795267,72.9756306 69.477307,72.0678554 69.5539735,71.5234124 C73.3895184,68.2534215 75.0839581,64.0423221 74.7106258,58.9923361 C74.2239605,52.4023544 70.1406385,45.7012619 67.162869,39.7190563 L67.162869,39.7190563 L67.162869,39.7190563 Z M61.8639948,18.3302269 C60.8717754,18.3302269 60.0595554,17.519118 60.0595554,16.5268985 L60.0595554,6.47359313 C60.0595554,5.48137366 60.8717754,4.6702648 61.8639948,4.6702648 C62.8562143,4.6702648 63.6673231,5.48137366 63.6673231,6.47359313 L63.6673231,16.5268985 C63.6673231,17.519118 62.8551032,18.3302269 61.8639948,18.3302269 L61.8639948,18.3302269 L61.8639948,18.3302269 Z M72.0272999,21.0524415 C71.1695245,20.5568873 70.8717476,19.4480015 71.3661906,18.589115 L76.3928434,9.88247255 C76.8872864,9.02469715 77.9961722,8.7269202 78.8561698,9.22247438 C79.7128341,9.71802856 80.0117222,10.8269144 79.5150569,11.6858009 L74.4906264,20.3913322 C73.9939611,21.252441 72.8861864,21.5491068 72.0272999,21.0524415 L72.0272999,21.0524415 L72.0272999,21.0524415 Z M79.4672793,28.493532 C79.9617223,29.3513074 81.0706081,29.6490843 81.9306057,29.1535301 L90.6372482,24.1279885 C91.4939125,23.6335455 91.7916895,22.5224374 91.2961353,21.6635509 C90.8016922,20.8046644 89.6928064,20.5079986 88.8339199,21.0035528 L80.1272774,26.0290944 C79.2683909,26.5246485 78.970614,27.6346455 79.4672793,28.493532 L79.4672793,28.493532 L79.4672793,28.493532 Z M82.1894939,38.655726 C82.1894939,37.6623954 82.9994917,36.8523976 83.9939334,36.8523976 L94.0461276,36.8523976 C95.0394582,36.8523976 95.849456,37.6623954 95.849456,38.655726 C95.849456,39.6479454 95.0383471,40.4590543 94.0461276,40.4590543 L83.9939334,40.4590543 C82.9994917,40.4590543 82.1894939,39.6479454 82.1894939,38.655726 L82.1894939,38.655726 L82.1894939,38.655726 Z M79.4672793,48.8190311 C79.9617223,47.9601446 81.0706081,47.6634787 81.9306057,48.1579218 L90.6372482,53.1845745 C91.4950236,53.6801287 91.7928006,54.7890145 91.2961353,55.647901 C90.8028033,56.5056764 89.6916953,56.8034533 88.8339199,56.3090103 L80.1272774,51.2823575 C79.2683909,50.7856923 78.970614,49.6768065 79.4672793,48.8190311 L79.4672793,48.8190311 L79.4672793,48.8190311 Z M51.7006897,21.0524415 C50.8429143,21.5468846 49.7329174,21.2502187 49.2373632,20.3913322 L44.2107105,11.6858009 C43.7162675,10.8269144 44.0107111,9.71802856 44.8718198,9.22247438 C45.7284841,8.72803131 46.8395921,9.02469715 47.3351463,9.88247255 L52.361799,18.589115 C52.8573532,19.4491126 52.5606873,20.5568873 51.7006897,21.0524415 L51.7006897,21.0524415 L51.7006897,21.0524415 Z M15.7763451,2.6891592 C12.1896884,-0.896386399 6.27637145,-0.896386399 2.68971475,2.6891592 C-0.895830845,6.27692701 -0.895830845,12.1902439 2.68971475,15.7769006 L23.1352135,36.2201772 C23.8385449,33.677962 25.074097,31.3035242 26.7818701,29.254641 L8.00081111,10.5402485 C6.31192691,8.85691984 8.8585865,6.3035936 10.5496929,7.99025558 L29.3307519,26.7057592 C29.6929731,27.0657582 30.5018597,27.8724226 30.3996378,28.4301988 C26.6074261,31.5857456 24.4396543,36.3168436 24.4396543,41.2490521 C24.4396543,45.5379291 26.0685387,49.8301394 29.3274185,53.0879081 L46.8551476,70.6156372 C50.222916,73.9845167 54.8362366,75.7311785 59.5851123,75.4811792 C56.280677,72.1778551 52.1617996,69.0723081 51.4995792,64.144544 L34.8851809,47.5301457 C33.1607412,45.8057061 32.2985214,43.5279346 32.2985214,41.2490521 C32.2985214,38.5079486 33.6640732,35.5479568 36.0196222,34.0512943 L38.3385046,36.3690656 C39.628501,37.6590621 37.6585065,39.6290566 36.3685101,38.3379491 L35.4385127,37.4079516 C34.6862925,38.5357263 34.2840714,39.8679448 34.2840714,41.247941 C34.2840714,43.0801581 34.9918472,44.827931 36.2885103,46.1257052 L36.7429535,46.5801484 C36.9473974,46.5945928 37.149619,46.6001483 37.3529518,46.6001483 C39.7229452,46.6001483 42.0929386,45.6990397 43.896267,43.8968225 C45.6984842,42.0957164 46.5995928,39.7212786 46.5995928,37.3535074 C46.5995928,34.4546265 45.408485,32.3224102 43.5307124,30.4446377 L15.7763451,2.6891592 L15.7763451,2.6891592 Z" id="Shape" sketch:type="MSShapeGroup"></path>
        </g>
    </g>
</svg>