<?xml version="1.0" encoding="UTF-8" standalone="no"?>
<svg width="100px" height="100px" viewBox="0 0 100 100" version="1.1" xmlns="http://www.w3.org/2000/svg" xmlns:xlink="http://www.w3.org/1999/xlink" xmlns:sketch="http://www.bohemiancoding.com/sketch/ns">
    <!-- Generator: Sketch 3.2.2 (9983) - http://www.bohemiancoding.com/sketch -->
    <title>arrow-right-circle</title>
    <desc>Created with Sketch.</desc>
    <defs></defs>
    <g id="Icons" stroke="none" stroke-width="1" fill="none" fill-rule="evenodd" sketch:type="MSPage">
        <g id="arrow-right-circle" sketch:type="MSArtboardGroup" fill="#000000">
            <path d="M50,0 C22.3875,0 0,22.384375 0,50 C0,77.615625 22.384375,100 50,100 C77.615625,100 100,77.615625 100,50 C100,22.384375 77.615625,0 50,0 Z M50,93.85 C25.875,93.85 6.25,74.125 6.25,50 C6.25,25.875 25.875,6.25 50,6.25 C74.125,6.25 93.75,25.875 93.75,50 C93.75,74.125 74.125,93.85 50,93.85 Z M51.990625,31.115625 C50.771875,32.334375 50.771875,34.315625 51.990625,35.534375 L63.29375,46.8375 L28.09375,46.8375 C26.365625,46.8375 24.96875,48.2375 24.96875,49.9625 C24.96875,51.6875 26.365625,53.0875 28.09375,53.0875 L63.490625,53.0875 L51.990625,64.5875 C50.771875,65.80625 50.771875,67.784375 51.990625,69.00625 C52.6,69.615625 53.4,69.921875 54.2,69.921875 C55,69.921875 55.8,69.615625 56.409375,69.00625 L74.86875,50.059375 L56.409375,31.1125 C55.1875,29.89375 53.2125,29.89375 51.9875,31.1125 L51.990625,31.115625 Z" id="Shape" sketch:type="MSShapeGroup"></path>
        </g>
    </g>
</svg>