<?xml version="1.0" encoding="UTF-8" standalone="no"?>
<svg width="100px" height="100px" viewBox="0 0 100 100" version="1.1" xmlns="http://www.w3.org/2000/svg" xmlns:xlink="http://www.w3.org/1999/xlink" xmlns:sketch="http://www.bohemiancoding.com/sketch/ns">
    <!-- Generator: Sketch 3.2.2 (9983) - http://www.bohemiancoding.com/sketch -->
    <title>arrow-left-circle</title>
    <desc>Created with Sketch.</desc>
    <defs></defs>
    <g id="Icons" stroke="none" stroke-width="1" fill="none" fill-rule="evenodd" sketch:type="MSPage">
        <g id="arrow-left-circle" sketch:type="MSArtboardGroup" fill="#000000">
            <path d="M50,0 C22.384375,0 0,22.384375 0,50 C0,77.615625 22.384375,100 50,100 C77.615625,100 100,77.615625 100,50 C100,22.384375 77.615625,0 50,0 Z M50,93.85 C25.875,93.85 6.25,74.125 6.25,50 C6.25,25.875 25.875,6.25 50,6.25 C74.125,6.25 93.75,25.875 93.75,50 C93.75,74.125 74.125,93.85 50,93.85 Z M71.90625,46.840625 L36.70625,46.840625 L48.009375,35.5375 C49.228125,34.31875 49.228125,32.3375 48.009375,31.11875 C46.790625,29.9 44.809375,29.9 43.590625,31.11875 L25.13125,50.0625 L43.590625,69.009375 C44.2,69.61875 45,69.925 45.8,69.925 C46.6,69.925 47.396875,69.61875 48.009375,69.009375 C49.228125,67.790625 49.228125,65.8125 48.009375,64.590625 L36.509375,53.090625 L71.90625,53.090625 C73.63125,53.090625 75.03125,51.690625 75.03125,49.965625 C75.03125,48.240625 73.63125,46.840625 71.90625,46.840625 L71.90625,46.840625 Z" id="Shape" sketch:type="MSShapeGroup"></path>
        </g>
    </g>
</svg>