<?xml version="1.0" encoding="UTF-8" standalone="no"?>
<svg width="100px" height="100px" viewBox="0 0 100 100" version="1.1" xmlns="http://www.w3.org/2000/svg" xmlns:xlink="http://www.w3.org/1999/xlink" xmlns:sketch="http://www.bohemiancoding.com/sketch/ns">
    <!-- Generator: Sketch 3.2.2 (9983) - http://www.bohemiancoding.com/sketch -->
    <title>arrow-right</title>
    <desc>Created with Sketch.</desc>
    <defs></defs>
    <g id="Icons" stroke="none" stroke-width="1" fill="none" fill-rule="evenodd" sketch:type="MSPage">
        <g id="arrow-right" sketch:type="MSArtboardGroup" fill="#000000">
            <path d="M54.1520541,11.8471463 C51.7096693,14.3016166 51.7096693,18.2917044 54.1520541,20.7461747 L76.8036072,43.5098139 L6.26252505,43.5098139 C2.7993487,43.5098139 0,46.3293081 0,49.8033277 C0,53.2773473 2.7993487,56.0968414 6.26252505,56.0968414 L77.1981463,56.0968414 L54.1520541,79.256972 C51.7096693,81.7114424 51.7096693,85.6952366 54.1520541,88.1560005 C55.3732465,89.3832357 56.9764529,90 58.5796593,90 C60.1828657,90 61.7860721,89.3832357 63.0072645,88.1560005 L100,49.9984266 L63.0072645,11.8408528 C60.5586172,9.38638241 56.6007014,9.38638241 54.1457916,11.8408528 L54.1520541,11.8471463 Z" id="Shape" sketch:type="MSShapeGroup"></path>
        </g>
    </g>
</svg>