<?xml version="1.0" encoding="UTF-8" standalone="no"?>
<svg width="100px" height="100px" viewBox="0 0 100 100" version="1.1" xmlns="http://www.w3.org/2000/svg" xmlns:xlink="http://www.w3.org/1999/xlink" xmlns:sketch="http://www.bohemiancoding.com/sketch/ns">
    <!-- Generator: Sketch 3.2.2 (9983) - http://www.bohemiancoding.com/sketch -->
    <title>caret-up</title>
    <desc>Created with Sketch.</desc>
    <defs></defs>
    <g id="Icons" stroke="none" stroke-width="1" fill="none" fill-rule="evenodd" sketch:type="MSPage">
        <g id="caret-up" sketch:type="MSArtboardGroup" fill="#000000">
            <path d="M78.8860122,60.5663144 L52.6364617,34.1215479 C51.8950018,33.3738493 51.0161812,33 50,33 C48.9838188,33 48.1049982,33.3738493 47.3628191,34.1215479 L21.1132686,60.5663144 C20.3710895,61.314013 20,62.1993692 20,63.2223832 C20,64.2453972 20.3710895,65.131478 21.1132686,65.8784521 C21.8561668,66.6261507 22.7349874,67 23.7504495,67 L76.2495505,67 C77.2650126,67 78.1445523,66.6261507 78.8860122,65.8784521 C79.6274721,65.131478 80,64.2453972 80,63.2223832 C80,62.1993692 79.6274721,61.314013 78.8860122,60.5663144 L78.8860122,60.5663144 Z" id="Shape" sketch:type="MSShapeGroup"></path>
        </g>
    </g>
</svg>