<?xml version="1.0" encoding="UTF-8" standalone="no"?>
<svg width="100px" height="100px" viewBox="0 0 100 100" version="1.1" xmlns="http://www.w3.org/2000/svg" xmlns:xlink="http://www.w3.org/1999/xlink" xmlns:sketch="http://www.bohemiancoding.com/sketch/ns">
    <!-- Generator: Sketch 3.2.2 (9983) - http://www.bohemiancoding.com/sketch -->
    <title>arrow-down</title>
    <desc>Created with Sketch.</desc>
    <defs></defs>
    <g id="Icons" stroke="none" stroke-width="1" fill="none" fill-rule="evenodd" sketch:type="MSPage">
        <g id="arrow-down" sketch:type="MSArtboardGroup" fill="#000000">
            <path d="M43.5035204,6.25665435 L43.5035204,76.8021544 L20.7398812,54.1491827 C18.2854108,51.706645 14.2953231,51.706645 11.8408528,54.1491827 C9.38638241,56.5917204 9.38638241,60.5561471 11.8408528,63.0049477 L49.9984266,100 L88.1560005,63.0049477 C89.3832357,61.7836788 90,60.180372 90,58.5770652 C90,56.9737584 89.3832357,55.3704516 88.1560005,54.1491827 C85.7015301,51.706645 81.7177359,51.706645 79.256972,54.1491827 L56.0968414,77.1967182 L56.0968414,6.26291727 C56.0968414,2.79952402 53.2773473,0 49.8033277,0 C46.3293081,0 43.5035204,2.79952402 43.5035204,6.26291727 L43.5035204,6.25665435 Z" id="Shape" sketch:type="MSShapeGroup"></path>
        </g>
    </g>
</svg>