<?xml version="1.0" encoding="UTF-8" standalone="no"?>
<svg width="100px" height="100px" viewBox="0 0 100 100" version="1.1" xmlns="http://www.w3.org/2000/svg" xmlns:xlink="http://www.w3.org/1999/xlink" xmlns:sketch="http://www.bohemiancoding.com/sketch/ns">
    <!-- Generator: Sketch 3.2.2 (9983) - http://www.bohemiancoding.com/sketch -->
    <title>arrow-down-circle</title>
    <desc>Created with Sketch.</desc>
    <defs></defs>
    <g id="Icons" stroke="none" stroke-width="1" fill="none" fill-rule="evenodd" sketch:type="MSPage">
        <g id="arrow-down-circle" sketch:type="MSArtboardGroup" fill="#000000">
            <path d="M0,50 C0,77.615625 22.384375,100 50,100 C77.615625,100 100,77.615625 100,50 C100,22.3875 77.615625,0 50,0 C22.384375,0 0,22.384375 0,50 Z M93.85,50 C93.85,74.125 74.128125,93.75 50,93.75 C25.871875,93.75 6.25,74.125 6.25,50 C6.25,25.875 25.875,6.25 50,6.25 C74.125,6.25 93.85,25.875 93.85,50 Z M46.840625,28.09375 L46.840625,63.29375 L35.5375,51.990625 C34.31875,50.771875 32.3375,50.771875 31.11875,51.990625 C29.9,53.209375 29.9,55.1875 31.11875,56.409375 L50.065625,74.86875 L69.0125,56.409375 C69.621875,55.8 69.928125,55 69.928125,54.2 C69.928125,53.4 69.621875,52.6 69.0125,51.990625 C67.79375,50.771875 65.815625,50.771875 64.59375,51.990625 L53.09375,63.490625 L53.09375,28.096875 C53.09375,26.36875 51.69375,24.971875 49.96875,24.971875 C48.24375,24.971875 46.840625,26.36875 46.840625,28.096875 L46.840625,28.09375 Z" id="Shape" sketch:type="MSShapeGroup"></path>
        </g>
    </g>
</svg>