<?xml version="1.0" encoding="UTF-8" standalone="no"?>
<svg width="100px" height="100px" viewBox="0 0 100 100" version="1.1" xmlns="http://www.w3.org/2000/svg" xmlns:xlink="http://www.w3.org/1999/xlink" xmlns:sketch="http://www.bohemiancoding.com/sketch/ns">
    <!-- Generator: Sketch 3.2.2 (9983) - http://www.bohemiancoding.com/sketch -->
    <title>arrow-left</title>
    <desc>Created with Sketch.</desc>
    <defs></defs>
    <g id="Icons" stroke="none" stroke-width="1" fill="none" fill-rule="evenodd" sketch:type="MSPage">
        <g id="arrow-left" sketch:type="MSArtboardGroup" fill="#000000">
            <path d="M93.7374749,43.5061563 L23.1963928,43.5061563 L45.8479459,20.7407262 C48.2903307,18.2860627 48.2903307,14.2956611 45.8479459,11.8409976 C43.4055611,9.38633413 39.4351202,9.38633413 36.9927355,11.8409976 L0,49.9952795 L36.9927355,88.1558554 C38.2139279,89.3831871 39.8171343,90 41.4203407,90 C43.0235471,90 44.620491,89.3831871 45.8479459,88.1558554 C48.2903307,85.7011919 48.2903307,81.7170843 45.8479459,79.2561268 L22.8018537,56.0941741 L93.7374749,56.0941741 C97.1943888,56.0941741 100,53.2744581 100,49.8001652 C100,46.3258723 97.1943888,43.5061563 93.7374749,43.5061563 L93.7374749,43.5061563 Z" id="Shape" sketch:type="MSShapeGroup"></path>
        </g>
    </g>
</svg>