<?xml version="1.0" encoding="UTF-8" standalone="no"?>
<svg width="100px" height="100px" viewBox="0 0 100 100" version="1.1" xmlns="http://www.w3.org/2000/svg" xmlns:xlink="http://www.w3.org/1999/xlink" xmlns:sketch="http://www.bohemiancoding.com/sketch/ns">
    <!-- Generator: Sketch 3.2.2 (9983) - http://www.bohemiancoding.com/sketch -->
    <title>arrow-up</title>
    <desc>Created with Sketch.</desc>
    <defs></defs>
    <g id="Icons" stroke="none" stroke-width="1" fill="none" fill-rule="evenodd" sketch:type="MSPage">
        <g id="arrow-up" sketch:type="MSArtboardGroup" fill="#000000">
            <path d="M56.4951075,93.7374749 L56.4951075,23.1963928 L79.258075,45.8479459 C81.7124729,48.2903307 85.6961495,48.2903307 88.1568408,45.8479459 C90.6175321,43.4055611 90.6112387,39.4351202 88.1568408,36.9927355 L50.000393,0 L11.8439451,36.9927355 C10.6167461,38.2139279 10,39.8171343 10,41.4203407 C10,43.0235471 10.6167461,44.620491 11.8439451,45.8479459 C14.298343,48.2903307 18.288313,48.2903307 20.7427109,45.8479459 L43.8958648,22.8018537 L43.8958648,93.7374749 C43.8958648,97.1943888 46.7152757,100 50.1891928,100 C53.6631099,100 56.4825208,97.1943888 56.4825208,93.7374749 L56.4951075,93.7374749 Z" id="Shape" sketch:type="MSShapeGroup"></path>
        </g>
    </g>
</svg>