<?xml version="1.0" encoding="UTF-8" standalone="no"?>
<svg width="100px" height="100px" viewBox="0 0 100 100" version="1.1" xmlns="http://www.w3.org/2000/svg" xmlns:xlink="http://www.w3.org/1999/xlink" xmlns:sketch="http://www.bohemiancoding.com/sketch/ns">
    <!-- Generator: Sketch 3.3 (11970) - http://www.bohemiancoding.com/sketch -->
    <title>bar-chart</title>
    <desc>Created with Sketch.</desc>
    <defs></defs>
    <g id="Icons" stroke="none" stroke-width="1" fill="none" fill-rule="evenodd" sketch:type="MSPage">
        <g id="bar-chart" sketch:type="MSArtboardGroup" fill="#000000">
            <path d="M26.2966452,31.246875 L4.16129032,31.246875 C2.41625806,31.246875 1,32.64375 1,34.371875 L1,96.875 C1,98.6 2.41625806,100 4.16129032,100 L26.2966452,100 C28.0448387,100 29.4579355,98.6 29.4579355,96.875 L29.4579355,34.375 C29.4579355,32.646875 28.0448387,31.25 26.2966452,31.25 L26.2966452,31.246875 Z M23.1353548,93.75 L7.32258065,93.75 L7.32258065,37.5 L23.1353548,37.5 L23.1353548,93.75 L23.1353548,93.75 Z M61.0392258,49.828125 L38.9007097,49.828125 C37.1525161,49.828125 35.7394194,51.228125 35.7394194,52.953125 L35.7394194,96.875 C35.7394194,98.6 37.1525161,100 38.9007097,100 L61.0392258,100 C62.7842581,100 64.2005161,98.6 64.2005161,96.875 L64.2005161,52.953125 C64.2005161,51.225 62.7874194,49.828125 61.0392258,49.828125 L61.0392258,49.828125 Z M57.8779355,93.75 L42.062,93.75 L42.062,56.078125 L57.8779355,56.078125 L57.8779355,93.75 L57.8779355,93.75 Z M95.8387097,0 L73.7349677,0 C71.9899355,0 70.5736774,1.4 70.5736774,3.125 L70.5736774,96.875 C70.5736774,98.6 71.9899355,100 73.7349677,100 L95.8387097,100 C97.5837419,100 99,98.6 99,96.875 L99,3.125 C99,1.4 97.5837419,0 95.8387097,0 L95.8387097,0 Z M92.6774194,93.75 L76.8962581,93.75 L76.8962581,6.25 L92.6774194,6.25 L92.6774194,93.75 L92.6774194,93.75 Z" id="Shape" sketch:type="MSShapeGroup"></path>
        </g>
    </g>
</svg>