<?xml version="1.0" encoding="UTF-8" standalone="no"?>
<svg width="100px" height="100px" viewBox="0 0 100 100" version="1.1" xmlns="http://www.w3.org/2000/svg" xmlns:xlink="http://www.w3.org/1999/xlink" xmlns:sketch="http://www.bohemiancoding.com/sketch/ns">
    <!-- Generator: Sketch 3.3 (11970) - http://www.bohemiancoding.com/sketch -->
    <title>eraser</title>
    <desc>Created with Sketch.</desc>
    <defs></defs>
    <g id="Icons" stroke="none" stroke-width="1" fill="none" fill-rule="evenodd" sketch:type="MSPage">
        <g id="eraser" sketch:type="MSArtboardGroup" fill="#000000">
            <path d="M65.4448803,5 C63.7364637,5 62.0590747,5.57295986 60.8179755,6.80892378 L2.91362331,64.426496 C0.366103983,66.9627412 0.363926616,71.1294296 2.91362331,73.6721065 L23.7346947,94.3742342 C24.1483944,94.7837209 24.7139655,94.9772088 25.2996772,94.9772088 L31.8998208,94.9772088 L43.7392535,94.9772088 L83.7483711,94.9772088 C84.6019556,95.0999125 85.4496294,94.7202 85.9165291,94.0059901 C86.3834288,93.2917802 86.3834288,92.374818 85.9165291,91.6606081 C85.4496294,90.9463982 84.6019556,90.5666857 83.7483711,90.6893894 L48.9785427,90.6893894 L69.595486,70.1882533 L97.0847437,42.853405 C99.6344404,40.3128721 99.6366177,36.1440397 97.0847437,33.6077946 L70.1398277,6.80892378 C68.8954625,5.57295986 67.1532968,5 65.4448803,5 L65.4448803,5 Z M33.6689314,40.0395236 L64.8324958,68.7813126 L42.8546982,90.6893894 L31.7637353,90.6893894 L26.1842325,90.6893894 L6.04358829,70.5902363 C5.18135098,69.7305286 5.18352835,68.3637861 6.04358829,67.5083662 L33.6689314,40.0395236 L33.6689314,40.0395236 Z" id="Shape" sketch:type="MSShapeGroup"></path>
        </g>
    </g>
</svg>