<?xml version="1.0" encoding="UTF-8" standalone="no"?>
<svg width="100px" height="100px" viewBox="0 0 100 100" version="1.1" xmlns="http://www.w3.org/2000/svg" xmlns:xlink="http://www.w3.org/1999/xlink" xmlns:sketch="http://www.bohemiancoding.com/sketch/ns">
    <!-- Generator: Sketch 3.2.2 (9983) - http://www.bohemiancoding.com/sketch -->
    <title>close-thick</title>
    <desc>Created with Sketch.</desc>
    <defs></defs>
    <g id="Icons" stroke="none" stroke-width="1" fill="none" fill-rule="evenodd" sketch:type="MSPage">
        <g id="close-thick" sketch:type="MSArtboardGroup" fill="#000000">
            <path d="M83.882467,75.7503768 L75.7453693,83.8791443 C74.2563038,85.3736186 71.8175195,85.3736186 70.3284541,83.8791443 L49.9974346,63.554295 L29.6722777,83.8732837 C28.1773498,85.3677579 25.7444279,85.3677579 24.2495,83.8615623 L16.1124022,75.7503768 C14.6291993,74.2500419 14.6291993,71.8295797 16.1124022,70.3233841 L36.4434217,50.0043955 L16.1182647,29.6854069 C14.6291993,28.185072 14.6291993,25.7470278 16.1182647,24.2642749 L24.2553624,16.1296467 C25.7502903,14.6234511 28.1890747,14.6234511 29.6781401,16.1296467 L49.9974346,36.454496 L70.3284541,16.1296467 C71.823382,14.6234511 74.2621663,14.6234511 75.7453693,16.1296467 L83.882467,24.2525536 C85.3715325,25.7470278 85.3715325,28.185072 83.8883295,29.6854069 L63.5573101,50.0043955 L83.8883295,70.3233841 C85.36567,71.8295797 85.36567,74.2500419 83.882467,75.7503768 L83.882467,75.7503768 Z" id="Shape" sketch:type="MSShapeGroup"></path>
        </g>
    </g>
</svg>