<?xml version="1.0" encoding="UTF-8" standalone="no"?>
<svg width="100px" height="100px" viewBox="0 0 100 100" version="1.1" xmlns="http://www.w3.org/2000/svg" xmlns:xlink="http://www.w3.org/1999/xlink" xmlns:sketch="http://www.bohemiancoding.com/sketch/ns">
    <!-- Generator: Sketch 3.2.2 (9983) - http://www.bohemiancoding.com/sketch -->
    <title>check-circle-alt</title>
    <desc>Created with Sketch.</desc>
    <defs></defs>
    <g id="Icons" stroke="none" stroke-width="1" fill="none" fill-rule="evenodd" sketch:type="MSPage">
        <g id="check-circle-alt" sketch:type="MSArtboardGroup" fill="#000000">
            <path d="M29.5,40.5 L22.5,47.5 L45,70 L95,20 L88,13 L45,56 L29.5,40.5 L29.5,40.5 Z M90,50 C90,72 72,90 50,90 C28,90 10,72 10,50 C10,28 28,10 50,10 C54,10 57.5,10.5 61,11.5 L69,3.5 C63,1.5 56.5,0 50,0 C22.5,0 0,22.5 0,50 C0,77.5 22.5,100 50,100 C77.5,100 100,77.5 100,50 L90,50 L90,50 Z" id="Shape" sketch:type="MSShapeGroup"></path>
        </g>
    </g>
</svg>