<?xml version="1.0" encoding="UTF-8" standalone="no"?>
<svg width="100px" height="100px" viewBox="0 0 100 100" version="1.1" xmlns="http://www.w3.org/2000/svg" xmlns:xlink="http://www.w3.org/1999/xlink" xmlns:sketch="http://www.bohemiancoding.com/sketch/ns">
    <!-- Generator: Sketch 3.2.2 (9983) - http://www.bohemiancoding.com/sketch -->
    <title>doc</title>
    <desc>Created with Sketch.</desc>
    <defs></defs>
    <g id="Icons" stroke="none" stroke-width="1" fill="none" fill-rule="evenodd" sketch:type="MSPage">
        <g id="doc" sketch:type="MSArtboardGroup" fill="#000000">
            <path d="M55.1304348,1.0030624 L21.173913,1.0030624 C17.765913,1.0030624 15,3.74391425 15,7.127871 L15,92.8751914 C15,96.2591482 17.765913,99 21.173913,99 L79.826087,99 C83.2371739,99 86,96.2591482 86,92.8751914 L86,31.6271054 L55.1304348,1 L55.1304348,1.0030624 Z M79.826087,34.1658386 L79.826087,34.6895097 L52.0434783,34.6895097 L52.0434783,7.127871 L52.5744348,7.127871 L79.826087,34.1658386 L79.826087,34.1658386 Z M21.173913,92.8751914 L21.173913,7.127871 L45.8695652,7.127871 L45.8695652,40.8143183 L79.826087,40.8143183 L79.826087,92.8751914 L21.173913,92.8751914 L21.173913,92.8751914 Z" id="Shape" sketch:type="MSShapeGroup"></path>
        </g>
    </g>
</svg>