<?xml version="1.0" encoding="UTF-8" standalone="no"?>
<svg width="100px" height="100px" viewBox="0 0 100 100" version="1.1" xmlns="http://www.w3.org/2000/svg" xmlns:xlink="http://www.w3.org/1999/xlink" xmlns:sketch="http://www.bohemiancoding.com/sketch/ns">
    <!-- Generator: Sketch 3.2.2 (9983) - http://www.bohemiancoding.com/sketch -->
    <title>close-circle-fill</title>
    <desc>Created with Sketch.</desc>
    <defs></defs>
    <g id="Icons" stroke="none" stroke-width="1" fill="none" fill-rule="evenodd" sketch:type="MSPage">
        <g id="close-circle-fill" sketch:type="MSArtboardGroup" fill="#000000">
            <path d="M50,1 C22.93975,1 1,22.9366875 1,50 C1,77.0633125 22.9366875,99 50,99 C77.0633125,99 99,77.0633125 99,50 C99,22.9366875 77.0633125,1 50,1 Z M67.3245625,32.6785 C66.1301875,31.484125 64.191625,31.484125 62.9941875,32.6785 L50.0030625,45.669625 L37.0119375,32.6785 C35.8175625,31.484125 33.8759375,31.484125 32.6785,32.6785 C31.4810625,33.872875 31.484125,35.8145 32.6785,37.008875 L45.669625,50 L32.6785,62.991125 C31.484125,64.1855 31.484125,66.127125 32.6785,67.3215 C33.872875,68.515875 35.8145,68.515875 37.0119375,67.3215 L50.0030625,54.330375 L62.9941875,67.3215 C64.1885625,68.515875 66.127125,68.515875 67.3245625,67.3215 C68.522,66.127125 68.5189375,64.1855 67.3245625,62.991125 L54.3334375,50 L67.3245625,37.008875 C68.522,35.8114375 68.522,33.872875 67.3245625,32.6785 L67.3245625,32.6785 Z" id="Shape" sketch:type="MSShapeGroup"></path>
        </g>
    </g>
</svg>