<?xml version="1.0" encoding="UTF-8" standalone="no"?>
<svg width="100px" height="100px" viewBox="0 0 100 100" version="1.1" xmlns="http://www.w3.org/2000/svg" xmlns:xlink="http://www.w3.org/1999/xlink" xmlns:sketch="http://www.bohemiancoding.com/sketch/ns">
    <!-- Generator: Sketch 3.2.2 (9983) - http://www.bohemiancoding.com/sketch -->
    <title>download</title>
    <desc>Created with Sketch.</desc>
    <defs></defs>
    <g id="Icons" stroke="none" stroke-width="1" fill="none" fill-rule="evenodd" sketch:type="MSPage">
        <g id="download" sketch:type="MSArtboardGroup" fill="#000000">
            <path d="M15,90.6848498 L15.8807373,67.3969744 L5.8807373,67.3969744 L5,90.6848498 C5,95.8081824 9.5,100 15,100 L85,100 C90.5,100 95,95.8081824 95,90.6848498 L95,67.3969744 L85,67.3969744 L85,90.6848498 L15,90.6848498 Z M46.4247657,13.93524 L46.4247657,58.3061539 L32.1767547,44.0581429 C30.6404748,42.5218631 28.1430352,42.5218631 26.6067554,44.0581429 C25.0704755,45.5944228 25.0704755,48.0879232 26.6067554,49.6281422 L50.4899985,72.8968735 L74.3732417,49.6281422 C75.1413817,48.8600023 75.5274212,47.8515724 75.5274212,46.8431426 C75.5274212,45.8347127 75.1413817,44.8262829 74.3732417,44.0581429 C72.8369618,42.5218631 70.3434614,42.5218631 68.8032424,44.0581429 L54.3070631,58.5543222 L54.3070631,13.9391791 C54.3070631,11.7608131 52.5423109,10 50.367884,10 C48.1934571,10 46.4247657,11.7608131 46.4247657,13.9391791 L46.4247657,13.93524 Z" id="Shape" sketch:type="MSShapeGroup"></path>
        </g>
    </g>
</svg>