<?xml version="1.0" encoding="UTF-8" standalone="no"?>
<svg width="100px" height="100px" viewBox="0 0 100 100" version="1.1" xmlns="http://www.w3.org/2000/svg" xmlns:xlink="http://www.w3.org/1999/xlink" xmlns:sketch="http://www.bohemiancoding.com/sketch/ns">
    <!-- Generator: Sketch 3.2.2 (9983) - http://www.bohemiancoding.com/sketch -->
    <title>docs</title>
    <desc>Created with Sketch.</desc>
    <defs></defs>
    <g id="Icons" stroke="none" stroke-width="1" fill="none" fill-rule="evenodd" sketch:type="MSPage">
        <g id="docs" sketch:type="MSArtboardGroup" fill="#000000">
            <path d="M74.5,1.0030624 L40.8125,1.0030624 C37.4315,1.0030624 34.6875,3.74391425 34.6875,7.127871 L68.375,7.127871 L68.375,31.6271054 L92.875,31.6271054 L92.875,80.6255742 L71.4375,80.6255742 L71.4375,86.7503828 L92.875,86.7503828 C96.2590625,86.7503828 99,84.009531 99,80.6255742 L99,25.5022968 L74.5,1 L74.5,1.0030624 Z M74.5,25.5022968 L74.5,9.66354176 L90.3361875,25.5022968 L74.5,25.5022968 L74.5,25.5022968 Z M7.125,13.2526796 C3.7409375,13.2526796 1,15.9965939 1,19.3774882 L1,92.8751914 C1,96.2591482 3.7409375,99 7.125,99 L59.1875,99 C62.5715625,99 65.3125,96.2591482 65.3125,92.8751914 L65.3125,37.751914 L40.8125,13.2496172 L7.125,13.2496172 L7.125,13.2526796 Z M59.1875,92.8751914 L7.125,92.8751914 L7.125,19.3774882 L34.6875,19.3774882 L34.6875,43.8767226 L59.1875,43.8767226 L59.1875,92.8751914 L59.1875,92.8751914 Z M40.8125,37.751914 L40.8125,21.913159 L56.6486875,37.751914 L40.8125,37.751914 L40.8125,37.751914 Z" id="Shape" sketch:type="MSShapeGroup"></path>
        </g>
    </g>
</svg>