<?xml version="1.0" encoding="UTF-8" standalone="no"?>
<svg width="100px" height="100px" viewBox="0 0 100 100" version="1.1" xmlns="http://www.w3.org/2000/svg" xmlns:xlink="http://www.w3.org/1999/xlink" xmlns:sketch="http://www.bohemiancoding.com/sketch/ns">
    <!-- Generator: Sketch 3.2.2 (9983) - http://www.bohemiancoding.com/sketch -->
    <title>close</title>
    <desc>Created with Sketch.</desc>
    <defs></defs>
    <g id="Icons" stroke="none" stroke-width="1" fill="none" fill-rule="evenodd" sketch:type="MSPage">
        <g id="close" sketch:type="MSArtboardGroup" fill="#000000">
            <path d="M83.2748732,16.7210221 C80.9805868,14.426326 77.2567837,14.426326 74.9566146,16.7210221 L50.0018387,41.6802555 L25.0470629,16.7210221 C22.7527766,14.426326 19.0230906,14.426326 16.7229215,16.7210221 C14.4227524,19.0157182 14.4286352,22.7460704 16.7229215,25.0407666 L41.6776973,50 L16.7229215,74.9592334 C14.4286352,77.2539296 14.4286352,80.9842818 16.7229215,83.2789779 C19.0172078,85.573674 22.7468938,85.573674 25.0470629,83.2789779 L50.0018387,58.3197445 L74.9566146,83.2789779 C77.2509009,85.573674 80.9747041,85.573674 83.2748732,83.2789779 C85.5750423,80.9842818 85.5691595,77.2539296 83.2748732,74.9592334 L58.3200973,50 L83.2748732,25.0407666 C85.5750423,22.7401866 85.5750423,19.0157182 83.2748732,16.7210221 L83.2748732,16.7210221 Z" id="Shape" sketch:type="MSShapeGroup"></path>
        </g>
    </g>
</svg>