<?xml version="1.0" encoding="UTF-8" standalone="no"?>
<svg width="100px" height="100px" viewBox="0 0 100 100" version="1.1" xmlns="http://www.w3.org/2000/svg" xmlns:xlink="http://www.w3.org/1999/xlink" xmlns:sketch="http://www.bohemiancoding.com/sketch/ns">
    <!-- Generator: Sketch 3.3 (11970) - http://www.bohemiancoding.com/sketch -->
    <title>correct</title>
    <desc>Created with Sketch.</desc>
    <defs></defs>
    <g id="Icons" stroke="none" stroke-width="1" fill="none" fill-rule="evenodd" sketch:type="MSPage">
        <g id="correct" sketch:type="MSArtboardGroup" fill="#000000">
            <path d="M93.8563022,24.6629782 L85.872013,16.6496709 C84.7766954,15.5496492 83.4450197,15 81.8798684,15 C80.3139965,15 78.9823209,15.5496492 77.8870032,16.6496709 L39.3736169,55.3623346 L22.1129961,37.9796774 C21.0169578,36.8796557 19.6860027,36.3300065 18.1208515,36.3300065 C16.5549796,36.3300065 15.2240245,36.8796557 14.1279863,37.9796774 L6.14369708,45.9929847 C5.04765883,47.0930064 4.5,48.4287987 4.5,50.0003616 C4.5,51.5712013 5.04765883,52.9077168 6.14369708,54.0070153 L27.3964625,75.3370218 L35.3814723,83.3503291 C36.47679,84.4503508 37.807745,85 39.3736169,85 C40.9387682,85 42.2697233,84.4496275 43.3657615,83.3503291 L51.3507713,75.3370218 L93.8563022,32.6770088 C94.9516199,31.5769871 95.4999993,30.2411948 95.4999993,28.6696319 C95.5007199,27.0987922 94.9516199,25.7629999 93.8563022,24.6629782 L93.8563022,24.6629782 Z" id="Shape" sketch:type="MSShapeGroup"></path>
        </g>
    </g>
</svg>