<?xml version="1.0" encoding="UTF-8" standalone="no"?>
<svg width="100px" height="100px" viewBox="0 0 100 100" version="1.1" xmlns="http://www.w3.org/2000/svg" xmlns:xlink="http://www.w3.org/1999/xlink" xmlns:sketch="http://www.bohemiancoding.com/sketch/ns">
    <!-- Generator: Sketch 3.2.2 (9983) - http://www.bohemiancoding.com/sketch -->
    <title>envelope</title>
    <desc>Created with Sketch.</desc>
    <defs></defs>
    <g id="Icons" stroke="none" stroke-width="1" fill="none" fill-rule="evenodd" sketch:type="MSPage">
        <g id="envelope" sketch:type="MSArtboardGroup" fill="#000000">
            <path d="M98.9479375,24.6477273 C99.042875,24.0804545 98.9663125,23.4954545 98.7090625,22.9606818 C97.9373125,19.69 95.4873125,18 91.34375,18 L11.71875,18 C8.074375,18 4.14825,19.2940909 2.2158125,21.8290909 C2.0504375,21.9531818 1.8911875,22.0890909 1.74725,22.2515909 C1.128625,22.9370455 0.91425,23.8234091 1.0520625,24.6565909 C1.0245,24.8959091 1,25.1352273 1,25.3863636 L1,72.6590909 C1,77.5547727 6.6441875,83 11.71875,83 L91.34375,83 C96.4183125,83 99,77.5547727 99,72.6590909 L99,25.3863636 C99,25.1263636 98.96325,24.8959091 98.9479375,24.6477273 L98.9479375,24.6477273 Z M11.71875,23.9090909 L91.34375,23.9090909 L91.386625,23.9090909 L50,55.7295455 L8.7818125,24.0390909 C9.7189375,23.8736364 10.8735,23.9090909 11.71875,23.9090909 L11.71875,23.9090909 Z M91.34375,77.0909091 L11.71875,77.0909091 C10.0313125,77.0909091 7.125,74.29 7.125,72.6590909 L7.125,30.3322727 L47.9940625,61.8779545 C48.5698125,62.3595455 49.283375,62.5988636 50,62.5988636 C50.716625,62.5988636 51.4301875,62.3595455 52.0059375,61.8779545 L92.875,30.3352273 L92.875,72.6620455 C92.875,74.2929545 93.03425,77.0938636 91.34375,77.0938636 L91.34375,77.0909091 Z" sketch:type="MSShapeGroup"></path>
        </g>
    </g>
</svg>