<?xml version="1.0" encoding="UTF-8" standalone="no"?>
<svg width="100px" height="100px" viewBox="0 0 100 100" version="1.1" xmlns="http://www.w3.org/2000/svg" xmlns:xlink="http://www.w3.org/1999/xlink" xmlns:sketch="http://www.bohemiancoding.com/sketch/ns">
    <!-- Generator: Sketch 3.2.2 (9983) - http://www.bohemiancoding.com/sketch -->
    <title>check-circle-fill</title>
    <desc>Created with Sketch.</desc>
    <defs></defs>
    <g id="Icons" stroke="none" stroke-width="1" fill="none" fill-rule="evenodd" sketch:type="MSPage">
        <g id="check-circle-fill" sketch:type="MSArtboardGroup" fill="#000000">
            <path d="M50,0 C22.3875,0 0,22.384375 0,50 C0,77.615625 22.384375,100 50,100 C77.615625,100 100,77.615625 100,50 C100,22.384375 77.615625,0 50,0 Z M69.95625,31.70625 L40.621875,61.225 L27.4125,48.015625 C26.19375,46.796875 24.2125,46.796875 22.990625,48.015625 C21.76875,49.234375 21.76875,51.2125 22.990625,52.434375 L38.459375,67.903125 C39.678125,69.121875 41.659375,69.121875 42.88125,67.903125 C43.021875,67.7625 43.14375,67.609375 43.25,67.45 L74.38125,36.125 C75.6,34.90625 75.6,32.925 74.38125,31.703125 C73.1625,30.48125 71.18125,30.484375 69.959375,31.703125 L69.95625,31.70625 Z" id="Shape" sketch:type="MSShapeGroup"></path>
        </g>
    </g>
</svg>