<?xml version="1.0" encoding="UTF-8" standalone="no"?>
<svg width="100px" height="100px" viewBox="0 0 100 100" version="1.1" xmlns="http://www.w3.org/2000/svg" xmlns:xlink="http://www.w3.org/1999/xlink" xmlns:sketch="http://www.bohemiancoding.com/sketch/ns">
    <!-- Generator: Sketch 3.2.2 (9983) - http://www.bohemiancoding.com/sketch -->
    <title>external-link</title>
    <desc>Created with Sketch.</desc>
    <defs></defs>
    <g id="Icons" stroke="none" stroke-width="1" fill="none" fill-rule="evenodd" sketch:type="MSPage">
        <g id="external-link" sketch:type="MSArtboardGroup" fill="#000000">
            <path d="M88.5123601,93.617819 L6.32231144,93.617819 L6.32231144,29.7960095 L31.769615,29.7960095 L38.164633,23.5797653 L38.0002529,23.4138286 L6.32231144,23.4138286 C2.82923437,23.4138286 0,26.2730457 0,29.7960095 L0,93.617819 C0,97.143974 2.82923437,100 6.32231144,100 L88.5123601,100 C92.0054372,100 94.8346716,97.143974 94.8346716,93.617819 L94.8346716,43.6900175 L88.5123601,49.7818092 L88.5123601,93.617819 L88.5123601,93.617819 Z M26.1048239,68.0890952 L32.4745527,68.0890952 C36.906493,42.7103527 58.8069798,23.4138286 85.2152747,23.4138286 C86.3248404,23.4138286 87.3743441,23.4234019 88.4396535,23.429784 L76.857179,35.1219395 C75.6243283,36.3664648 75.6243283,38.3896162 76.857179,39.6341415 C77.4736043,40.2595952 78.2860214,40.569131 79.0952772,40.569131 C79.9045331,40.569131 80.7106278,40.2564041 81.3270532,39.6341415 L100,20.2865599 L81.3270532,0.935787282 C80.0942024,-0.311929094 78.0931909,-0.311929094 76.857179,0.935787282 C75.6243283,2.18350366 75.6243283,4.20346393 76.857179,5.44798921 L88.3353354,17.0316476 C87.3427325,17.0316476 86.3627742,17.0252655 85.3512044,17.0252655 C55.4150597,17.0252655 30.6663716,39.158669 26.1079851,68.0859042 L26.1048239,68.0890952 Z" id="Shape" sketch:type="MSShapeGroup"></path>
        </g>
    </g>
</svg>