<?xml version="1.0" encoding="UTF-8" standalone="no"?>
<svg width="100px" height="100px" viewBox="0 0 100 100" version="1.1" xmlns="http://www.w3.org/2000/svg" xmlns:xlink="http://www.w3.org/1999/xlink" xmlns:sketch="http://www.bohemiancoding.com/sketch/ns">
    <!-- Generator: Sketch 3.2.2 (9983) - http://www.bohemiancoding.com/sketch -->
    <title>pencil</title>
    <desc>Created with Sketch.</desc>
    <defs></defs>
    <g id="Icons" stroke="none" stroke-width="1" fill="none" fill-rule="evenodd" sketch:type="MSPage">
        <g id="pencil" sketch:type="MSArtboardGroup" fill="#000000">
            <path d="M93.1914913,5.81084792 C89.8604326,2.61788846 86.190156,1 82.26623,1 C76.1358596,1 71.6618505,4.96367381 70.4394437,6.17785476 C68.71585,7.88443654 9.97308846,66.6972818 9.97308846,66.6972818 C9.5880303,67.082639 9.30993274,67.5658646 9.16629993,68.0919077 C7.84304451,72.991449 1.20537527,94.7304872 1.1381429,94.9506913 C0.795868975,96.0639453 1.10147069,97.2781263 1.9235393,98.0977749 C2.51335061,98.6849858 3.29874702,99 4.10553554,99 C4.42030531,99 4.74118711,98.9510658 5.05290086,98.8501389 C5.27599011,98.7767375 27.6979879,91.5252941 31.3896566,90.4212152 C31.8755633,90.2744125 32.3217418,90.0113909 32.6823519,89.6535593 C35.0140929,87.347533 89.8023683,33.1253316 93.4390287,29.3665699 C97.2009858,25.488531 99.0712683,21.4453391 98.9979239,17.362388 C98.9215234,13.3283713 96.9687285,9.44421559 93.1884353,5.81390631 L93.1914913,5.81084792 Z M69.4676302,15.9585869 C71.0231429,16.3347689 74.6964755,17.5703586 78.4462086,21.3566458 C82.2356698,25.182692 83.2594356,29.5561901 83.4519647,30.5532254 C71.4357052,42.5176482 43.7756941,69.9055332 32.8718249,80.6985925 C31.8663953,78.3528072 30.2375381,75.5237961 27.6185314,72.8844053 C24.4219375,69.660862 21.1672793,67.8411197 18.6613452,66.8135006 C29.4521417,56.0112661 57.6316758,27.7976157 69.4676302,15.9585869 L69.4676302,15.9585869 Z M14.5112739,71.9760634 C16.1920833,72.4225884 19.6789989,73.7193459 23.2331468,77.3037793 C25.9713382,80.0685641 27.2640335,83.1147208 27.8446767,84.9742221 C23.5968129,86.3413226 14.2942967,89.5526324 8.38701556,91.4610679 C10.1381134,85.6929439 13.096338,76.71351 14.5112739,71.9760634 L14.5112739,71.9760634 Z M89.0047478,24.9930718 C88.8794511,25.1215242 88.674698,25.3325531 88.4271606,25.5833411 C87.4614591,23.0938114 85.7684257,19.8947352 82.8315932,16.9342134 C79.8336404,13.9094654 76.7929033,12.1264239 74.3572576,11.0712792 C74.5650668,10.8663671 74.7239797,10.7042724 74.7881561,10.6431046 C75.136542,10.2975065 78.3117438,7.26052492 82.26623,7.26052492 C84.5429628,7.26052492 86.7799673,8.30037762 88.9130673,10.3494991 C91.4434495,12.7809194 92.7514248,15.1786974 92.7942091,17.4786069 C92.8369933,19.8274506 91.5595781,22.3567394 89.0047478,24.9961302 L89.0047478,24.9930718 Z" id="Shape" sketch:type="MSShapeGroup"></path>
        </g>
    </g>
</svg>