<?xml version="1.0" encoding="UTF-8" standalone="no"?>
<svg width="100px" height="100px" viewBox="0 0 100 100" version="1.1" xmlns="http://www.w3.org/2000/svg" xmlns:xlink="http://www.w3.org/1999/xlink" xmlns:sketch="http://www.bohemiancoding.com/sketch/ns">
    <!-- Generator: Sketch 3.3 (11970) - http://www.bohemiancoding.com/sketch -->
    <title>order</title>
    <desc>Created with Sketch.</desc>
    <defs></defs>
    <g id="Icons" stroke="none" stroke-width="1" fill="none" fill-rule="evenodd" sketch:type="MSPage">
        <g id="order" sketch:type="MSArtboardGroup" fill="#000000">
            <path d="M15.3846154,0 C11.1759435,0 7.69230769,3.48363581 7.69230769,7.69230769 L7.69230769,92.3076923 C7.69230769,96.5163654 11.1759435,100 15.3846154,100 L84.6153846,100 C88.8240577,100 92.3076923,96.5163654 92.3076923,92.3076923 L92.3076923,7.69230769 C92.3076923,3.48363581 88.8240577,0 84.6153846,0 L15.3846154,0 L15.3846154,0 Z M15.3846154,7.69230769 L84.6153846,7.69230769 L84.6153846,92.3076923 L15.3846154,92.3076923 L15.3846154,7.69230769 L15.3846154,7.69230769 Z M33.5336538,19.2307692 C31.4094818,19.529481 29.9296537,21.4936164 30.2283654,23.6177885 C30.5270771,25.7419605 32.4912125,27.2217886 34.6153846,26.9230769 L65.3846154,26.9230769 C66.7716766,26.9426934 68.0618514,26.2139412 68.7611066,25.0158737 C69.4603618,23.8178061 69.4603618,22.33604 68.7611066,21.1379725 C68.0618514,19.939905 66.7716766,19.2111527 65.3846154,19.2307692 L34.6153846,19.2307692 C34.4952584,19.2251327 34.3749339,19.2251327 34.2548077,19.2307692 C34.1346813,19.2251383 34.0143571,19.2251383 33.8942308,19.2307692 C33.774104,19.2251568 33.6537806,19.2251568 33.5336538,19.2307692 L33.5336538,19.2307692 Z M25.8413462,42.3076923 C23.717174,42.606404 22.237346,44.5705394 22.5360577,46.6947115 C22.8347694,48.8188837 24.7989048,50.2987117 26.9230769,50 L53.8461538,50 C55.2332151,50.0196165 56.5233899,49.2908642 57.2226451,48.0927967 C57.9219003,46.8947292 57.9219003,45.4129631 57.2226451,44.2148956 C56.5233899,43.0168281 55.2332151,42.2880758 53.8461538,42.3076923 L26.9230769,42.3076923 C26.8029507,42.3020558 26.6826262,42.3020558 26.5625,42.3076923 C26.4423736,42.3020614 26.3220494,42.3020614 26.2019231,42.3076923 C26.0817963,42.3020798 25.9614729,42.3020798 25.8413462,42.3076923 L25.8413462,42.3076923 Z M68.1490385,42.3076923 C66.77494,42.5009249 65.6083091,43.412552 65.0886042,44.6991724 C64.5688993,45.9857928 64.7750761,47.4519384 65.6294696,48.5453262 C66.4838631,49.6387141 67.8566708,50.1932326 69.2307692,50 L73.0769231,50 C74.4639843,50.0196165 75.7541591,49.2908642 76.4534143,48.0927967 C77.1526695,46.8947292 77.1526695,45.4129631 76.4534143,44.2148956 C75.7541591,43.0168281 74.4639843,42.2880758 73.0769231,42.3076923 L69.2307692,42.3076923 C69.110643,42.3020558 68.9903185,42.3020558 68.8701923,42.3076923 C68.750066,42.3020614 68.6297417,42.3020614 68.5096154,42.3076923 C68.3894886,42.3020798 68.2691652,42.3020798 68.1490385,42.3076923 L68.1490385,42.3076923 Z M25.8413462,53.8461538 C23.717174,54.1448655 22.237346,56.109001 22.5360577,58.2331731 C22.8347694,60.3573452 24.7989048,61.8371732 26.9230769,61.5384615 L53.8461538,61.5384615 C55.2332151,61.558078 56.5233899,60.8293258 57.2226451,59.6312583 C57.9219003,58.4331908 57.9219003,56.9514246 57.2226451,55.7533571 C56.5233899,54.5552896 55.2332151,53.8265373 53.8461538,53.8461538 L26.9230769,53.8461538 C26.8029507,53.8405173 26.6826262,53.8405173 26.5625,53.8461538 C26.4423736,53.8405229 26.3220494,53.8405229 26.2019231,53.8461538 C26.0817963,53.8405414 25.9614729,53.8405414 25.8413462,53.8461538 L25.8413462,53.8461538 Z M68.1490385,53.8461538 C66.77494,54.0393864 65.6083091,54.9510135 65.0886042,56.2376339 C64.5688993,57.5242544 64.7750761,58.9903999 65.6294696,60.0837878 C66.4838631,61.1771756 67.8566708,61.7316941 69.2307692,61.5384615 L73.0769231,61.5384615 C74.4639843,61.558078 75.7541591,60.8293258 76.4534143,59.6312583 C77.1526695,58.4331908 77.1526695,56.9514246 76.4534143,55.7533571 C75.7541591,54.5552896 74.4639843,53.8265373 73.0769231,53.8461538 L69.2307692,53.8461538 C69.110643,53.8405173 68.9903185,53.8405173 68.8701923,53.8461538 C68.750066,53.8405229 68.6297417,53.8405229 68.5096154,53.8461538 C68.3894886,53.8405414 68.2691652,53.8405414 68.1490385,53.8461538 L68.1490385,53.8461538 Z M25.8413462,65.3846154 C23.7171741,65.6833272 22.2373461,67.6474625 22.5360578,69.7716346 C22.8347695,71.8958067 24.7989049,73.3756347 26.9230769,73.0769231 L53.8461538,73.0769231 C55.2332151,73.0965396 56.5233899,72.3677873 57.2226451,71.1697198 C57.9219003,69.9716523 57.9219003,68.4898862 57.2226451,67.2918187 C56.5233899,66.0937511 55.2332151,65.3649989 53.8461538,65.3846154 L26.9230769,65.3846154 C26.8029507,65.3789788 26.6826262,65.3789788 26.5625,65.3846154 C26.4423736,65.3789845 26.3220494,65.3789845 26.2019231,65.3846154 C26.0817963,65.3790029 25.9614729,65.3790029 25.8413462,65.3846154 L25.8413462,65.3846154 Z M68.1490385,65.3846154 C66.0248664,65.6833272 64.5450384,67.6474625 64.8437501,69.7716346 C65.1424618,71.8958067 67.1065972,73.3756347 69.2307692,73.0769231 L73.0769231,73.0769231 C74.4639843,73.0965396 75.7541591,72.3677873 76.4534143,71.1697198 C77.1526695,69.9716523 77.1526695,68.4898862 76.4534143,67.2918187 C75.7541591,66.0937511 74.4639843,65.3649989 73.0769231,65.3846154 L69.2307692,65.3846154 C69.110643,65.3789788 68.9903185,65.3789788 68.8701923,65.3846154 C68.750066,65.3789845 68.6297417,65.3789845 68.5096154,65.3846154 C68.3894886,65.3790029 68.2691652,65.3790029 68.1490385,65.3846154 L68.1490385,65.3846154 Z" id="Shape" sketch:type="MSShapeGroup"></path>
        </g>
    </g>
</svg>