<?xml version="1.0" encoding="UTF-8" standalone="no"?>
<svg width="100px" height="100px" viewBox="0 0 100 100" version="1.1" xmlns="http://www.w3.org/2000/svg" xmlns:xlink="http://www.w3.org/1999/xlink" xmlns:sketch="http://www.bohemiancoding.com/sketch/ns">
    <!-- Generator: Sketch 3.2.2 (9983) - http://www.bohemiancoding.com/sketch -->
    <title>map-marker</title>
    <desc>Created with Sketch.</desc>
    <defs></defs>
    <g id="Icons" stroke="none" stroke-width="1" fill="none" fill-rule="evenodd" sketch:type="MSPage">
        <g id="map-marker" sketch:type="MSArtboardGroup" fill="#000000">
            <path d="M50.5004945,0 C31.9991143,0 17,14.8617 17,33.1926 C17,33.58558 17.0118687,33.98542 17.0296718,34.38918 C17.1552826,37.87602 17.8189427,41.22468 18.9474617,44.35774 C26.0944184,67.6347 50.5004945,98 50.5004945,98 C50.5004945,98 74.9036034,67.63764 82.0515493,44.36068 C83.1820463,41.22762 83.8447174,37.87602 83.9693391,34.38918 C83.9891203,33.98542 84,33.58656 84,33.1926 C84.0009891,14.8617 69.0018748,0 50.5004945,0 L50.5004945,0 Z M50.5004945,49.44982 C41.4397042,49.44982 34.092957,42.17038 34.092957,33.1926 C34.092957,24.2158 41.4397042,16.93636 50.5004945,16.93636 C59.562274,16.93636 66.9080321,24.2158 66.9080321,33.1926 C66.9080321,42.17038 59.562274,49.44982 50.5004945,49.44982 L50.5004945,49.44982 Z" id="Shape-2" sketch:type="MSShapeGroup"></path>
        </g>
    </g>
</svg>