<?xml version="1.0" encoding="UTF-8" standalone="no"?>
<svg width="100px" height="100px" viewBox="0 0 100 100" version="1.1" xmlns="http://www.w3.org/2000/svg" xmlns:xlink="http://www.w3.org/1999/xlink" xmlns:sketch="http://www.bohemiancoding.com/sketch/ns">
    <!-- Generator: Sketch 3.2.2 (9983) - http://www.bohemiancoding.com/sketch -->
    <title>home-o</title>
    <desc>Created with Sketch.</desc>
    <defs></defs>
    <g id="Icons" stroke="none" stroke-width="1" fill="none" fill-rule="evenodd" sketch:type="MSPage">
        <g id="home-o" sketch:type="MSArtboardGroup" fill="#000000">
            <path d="M98.1566784,50.1287135 L52.325575,1.94083432 C51.7485262,1.33710676 50.9547026,1 50.1242409,1 C49.2937792,1 48.4969024,1.34017137 47.9198537,1.94083432 L1.85060317,50.1287135 C0.681239858,51.348427 0.723984209,53.2883232 1.93914504,54.4620677 C3.15430586,55.6327475 5.08696115,55.5990368 6.25632445,54.3731941 L10.3597821,50.0796798 L10.3597821,95.9353931 C10.3597821,97.6270561 11.7276013,99 13.41295,99 L34.742381,99 C36.4246765,99 37.7894426,97.6362499 37.7955489,95.9445869 L37.8901971,65.3322284 L62.2208922,65.3322284 L62.2208922,95.9353931 C62.2208922,97.6270561 63.5887114,99 65.2740601,99 L86.5943315,99 C88.2796802,99 89.6474995,97.6270561 89.6474995,95.9353931 L89.6474995,50.0643567 L93.7479039,54.3762587 C94.349378,55.0014385 95.149308,55.3201576 95.949238,55.3201576 C96.7094768,55.3201576 97.4727688,55.0382138 98.0620302,54.4651323 C99.277191,53.2944524 99.3168822,51.3545563 98.1505721,50.1348427 L98.1566784,50.1287135 Z M83.5411636,44.5204828 L83.5411636,92.8677216 L68.327228,92.8677216 L68.327228,62.2645569 C68.327228,60.5728939 66.9594087,59.19995 65.2740601,59.19995 L34.8492419,59.19995 C33.1669464,59.19995 31.8021803,60.5637 31.796074,62.2553631 L31.7014258,92.8677216 L16.4691711,92.8677216 L16.4691711,44.5174182 C16.4691711,44.2661205 16.4294799,44.0209519 16.3714697,43.7849772 L50.1242409,8.48070549 L83.6541309,43.7451373 C83.5900143,43.9933704 83.5442168,44.2507974 83.5442168,44.5174182 L83.5411636,44.5204828 Z" id="Shape" sketch:type="MSShapeGroup"></path>
        </g>
    </g>
</svg>