<?xml version="1.0" encoding="UTF-8" standalone="no"?>
<svg width="100px" height="100px" viewBox="0 0 100 100" version="1.1" xmlns="http://www.w3.org/2000/svg" xmlns:xlink="http://www.w3.org/1999/xlink" xmlns:sketch="http://www.bohemiancoding.com/sketch/ns">
    <!-- Generator: Sketch 3.2.2 (9983) - http://www.bohemiancoding.com/sketch -->
    <title>logout</title>
    <desc>Created with Sketch.</desc>
    <defs></defs>
    <g id="Icons" stroke="none" stroke-width="1" fill="none" fill-rule="evenodd" sketch:type="MSPage">
        <g id="logout" sketch:type="MSArtboardGroup" fill="#000000">
            <path d="M12.1602514,53.0271867 L65.25265,53.0271867 C66.9472187,53.0271867 68.3169695,51.6552295 68.3169695,49.9647824 C68.3169695,48.2743352 66.9472187,46.9023781 65.25265,46.9023781 L12.3502392,46.9023781 L23.4338826,35.8256617 C24.6320315,34.631324 24.6320315,32.6897597 23.4338826,31.495422 C22.2357337,30.3010843 20.2960195,30.3010843 19.1009349,31.495422 L1,50.0597169 L19.1009349,68.6270742 C19.7015415,69.224243 20.482943,69.5243586 21.2674088,69.5243586 C22.0518746,69.5243586 22.833276,69.224243 23.4338826,68.6270742 C24.6320315,67.4327365 24.6320315,65.4942346 23.4338826,64.2968345 L12.1571871,53.0271867 L12.1602514,53.0271867 Z M92.8682968,1 L40.7748663,1 C37.3887933,1 34.6462274,3.74085185 34.6462274,7.1248086 L34.6462274,34.6864473 L40.8147025,34.6864473 L40.8147025,10.8609418 C40.8147025,8.81525577 42.4755636,7.15543264 44.522529,7.15543264 L89.0256402,7.15543264 C91.0756699,7.15543264 92.7334667,8.81525577 92.7334667,10.8609418 L92.831525,89.1727446 C92.831525,91.2184307 91.1737282,92.8782538 89.1236984,92.8782538 L44.5286576,92.8782538 C42.4816923,92.8782538 40.8208311,91.2184307 40.8208311,89.1727446 L40.8208311,65.2124934 L34.6523561,65.2216806 L34.6523561,92.8751914 C34.6523561,96.2591482 37.394922,99 40.780995,99 L92.8713611,99 C96.2574341,99 99,96.2591482 99,92.8751914 L99,7.127871 C99,3.74391425 96.2543698,1.0030624 92.8713611,1.0030624 L92.8682968,1 Z" id="Shape" sketch:type="MSShapeGroup"></path>
        </g>
    </g>
</svg>