<?xml version="1.0" encoding="UTF-8" standalone="no"?>
<svg width="100px" height="100px" viewBox="0 0 100 100" version="1.1" xmlns="http://www.w3.org/2000/svg" xmlns:xlink="http://www.w3.org/1999/xlink" xmlns:sketch="http://www.bohemiancoding.com/sketch/ns">
    <!-- Generator: Sketch 3.2.2 (9983) - http://www.bohemiancoding.com/sketch -->
    <title>key</title>
    <desc>Created with Sketch.</desc>
    <defs></defs>
    <g id="Icons" stroke="none" stroke-width="1" fill="none" fill-rule="evenodd" sketch:type="MSPage">
        <g id="key" sketch:type="MSArtboardGroup" fill="#000000">
            <path d="M64.9756138,1 C49.5002502,1 36.9574539,13.3550377 36.9574539,28.5937339 C36.9574539,35.4263514 39.4884277,41.6620332 43.6662466,46.4834367 C42.8070231,46.4313961 41.9322339,46.7160885 41.2753637,47.3620035 L9.9105902,78.3934746 C8.69646993,79.587346 8.69646993,81.5281522 9.9105902,82.7220235 C9.9323821,82.7465132 9.96040026,82.758758 9.98530529,82.7832477 C9.99153155,82.7924313 9.99775781,82.8016149 10.0039841,82.8077374 L25.2707681,98.1045965 C26.4848884,99.2984678 28.4554989,99.2984678 29.6727323,98.1045965 C30.8899657,96.9107252 30.8868526,94.9699189 29.6727323,93.7760476 L16.4917446,80.5699939 L24.5173909,72.6292189 L37.7232836,85.8597623 C38.9374039,87.0536336 40.9111276,87.0536336 42.1252478,85.8597623 C43.3393681,84.665891 43.3393681,82.7250847 42.1252478,81.5312134 L28.9100158,68.2884252 L45.680441,51.6936136 C46.331085,51.053821 46.6206059,50.2089275 46.5770221,49.3732175 C51.501992,53.6099302 57.92749,56.1935902 64.9818401,56.1935902 C80.4572037,56.1935902 93,43.8385525 93,28.5967951 C93,13.3550377 80.4572037,1.00306121 64.9818401,1.00306121 L64.9756138,1 Z M64.9756138,49.9793368 C52.9838414,49.9793368 43.1837117,40.3885704 43.1837117,28.550877 C43.1837117,16.7131835 52.9838414,7.12241711 64.9756138,7.12241711 C76.9673863,7.12241711 86.767516,16.7131835 86.767516,28.550877 C86.767516,40.3885704 76.9673863,49.9793368 64.9756138,49.9793368 L64.9756138,49.9793368 Z" id="Shape" sketch:type="MSShapeGroup"></path>
        </g>
    </g>
</svg>