<?xml version="1.0" encoding="UTF-8" standalone="no"?>
<svg width="100px" height="100px" viewBox="0 0 100 100" version="1.1" xmlns="http://www.w3.org/2000/svg" xmlns:xlink="http://www.w3.org/1999/xlink" xmlns:sketch="http://www.bohemiancoding.com/sketch/ns">
    <!-- Generator: Sketch 3.2.2 (9983) - http://www.bohemiancoding.com/sketch -->
    <title>lock-password</title>
    <desc>Created with Sketch.</desc>
    <defs></defs>
    <g id="Icons" stroke="none" stroke-width="1" fill="none" fill-rule="evenodd" sketch:type="MSPage">
        <g id="lock-password" sketch:type="MSArtboardGroup" fill="#000000">
            <g id="Group" sketch:type="MSLayerGroup" transform="translate(10.000000, 1.000000)">
                <path d="M68.5384615,36.75 L65.4230769,36.75 L65.4230769,25.0635 C65.4230769,11.0096875 55.08,0 40.3847308,0 C25.6302692,0 15.5769231,11.2424375 15.5769231,25.0635 L15.5769231,36.75 L12.4615385,36.75 C5.589,36.75 0,42.244125 0,49 L0,85.75 C0,92.505875 5.589,98 12.4615385,98 L68.5384615,98 C75.411,98 81,92.505875 81,85.75 L81,49 C81,42.244125 75.411,36.75 68.5384615,36.75 L68.5384615,36.75 Z M21.8076923,25.0635 C21.8076923,14.6234375 29.0665385,6.125 40.3847308,6.125 C51.5876538,6.125 59.1923077,14.44275 59.1923077,25.0635 L59.1923077,36.75 L21.8076923,36.75 L21.8076923,25.0635 L21.8076923,25.0635 Z M74.7692308,85.75 C74.7692308,89.124875 71.9716154,91.875 68.5384615,91.875 L12.4615385,91.875 C9.02526923,91.875 6.23076923,89.124875 6.23076923,85.75 L6.23076923,49 C6.23076923,45.625125 9.02526923,42.875 12.4615385,42.875 L68.5384615,42.875 C71.9716154,42.875 74.7692308,45.625125 74.7692308,49 L74.7692308,85.75 L74.7692308,85.75 Z" id="Shape" sketch:type="MSShapeGroup"></path>
                <path d="M16.2,63.8275336 C13.9632478,63.8275336 12.15,65.6264264 12.15,67.8454709 C12.15,70.0645153 13.9632478,71.8634081 16.2,71.8634081 C18.4367522,71.8634081 20.25,70.0645153 20.25,67.8454709 C20.25,65.6264264 18.4367522,63.8275336 16.2,63.8275336 L16.2,63.8275336 Z M32.4,63.8275336 C30.1632478,63.8275336 28.35,65.6264264 28.35,67.8454709 C28.35,70.0645153 30.1632478,71.8634081 32.4,71.8634081 C34.6367522,71.8634081 36.45,70.0645153 36.45,67.8454709 C36.45,65.6264264 34.6367522,63.8275336 32.4,63.8275336 L32.4,63.8275336 Z M48.6,63.8275336 C46.3632478,63.8275336 44.55,65.6264264 44.55,67.8454709 C44.55,70.0645153 46.3632478,71.8634081 48.6,71.8634081 C50.8367522,71.8634081 52.65,70.0645153 52.65,67.8454709 C52.65,65.6264264 50.8367522,63.8275336 48.6,63.8275336 L48.6,63.8275336 Z M64.8,63.8275336 C62.5632478,63.8275336 60.75,65.6264264 60.75,67.8454709 C60.75,70.0645153 62.5632478,71.8634081 64.8,71.8634081 C67.0367522,71.8634081 68.85,70.0645153 68.85,67.8454709 C68.85,65.6264264 67.0367522,63.8275336 64.8,63.8275336 L64.8,63.8275336 Z" id="Shape" sketch:type="MSShapeGroup"></path>
            </g>
        </g>
    </g>
</svg>