<?xml version="1.0" encoding="UTF-8" standalone="no"?>
<svg width="100px" height="100px" viewBox="0 0 100 100" version="1.1" xmlns="http://www.w3.org/2000/svg" xmlns:xlink="http://www.w3.org/1999/xlink" xmlns:sketch="http://www.bohemiancoding.com/sketch/ns">
    <!-- Generator: Sketch 3.2.2 (9983) - http://www.bohemiancoding.com/sketch -->
    <title>lock</title>
    <desc>Created with Sketch.</desc>
    <defs></defs>
    <g id="Icons" stroke="none" stroke-width="1" fill="none" fill-rule="evenodd" sketch:type="MSPage">
        <g id="lock" sketch:type="MSArtboardGroup" fill="#000000">
            <path d="M78.5384615,37.75 L75.4230769,37.75 L75.4230769,26.0635 C75.4230769,12.0096875 65.08,1 50.3847308,1 C35.6302692,1 25.5769231,12.2424375 25.5769231,26.0635 L25.5769231,37.75 L22.4615385,37.75 C15.589,37.75 10,43.244125 10,50 L10,86.75 C10,93.505875 15.589,99 22.4615385,99 L78.5384615,99 C85.411,99 91,93.505875 91,86.75 L91,50 C91,43.244125 85.411,37.75 78.5384615,37.75 L78.5384615,37.75 Z M31.8076923,26.0635 C31.8076923,15.6234375 39.0665385,7.125 50.3847308,7.125 C61.5876538,7.125 69.1923077,15.44275 69.1923077,26.0635 L69.1923077,37.75 L31.8076923,37.75 L31.8076923,26.0635 L31.8076923,26.0635 Z M84.7692308,86.75 C84.7692308,90.124875 81.9716154,92.875 78.5384615,92.875 L22.4615385,92.875 C19.0252692,92.875 16.2307692,90.124875 16.2307692,86.75 L16.2307692,50 C16.2307692,46.625125 19.0252692,43.875 22.4615385,43.875 L78.5384615,43.875 C81.9716154,43.875 84.7692308,46.625125 84.7692308,50 L84.7692308,86.75 L84.7692308,86.75 Z M50.5,56.125 C47.0606154,56.125 44.2692308,58.8659375 44.2692308,62.25 C44.2692308,64.510125 45.5309615,66.464 47.3846154,67.5266875 L47.3846154,77.5625 C47.3846154,79.253 48.7803077,80.625 50.5,80.625 C52.2196923,80.625 53.6153846,79.253 53.6153846,77.5625 L53.6153846,67.5266875 C55.4690385,66.4670625 56.7307692,64.510125 56.7307692,62.25 C56.7307692,58.8659375 53.9425,56.125 50.5,56.125 L50.5,56.125 Z" id="Shape" sketch:type="MSShapeGroup"></path>
        </g>
    </g>
</svg>