<?xml version="1.0" encoding="UTF-8" standalone="no"?>
<svg width="100px" height="100px" viewBox="0 0 100 100" version="1.1" xmlns="http://www.w3.org/2000/svg" xmlns:xlink="http://www.w3.org/1999/xlink" xmlns:sketch="http://www.bohemiancoding.com/sketch/ns">
    <!-- Generator: Sketch 3.2.2 (9983) - http://www.bohemiancoding.com/sketch -->
    <title>phone</title>
    <desc>Created with Sketch.</desc>
    <defs></defs>
    <g id="Icons" stroke="none" stroke-width="1" fill="none" fill-rule="evenodd" sketch:type="MSPage">
        <g id="phone" sketch:type="MSArtboardGroup" fill="#000000">
            <path d="M97.9946211,83.349829 C92.4434751,96.661634 79.4280086,98.9946308 75.174816,98.9946308 C73.9258626,98.9946308 54.4750738,100.026072 26.5146331,73.49722 C4.01278293,52.1473589 1.26334322,29.1887975 1.02378807,24.8266818 C0.790766252,20.5778394 2.00705305,9.9192464 16.66565,1.99990962 C18.4819136,1.01856972 22.0828629,0.583991892 23.0127724,1.51414092 C23.4254606,1.9269354 35.728795,22.1778264 36.0521944,22.8487536 C36.3755939,23.5185916 36.537838,24.1786271 36.537838,24.8255926 C36.537838,25.7502958 35.8790614,26.9069916 34.5604192,28.294591 C33.2428659,29.6821904 31.8098906,30.954338 30.2604044,32.1099447 C28.7109182,33.2666406 27.2779429,34.491954 25.9593007,35.7869741 C24.6417474,37.0809051 23.9829708,38.1461109 23.9829708,38.9782349 C24.0722595,41.138054 25.8417009,48.8744106 39.3210332,60.7212854 C52.8025434,72.5714276 59.2966655,75.9097259 59.9205978,76.1406294 C60.5456189,76.3715329 61.065018,76.4858955 61.4809729,76.4858955 C62.3139714,76.4858955 63.377814,75.8280384 64.6725007,74.5101457 C65.9660985,73.1911639 70.3183799,67.2247044 71.7056219,65.9057226 C73.092864,64.5889191 74.249262,63.9299728 75.174816,63.9299728 C75.8216148,63.9299728 76.4803915,64.0911696 77.150057,64.4146523 C77.8208114,64.738135 98.0926209,76.6035256 98.4802647,76.9999826 C99.5321296,78.0782584 98.7895086,81.4437859 97.9946211,83.349829" id="Shape-4" sketch:type="MSShapeGroup"></path>
        </g>
    </g>
</svg>