<?xml version="1.0" encoding="UTF-8" standalone="no"?>
<svg width="100px" height="100px" viewBox="0 0 100 100" version="1.1" xmlns="http://www.w3.org/2000/svg" xmlns:xlink="http://www.w3.org/1999/xlink" xmlns:sketch="http://www.bohemiancoding.com/sketch/ns">
    <!-- Generator: Sketch 3.2.2 (9983) - http://www.bohemiancoding.com/sketch -->
    <title>login</title>
    <desc>Created with Sketch.</desc>
    <defs></defs>
    <g id="Icons" stroke="none" stroke-width="1" fill="none" fill-rule="evenodd" sketch:type="MSPage">
        <g id="login" sketch:type="MSArtboardGroup" fill="#000000">
            <path d="M51.9639187,64.2968345 C50.7668926,65.4911722 50.7668926,67.4296741 51.9639187,68.6270742 C52.5609009,69.224243 53.3446315,69.5243586 54.1283621,69.5243586 C54.9120927,69.5243586 55.6958233,69.224243 56.2928056,68.6270742 L74.3767767,50.0597169 L56.2928056,31.4923596 C55.098841,30.2980219 53.1609447,30.2980219 51.9639187,31.4923596 C50.7668926,32.6866973 50.7668926,34.6282616 51.9639187,35.8225993 L63.0371747,46.8993156 L4.06144763,46.8993156 C2.37152854,46.8993156 1,48.2712728 1,49.9617199 C1,51.6521671 2.37152854,53.0241242 4.06144763,53.0241242 L63.2269845,53.0241242 L51.9608572,64.2937721 L51.9639187,64.2968345 Z M92.8740433,1 L37.767986,1 C34.3850864,1 31.6420293,3.74085185 31.6420293,7.1248086 L31.6420293,34.6864473 L37.8077848,34.6864473 L37.8077848,10.8609418 C37.8077848,8.81525577 39.4670894,7.15543264 41.5121365,7.15543264 L89.0319265,7.15543264 C91.080035,7.15543264 92.7362782,8.81525577 92.7362782,10.8609418 L92.8342445,89.1727446 C92.8342445,91.2184307 91.1780013,92.8782538 89.1298928,92.8782538 L41.5151979,92.8782538 C39.4701509,92.8782538 37.8108463,91.2184307 37.8108463,89.1727446 L37.8108463,65.2124934 L31.6450908,65.2216806 L31.6450908,92.8751914 C31.6450908,96.2591482 34.3881478,99 37.7710475,99 L92.8771047,99 C96.2600044,99 99,96.2591482 99,92.8751914 L99,7.127871 C98.9969386,3.74391425 96.2569429,1.0030624 92.8771047,1.0030624 L92.8740433,1 Z" id="Shape" sketch:type="MSShapeGroup"></path>
        </g>
    </g>
</svg>