<?xml version="1.0" encoding="UTF-8" standalone="no"?>
<svg width="100px" height="100px" viewBox="0 0 100 100" version="1.1" xmlns="http://www.w3.org/2000/svg" xmlns:xlink="http://www.w3.org/1999/xlink" xmlns:sketch="http://www.bohemiancoding.com/sketch/ns">
    <!-- Generator: Sketch 3.2.2 (9983) - http://www.bohemiancoding.com/sketch -->
    <title>info-circle</title>
    <desc>Created with Sketch.</desc>
    <defs></defs>
    <g id="Icons" stroke="none" stroke-width="1" fill="none" fill-rule="evenodd" sketch:type="MSPage">
        <g id="info-circle" sketch:type="MSArtboardGroup" fill="#000000">
            <path d="M56.125,71.4375 L53.0625,71.4375 L53.0625,44.064875 C53.0625,44.0311875 53.0533125,44.0005625 53.0533125,43.9699375 C53.0533125,43.9393125 53.0625,43.905625 53.0625,43.875 C53.0625,42.1845 51.6905,40.8125 50,40.8125 L43.875,40.8125 C42.1845,40.8125 40.8125,42.1845 40.8125,43.875 C40.8125,45.5655 42.1845,46.9375 43.875,46.9375 L46.9375,46.9375 L46.9375,71.4375 L43.875,71.4375 C42.1845,71.4375 40.8125,72.8095 40.8125,74.5 C40.8125,76.1905 42.1845,77.5625 43.875,77.5625 L56.125,77.5625 C57.8155,77.5625 59.1875,76.1905 59.1875,74.5 C59.1875,72.8095 57.8155,71.4375 56.125,71.4375 L56.125,71.4375 Z M50,34.6875 C53.3840625,34.6875 56.125,31.9435 56.125,28.5625 C56.125,25.1815 53.3840625,22.4375 50,22.4375 C46.6159375,22.4375 43.875,25.1815 43.875,28.5625 C43.875,31.9435 46.619,34.6875 50,34.6875 L50,34.6875 Z M50,1 C22.93975,1 1,22.9366875 1,50 C1,77.0633125 22.9366875,99 50,99 C77.0633125,99 99,77.0633125 99,50 C99,22.9366875 77.0633125,1 50,1 L50,1 Z M50,92.973 C26.3575,92.973 7.125,73.6425 7.125,50 C7.125,26.3575 26.3575,7.125 50,7.125 C73.6425,7.125 92.875,26.3575 92.875,50 C92.875,73.6425 73.6425,92.973 50,92.973 L50,92.973 Z" id="info" sketch:type="MSShapeGroup"></path>
        </g>
    </g>
</svg>