<?xml version="1.0" encoding="UTF-8" standalone="no"?>
<svg width="100px" height="100px" viewBox="0 0 100 100" version="1.1" xmlns="http://www.w3.org/2000/svg" xmlns:xlink="http://www.w3.org/1999/xlink" xmlns:sketch="http://www.bohemiancoding.com/sketch/ns">
    <!-- Generator: Sketch 3.3 (11970) - http://www.bohemiancoding.com/sketch -->
    <title>list</title>
    <desc>Created with Sketch.</desc>
    <defs></defs>
    <g id="Icons" stroke="none" stroke-width="1" fill="none" fill-rule="evenodd" sketch:type="MSPage">
        <g id="list" sketch:type="MSArtboardGroup" fill="#000000">
            <path d="M3.99766917,6.02500153 C1.79492152,6.02500153 -5.79678483e-05,7.81998101 -5.79678483e-05,10.0227287 L-5.79678483e-05,18.0181829 C-5.79678483e-05,20.2209306 1.79492152,22.0159101 3.99766917,22.0159101 L11.9931234,22.0159101 C14.1958711,22.0159101 15.9908506,20.2209306 15.9908506,18.0181829 L15.9908506,10.0227287 C15.9908506,7.81998101 14.1958711,6.02500153 11.9931234,6.02500153 L3.99766917,6.02500153 L3.99766917,6.02500153 Z M26.8596712,10.0227287 C24.6517875,10.3332124 23.1136409,12.3747525 23.4241245,14.5826362 C23.7346082,16.7905199 25.7761483,18.3286665 27.984032,18.0181829 L95.9453932,18.0181829 C97.3871172,18.0385725 98.7281366,17.2811008 99.4549488,16.0358186 C100.181761,14.7905364 100.181761,13.2503752 99.4549488,12.005093 C98.7281366,10.7598108 97.3871172,10.0023391 95.9453932,10.0227287 L27.984032,10.0227287 C27.8591717,10.01687 27.7341053,10.01687 27.6092451,10.0227287 C27.4843846,10.0168758 27.3593186,10.0168758 27.2344581,10.0227287 C27.1095973,10.016895 26.9845321,10.016895 26.8596712,10.0227287 L26.8596712,10.0227287 Z M3.99766917,30.0113643 C1.79492152,30.0113643 -5.79678483e-05,31.8063438 -5.79678483e-05,34.0090915 L-5.79678483e-05,42.0045457 C-5.79678483e-05,44.2072934 1.79492152,46.0022729 3.99766917,46.0022729 L11.9931234,46.0022729 C14.1958711,46.0022729 15.9908506,44.2072934 15.9908506,42.0045457 L15.9908506,34.0090915 C15.9908506,31.8063438 14.1958711,30.0113643 11.9931234,30.0113643 L3.99766917,30.0113643 L3.99766917,30.0113643 Z M26.8596712,34.0090915 C24.6517876,34.3195752 23.113641,36.3611153 23.4241246,38.568999 C23.7346082,40.7768826 25.7761483,42.3150293 27.984032,42.0045457 L95.9453932,42.0045457 C97.3871172,42.0249353 98.7281366,41.2674636 99.4549488,40.0221814 C100.181761,38.7768992 100.181761,37.236738 99.4549488,35.9914558 C98.7281366,34.7461736 97.3871172,33.9887019 95.9453932,34.0090915 L27.984032,34.0090915 C27.8591717,34.0032328 27.7341053,34.0032328 27.6092451,34.0090915 C27.4843846,34.0032386 27.3593186,34.0032386 27.2344581,34.0090915 C27.1095973,34.0032578 26.9845321,34.0032578 26.8596712,34.0090915 L26.8596712,34.0090915 Z M3.99766917,53.9977271 C1.79492152,53.9977271 -5.79678483e-05,55.7927066 -5.79678483e-05,57.9954543 L-5.79678483e-05,65.9909085 C-5.79678483e-05,68.1936562 1.79492152,69.9886357 3.99766917,69.9886357 L11.9931234,69.9886357 C14.1958711,69.9886357 15.9908506,68.1936562 15.9908506,65.9909085 L15.9908506,57.9954543 C15.9908506,55.7927066 14.1958711,53.9977271 11.9931234,53.9977271 L3.99766917,53.9977271 L3.99766917,53.9977271 Z M26.8596712,57.9954543 C24.6517876,58.305938 23.113641,60.3474781 23.4241246,62.5553618 C23.7346082,64.7632454 25.7761483,66.3013921 27.984032,65.9909085 L95.9453932,65.9909085 C97.3871172,66.0112981 98.7281366,65.2538264 99.4549488,64.0085442 C100.181761,62.763262 100.181761,61.2231008 99.4549488,59.9778186 C98.7281366,58.7325364 97.3871172,57.9750647 95.9453932,57.9954543 L27.984032,57.9954543 C27.8591717,57.9895956 27.7341053,57.9895956 27.6092451,57.9954543 C27.4843846,57.9896014 27.3593186,57.9896014 27.2344581,57.9954543 C27.1095973,57.9896206 26.9845321,57.9896206 26.8596712,57.9954543 L26.8596712,57.9954543 Z M3.99766917,77.9840899 C1.79492152,77.9840899 -5.79678483e-05,79.7790694 -5.79678483e-05,81.9818171 L-5.79678483e-05,89.9772713 C-5.79678483e-05,92.180019 1.79492152,93.9749985 3.99766917,93.9749985 L11.9931234,93.9749985 C14.1958711,93.9749985 15.9908506,92.180019 15.9908506,89.9772713 L15.9908506,81.9818171 C15.9908506,79.7790694 14.1958711,77.9840899 11.9931234,77.9840899 L3.99766917,77.9840899 L3.99766917,77.9840899 Z M26.8596712,81.9818171 C24.6517876,82.2923008 23.113641,84.3338409 23.4241246,86.5417246 C23.7346082,88.7496082 25.7761483,90.2877549 27.984032,89.9772713 L95.9453932,89.9772713 C97.3871172,89.9976609 98.7281366,89.2401892 99.4549488,87.994907 C100.181761,86.7496248 100.181761,85.2094636 99.4549488,83.9641814 C98.7281366,82.7188992 97.3871172,81.9614275 95.9453932,81.9818171 L27.984032,81.9818171 C27.8591717,81.9759584 27.7341053,81.9759584 27.6092451,81.9818171 C27.4843846,81.9759642 27.3593186,81.9759642 27.2344581,81.9818171 C27.1095973,81.9759834 26.9845321,81.9759834 26.8596712,81.9818171 L26.8596712,81.9818171 Z" id="Shape" sketch:type="MSShapeGroup"></path>
        </g>
    </g>
</svg>