<?xml version="1.0" encoding="UTF-8" standalone="no"?>
<svg width="100px" height="100px" viewBox="0 0 100 100" version="1.1" xmlns="http://www.w3.org/2000/svg" xmlns:xlink="http://www.w3.org/1999/xlink" xmlns:sketch="http://www.bohemiancoding.com/sketch/ns">
    <!-- Generator: Sketch 3.2.2 (9983) - http://www.bohemiancoding.com/sketch -->
    <title>user</title>
    <desc>Created with Sketch.</desc>
    <defs></defs>
    <g id="Icons" stroke="none" stroke-width="1" fill="none" fill-rule="evenodd" sketch:type="MSPage">
        <g id="user" sketch:type="MSArtboardGroup" fill="#000000">
            <path d="M50.2102804,1 C39.3823871,1.19788091 32.4687868,5.54300448 29.4953271,12.2883346 C26.6634985,18.7123742 27.2977898,26.8306959 29.3504673,35.2245048 C28.2442158,36.5067929 27.3714806,38.2346276 27.6845794,40.8327219 C28.0272621,43.660278 28.8123838,45.6728676 29.9299065,47.0880411 C30.5436926,47.8653089 31.3544324,47.9371493 32.1028037,48.3103448 C32.5136401,50.7165956 33.189002,53.1307266 34.203271,55.1408657 C34.7862449,56.296239 35.4395626,57.3673705 36.0864486,58.2325752 C36.3728724,58.6156642 36.7968944,58.8446405 37.1004673,59.1672781 C37.1157645,62.0055743 37.1296479,64.3697594 36.8831776,67.3639032 C36.129538,69.1673931 34.3737861,70.6251591 31.5233645,72.0374175 C28.581417,73.4950224 24.7468247,74.8436428 20.8761682,76.4952311 C17.0055117,78.1468194 13.0171738,80.1604719 9.86682243,83.325752 C6.71647101,86.4910321 4.49148663,90.8306096 4.14485981,96.5553925 L4,99 L6.46261682,99 L94.5373832,99 L97,99 L96.8551402,96.5553925 C96.5092775,90.832747 94.2713835,86.4916809 91.1331776,83.325752 C87.9949717,80.1598231 84.0522932,78.1471392 80.1962617,76.4952311 C76.3402302,74.843323 72.5522504,73.494606 69.6214953,72.0374175 C66.8096366,70.6393459 65.0296061,69.2181604 64.2616822,67.4358034 C64.0076491,64.4029209 64.0286341,62.0311869 64.0443925,59.1672781 C64.3457519,58.8417622 64.7771653,58.6170976 65.0584112,58.2325752 C65.6936064,57.364131 66.3029772,56.2958295 66.8691589,55.1408657 C67.8567667,53.1262239 68.568281,50.7099508 68.9696262,48.3103448 C69.6983243,47.9370159 70.4713241,47.8460052 71.0700935,47.0880411 C72.1881725,45.672695 72.9739686,43.6607497 73.3154206,40.8327219 C73.6209311,38.3153146 72.7749104,36.654079 71.7219626,35.3683052 C72.8535866,31.7197751 74.2990442,25.8198824 73.8224299,19.7659574 C73.5622918,16.4617086 72.7063743,13.1620368 70.7079439,10.4189288 C68.8766795,7.90527827 65.9077046,6.06788184 62.161215,5.31401321 C59.7283071,2.18048565 55.3403041,1 50.2827103,1 L50.2102804,1 L50.2102804,1 Z M50.2827103,5.60161409 C50.3118908,5.60161409 50.3260987,5.60150917 50.3551402,5.60161409 C55.0216426,5.618479 58.0414042,6.97736164 58.9018692,8.47762289 L59.4813084,9.41232575 L60.567757,9.55612619 C63.7916458,10.0008616 65.6383743,11.2904023 66.9415888,13.079237 C68.2448033,14.8680717 68.969596,17.3650676 69.1869159,20.1254585 C69.6215579,25.6462381 68.0222198,32.0707172 67.0140187,35.0807043 L66.4345794,36.8782098 L68.0280374,37.8129127 C67.9280957,37.7527006 68.9118236,38.4184207 68.6799065,40.3294204 C68.4071529,42.588477 67.8654537,43.756247 67.4485981,44.2839325 C67.0317426,44.811618 66.8144459,44.7857937 66.796729,44.787234 L64.8411215,44.9310345 L64.6238318,46.8004402 C64.4089989,48.791317 63.6027231,51.2213581 62.6682243,53.1276596 C62.2009761,54.0808103 61.7171628,54.9191577 61.2920561,55.5003668 C60.8669493,56.081576 60.4180369,56.4069699 60.6401869,56.2912693 L59.4088785,56.9383712 L59.4088785,58.3044754 C59.4088785,61.6352502 59.27424,64.3693959 59.6261682,68.2267058 L59.6261682,68.5143067 L59.771028,68.8019076 C61.0941984,72.3330436 64.1552323,74.5341382 67.521028,76.2076302 C70.8868238,77.8811222 74.7560595,79.1106022 78.385514,80.6654439 C82.0149685,82.2202856 85.3424401,84.0805778 87.8014019,86.5612619 C89.756022,88.5331479 90.9867788,91.1392536 91.6401869,94.3983859 L9.35981308,94.3983859 C10.0151885,91.1407169 11.2354978,88.5336633 13.1985981,86.5612619 C15.6682285,84.079929 19.0422453,82.2206054 22.6869159,80.6654439 C26.3315865,79.1102824 30.1745643,77.8807035 33.5514019,76.2076302 C36.9282394,74.534557 40.049382,72.3364626 41.3738318,68.8019076 L41.4462617,68.5143067 L41.5186916,68.2267058 C41.8705387,64.3703346 41.7359813,61.6362902 41.7359813,58.3044754 L41.7359813,56.9383712 L40.5046729,56.2912693 C40.7160987,56.4010868 40.2176187,56.085186 39.7803738,55.5003668 C39.343129,54.9155592 38.8126523,54.0806884 38.3317757,53.1276596 C37.3700247,51.221602 36.5879139,48.7705661 36.3761682,46.8004402 L36.1588785,44.9310345 L34.203271,44.787234 C34.1856561,44.7858029 33.9682342,44.8117837 33.5514019,44.2839325 C33.1345695,43.7560744 32.5939341,42.5889487 32.3200935,40.3294204 C32.0897409,38.4179536 33.0719205,37.7525142 32.9719626,37.8129127 L34.4929907,36.8782098 L34.0584112,35.2245048 C31.8763473,26.888177 31.4988055,19.3070086 33.7686916,14.1577403 C36.0321969,9.02295028 40.6450455,5.79563355 50.2827103,5.60161409 L50.2827103,5.60161409 Z" id="Shape" sketch:type="MSShapeGroup"></path>
        </g>
    </g>
</svg>