<?xml version="1.0" encoding="UTF-8" standalone="no"?>
<svg width="100px" height="100px" viewBox="0 0 100 100" version="1.1" xmlns="http://www.w3.org/2000/svg" xmlns:xlink="http://www.w3.org/1999/xlink" xmlns:sketch="http://www.bohemiancoding.com/sketch/ns">
    <!-- Generator: Sketch 3.3 (11970) - http://www.bohemiancoding.com/sketch -->
    <title>signoff</title>
    <desc>Created with Sketch.</desc>
    <defs></defs>
    <g id="Icons" stroke="none" stroke-width="1" fill="none" fill-rule="evenodd" sketch:type="MSPage">
        <g id="signoff" sketch:type="MSArtboardGroup" fill="#000000">
            <path d="M74.2618744,57.4234061 C73.0714356,57.4234061 72.0008331,57.9383649 71.2580469,58.7592993 L63.750954,67.5225982 C63.006187,68.387529 61.9078537,68.9314855 60.6847324,68.9314855 C58.4425083,68.9314855 56.6202061,67.0926326 56.6202061,64.8288137 L54.9108074,20.5613551 C54.9108074,18.2905368 53.0865244,16.4476842 50.8363773,16.4476842 C48.7248836,16.4476842 46.9857735,18.0685545 46.7807645,20.1473882 L44.4187042,52.1348292 L26.5334021,60.1231901 C23.6672376,61.3820894 21.6666667,64.262859 21.6666667,67.6165907 C21.6666667,67.987561 21.6904358,68.3535317 21.7369838,68.7135029 L24.9388876,92.9325654 C25.4687418,96.9242461 28.8538663,100 32.9510751,100 L52.6051989,100 C55.6743916,100 58.3454509,98.2711383 59.7151488,95.7273418 L77.7955561,63.5719142 C78.1372378,62.9709623 78.3333333,62.2730182 78.3333333,61.5320774 C78.3313526,59.262259 76.5110311,57.4234061 74.2618744,57.4234061 Z M67.3044433,26.7388609 C70.1191647,26.7388609 72.4009473,24.4351025 72.4009473,21.5932725 C72.4009473,18.7514426 70.1191647,16.4476842 67.3044433,16.4476842 C64.4897219,16.4476842 62.2079394,18.7514426 62.2079394,21.5932725 C62.2079394,24.4351025 64.4897219,26.7388609 67.3044433,26.7388609 Z M34.7288102,26.7388609 C37.5424845,26.7388609 39.822343,24.4350452 39.822343,21.5922726 C39.822343,18.7514999 37.5424845,16.4486841 34.7288102,16.4486841 C31.910184,16.4486841 29.626364,18.7505 29.626364,21.5922726 C29.626364,24.4350452 31.910184,26.7388609 34.7288102,26.7388609 Z M34.7288102,10.2931765 C37.5424845,10.2931765 39.822343,7.98736101 39.822343,5.14658827 C39.822343,2.30081593 37.5424845,0 34.7288102,0 C31.910184,0 29.626364,2.30181585 29.626364,5.14658827 C29.626364,7.98736101 31.910184,10.2931765 34.7288102,10.2931765 Z M51.0156364,10.2931765 C53.8312914,10.2931765 56.1111499,7.98736101 56.1111499,5.14658827 C56.1111499,2.30081593 53.8312914,0 51.0156364,0 C48.2019621,0 45.918142,2.30181585 45.918142,5.14658827 C45.918142,7.98736101 48.2019621,10.2931765 51.0156364,10.2931765 Z M67.3044433,10.2931765 C70.1210887,10.2931765 72.402928,7.98736101 72.402928,5.14658827 C72.402928,2.30081593 70.1200983,0 67.3044433,0 C64.4907691,0 62.2079394,2.30181585 62.2079394,5.14658827 C62.206949,7.98736101 64.4907691,10.2931765 67.3044433,10.2931765 Z M34.7288102,43.1865451 C37.5424845,43.1865451 39.822343,40.8817295 39.822343,38.0409567 C39.822343,35.1951844 37.5424845,32.8943685 34.7288102,32.8943685 C31.910184,32.8943685 29.626364,35.1961843 29.626364,38.0409567 C29.626364,40.8817295 31.910184,43.1865451 34.7288102,43.1865451 Z M67.3044433,43.1865451 C70.1210887,43.1865451 72.402928,40.8817295 72.402928,38.0409567 C72.402928,35.1951844 70.1200983,32.8943685 67.3044433,32.8943685 C64.4907691,32.8943685 62.2079394,35.1961843 62.2079394,38.0409567 C62.206949,40.8817295 64.4907691,43.1865451 67.3044433,43.1865451 Z" id="Shape-Copy" sketch:type="MSShapeGroup"></path>
        </g>
    </g>
</svg>