<?xml version="1.0" encoding="UTF-8" standalone="no"?>
<svg width="100px" height="100px" viewBox="0 0 100 100" version="1.1" xmlns="http://www.w3.org/2000/svg" xmlns:xlink="http://www.w3.org/1999/xlink" xmlns:sketch="http://www.bohemiancoding.com/sketch/ns">
    <!-- Generator: Sketch 3.2.2 (9983) - http://www.bohemiancoding.com/sketch -->
    <title>view-grid</title>
    <desc>Created with Sketch.</desc>
    <defs></defs>
    <g id="Icons" stroke="none" stroke-width="1" fill="none" fill-rule="evenodd" sketch:type="MSPage">
        <g id="view-grid" sketch:type="MSArtboardGroup" fill="#000000">
            <g id="Group" sketch:type="MSLayerGroup" transform="translate(5.000000, 5.000000)">
                <path d="M0,34.9946779 C0,37.759041 2.23628439,40 5.00532213,40 L34.9946779,40 C37.759041,40 40,37.7637156 40,34.9946779 L40,5.00532213 C40,2.24095905 37.7637156,0 34.9946779,0 L5.00532213,0 C2.24095905,0 0,2.23628439 0,5.00532213 L0,34.9946779 Z" id="Square-1" sketch:type="MSShapeGroup"></path>
                <path d="M48,36.9963439 C48,39.7597868 50.2432539,42 53.0036561,42 L84.9963439,42 C87.7597868,42 90,39.7567461 90,36.9963439 L90,5.00365614 C90,2.24021316 87.7567461,0 84.9963439,0 L53.0036561,0 C50.2402132,0 48,2.24325385 48,5.00365614 L48,36.9963439 Z" id="Square-3" sketch:type="MSShapeGroup"></path>
                <path d="M48,84.9963439 C48,87.7597868 50.2432539,90 53.0036561,90 L84.9963439,90 C87.7597868,90 90,87.7567461 90,84.9963439 L90,53.0036561 C90,50.2402132 87.7567461,48 84.9963439,48 L53.0036561,48 C50.2402132,48 48,50.2432539 48,53.0036561 L48,84.9963439 Z" id="Square-4" sketch:type="MSShapeGroup"></path>
                <path d="M0,84.9963439 C0,87.7597868 2.24325385,90 5.00365614,90 L36.9963439,90 C39.7597868,90 42,87.7567461 42,84.9963439 L42,53.0036561 C42,50.2402132 39.7567461,48 36.9963439,48 L5.00365614,48 C2.24021316,48 0,50.2432539 0,53.0036561 L0,84.9963439 Z" id="Square-5" sketch:type="MSShapeGroup"></path>
            </g>
        </g>
    </g>
</svg>