<?xml version="1.0" encoding="UTF-8" standalone="no"?>
<svg width="100px" height="100px" viewBox="0 0 100 100" version="1.1" xmlns="http://www.w3.org/2000/svg" xmlns:xlink="http://www.w3.org/1999/xlink" xmlns:sketch="http://www.bohemiancoding.com/sketch/ns">
    <!-- Generator: Sketch 3.3 (11970) - http://www.bohemiancoding.com/sketch -->
    <title>pie-chart</title>
    <desc>Created with Sketch.</desc>
    <defs></defs>
    <g id="Icons" stroke="none" stroke-width="1" fill="none" fill-rule="evenodd" sketch:type="MSPage">
        <g id="pie-chart" sketch:type="MSArtboardGroup" fill="#000000">
            <path d="M56.2125,9.121875 C54.4875,9.121875 53.0875,10.521875 53.0875,12.246875 C53.0875,13.971875 54.4875,15.371875 56.2125,15.371875 C78.325,15.371875 93.75,31.53125 93.75,53.64375 C93.75,75.759375 75.759375,93.75 53.64375,93.75 C31.528125,93.75 15.36875,77.771875 15.36875,55.65625 C15.36875,53.93125 13.96875,52.53125 12.24375,52.53125 C10.51875,52.53125 9.11875,53.93125 9.11875,55.65625 C9.11875,81.21875 28.084375,100 53.64375,100 C79.203125,100 100,79.20625 100,53.64375 C100,28.0875 81.76875,9.121875 56.2125,9.121875 L56.2125,9.121875 Z M46.9,43.775 L46.9,3.125 C46.9,1.4 45.5,0 43.775,0 C19.434375,0 0,19.434375 0,43.775 C0,45.5 1.4,46.9 3.125,46.9 L43.775,46.9 C45.5,46.9 46.9,45.5 46.9,43.775 L46.9,43.775 Z M40.65,40.65 L6.378125,40.65 C7.8875,22.240625 22.24375,7.8875 40.65,6.378125 L40.65,40.65 L40.65,40.65 Z" id="Shape" sketch:type="MSShapeGroup"></path>
        </g>
    </g>
</svg>