<?xml version="1.0" encoding="UTF-8" standalone="no"?>
<svg width="100px" height="100px" viewBox="0 0 100 100" version="1.1" xmlns="http://www.w3.org/2000/svg" xmlns:xlink="http://www.w3.org/1999/xlink" xmlns:sketch="http://www.bohemiancoding.com/sketch/ns">
    <!-- Generator: Sketch 3.3.1 (12005) - http://www.bohemiancoding.com/sketch -->
    <title>qa</title>
    <desc>Created with Sketch.</desc>
    <defs></defs>
    <g id="Icons" stroke="none" stroke-width="1" fill="none" fill-rule="evenodd" sketch:type="MSPage">
        <g id="qa" sketch:type="MSArtboardGroup" fill="#000000">
            <path d="M50,0 C43.4615385,0 38.4615385,5 38.4615385,11.5384615 L38.4615385,34.6153846 C38.4615385,41.1538462 43.4615385,46.1538462 50,46.1538462 L73.0769231,46.1538462 L88.4615385,61.5384615 L88.4615385,46.1538462 C95,46.1538462 100,41.1538462 100,34.6153846 L100,11.5384615 C100,5 95,0 88.4615385,0 L50,0 L50,0 Z M66.1057692,11.5384615 L72.7163462,11.5384615 L79.2067308,34.6153846 L73.4375,34.6153846 L71.875,28.8461538 L66.1057692,28.8461538 L64.6634615,34.6153846 L59.6153846,34.6153846 L66.1057692,11.5384615 L66.1057692,11.5384615 Z M69.2307692,15.3846154 C68.8461538,16.9230769 68.4134615,18.7980769 68.0288462,19.9519231 L66.9471154,25 L71.5144231,25 L70.4326923,19.9519231 C69.6634615,18.7980769 69.2307692,16.9230769 69.2307692,15.3846154 L69.2307692,15.3846154 Z M11.5384615,38.4615385 C5,38.4615385 0,43.4615385 0,50 L0,73.0769231 C0,79.6153846 5,84.6153846 11.5384615,84.6153846 L11.5384615,100 L26.9230769,84.6153846 L50,84.6153846 C56.5384615,84.6153846 61.5384615,79.6153846 61.5384615,73.0769231 L61.5384615,50 L50,50 C42.6923077,50 36.8990385,45 34.9759615,38.4615385 L11.5384615,38.4615385 L11.5384615,38.4615385 Z M29.2067308,49.6394231 C35.7451923,49.6394231 38.8221154,55.0240385 38.8221154,61.1778846 C38.8221154,66.5625 36.9711538,69.9759615 33.8942308,71.5144231 C35.4326923,72.2836538 37.2596154,72.6923077 39.1826923,73.0769231 L37.7403846,76.9230769 C35.0480769,76.1538462 32.2596154,74.9519231 29.5673077,73.7980769 C29.1826923,73.4134615 28.5096154,73.4375 28.125,73.4375 C23.5096154,73.0528846 19.2307692,69.2307692 19.2307692,61.5384615 C19.2307692,55 23.0528846,49.6394231 29.2067308,49.6394231 L29.2067308,49.6394231 Z M29.2067308,53.8461538 C26.1298077,53.8461538 24.6394231,57.3076923 24.6394231,61.5384615 C24.6394231,66.1538462 26.1298077,69.2307692 29.2067308,69.2307692 C32.2836538,69.2307692 33.8942308,65.7692308 33.8942308,61.5384615 C33.8942308,57.3076923 32.2836538,53.8461538 29.2067308,53.8461538 L29.2067308,53.8461538 Z" id="Shape" sketch:type="MSShapeGroup"></path>
        </g>
    </g>
</svg>