<?xml version="1.0" encoding="UTF-8" standalone="no"?>
<svg width="100px" height="100px" viewBox="0 0 100 100" version="1.1" xmlns="http://www.w3.org/2000/svg" xmlns:xlink="http://www.w3.org/1999/xlink" xmlns:sketch="http://www.bohemiancoding.com/sketch/ns">
    <!-- Generator: Sketch 3.2.2 (9983) - http://www.bohemiancoding.com/sketch -->
    <title>wallet</title>
    <desc>Created with Sketch.</desc>
    <defs></defs>
    <g id="Icons" stroke="none" stroke-width="1" fill="none" fill-rule="evenodd" sketch:type="MSPage">
        <g id="wallet" sketch:type="MSArtboardGroup" fill="#000000">
            <path d="M98.9510214,29.2615379 C98.9969388,26.9945886 98.3877679,21.7029952 91.5032173,19.862441 L22.3944524,6 C17.3282314,6 13.2109702,10.1259091 13.2109702,15.2027712 L13.2109702,27.5406197 L10.1498095,27.5344845 C5.10195539,27.5559577 1,31.6695964 1,36.7341881 L1,85.7972288 C1,90.8710233 5.1172612,95 10.1834822,95 L89.8165178,95 C94.8796776,95 99,90.8710233 99,85.7972288 L98.9448991,29.2676731 L98.9510214,29.2615379 Z M19.3363528,15.1997036 C19.3363528,13.5984214 20.5669395,12.2793575 22.1311926,12.1443836 L89.6695821,25.8411746 C89.6940713,25.853445 89.1675517,27.5590253 86.7155619,27.5283494 L19.3363528,27.5283494 L19.3363528,15.1997036 L19.3363528,15.1997036 Z M92.886862,85.7910936 C92.886862,87.4844035 91.515462,88.858684 89.8257013,88.858684 L10.1896045,88.858684 C8.49984382,88.858684 7.12844381,87.4844035 7.12844381,85.7910936 L7.12844381,36.7249854 C7.12844381,35.0316755 8.49984382,33.657395 10.1896045,33.657395 L86.7247454,33.657395 C89.7308053,33.657395 92.8838008,32.6297522 92.8838008,30.6020749 L92.8838008,85.7910936 L92.886862,85.7910936 Z M19.3792091,55.1427981 C15.9996876,55.1427981 13.2568876,57.8882915 13.2568876,61.2779788 C13.2568876,64.6676662 15.9996876,67.4131596 19.3792091,67.4131596 C22.7587306,67.4131596 25.5015306,64.6676662 25.5015306,61.2779788 C25.5015306,57.8882915 22.7587306,55.1427981 19.3792091,55.1427981 L19.3792091,55.1427981 Z" id="Shape" sketch:type="MSShapeGroup"></path>
        </g>
    </g>
</svg>