<?xml version="1.0" encoding="UTF-8" standalone="no"?>
<svg width="100px" height="100px" viewBox="0 0 100 100" version="1.1" xmlns="http://www.w3.org/2000/svg" xmlns:xlink="http://www.w3.org/1999/xlink" xmlns:sketch="http://www.bohemiancoding.com/sketch/ns">
    <!-- Generator: Sketch 3.2.2 (9983) - http://www.bohemiancoding.com/sketch -->
    <title>smartphone</title>
    <desc>Created with Sketch.</desc>
    <defs></defs>
    <g id="Icons" stroke="none" stroke-width="1" fill="none" fill-rule="evenodd" sketch:type="MSPage">
        <g id="smartphone" sketch:type="MSArtboardGroup" fill="#000000">
            <path d="M72.1764706,1 L28.8235294,1 C22.293,1 17,6.06584615 17,12.3076923 L17,87.6923077 C17,93.9341538 22.293,99 28.8235294,99 L72.1764706,99 C78.707,99 84,93.9341538 84,87.6923077 L84,12.3076923 C84,6.06584615 78.707,1 72.1764706,1 Z M76.1176471,78.2692308 C76.1176471,79.3095385 75.2348235,80.1538462 74.1470588,80.1538462 L26.8529412,80.1538462 C25.7651765,80.1538462 24.8823529,79.3095385 24.8823529,78.2692308 L24.8823529,14.1923077 C24.8823529,13.152 25.7651765,12.3076923 26.8529412,12.3076923 L74.1470588,12.3076923 C75.2348235,12.3076923 76.1176471,13.152 76.1176471,14.1923077 L76.1176471,78.2692308 Z M46.5588235,4.76923077 L54.4411765,4.76923077 C55.5289412,4.76923077 56.4117647,5.61353846 56.4117647,6.65384615 C56.4117647,7.69415385 55.5289412,8.53846154 54.4411765,8.53846154 L46.5588235,8.53846154 C45.4710588,8.53846154 44.5882353,7.69415385 44.5882353,6.65384615 C44.5882353,5.61353846 45.4710588,4.76923077 46.5588235,4.76923077 Z M50.5,94.394 C47.7175294,94.394 45.4631765,92.238 45.4631765,89.5769231 C45.4631765,86.9158462 47.7175294,84.7598462 50.5,84.7598462 C53.2824706,84.7598462 55.5368235,86.9158462 55.5368235,89.5769231 C55.5368235,92.238 53.2824706,94.394 50.5,94.394 Z" id="Shape-3" sketch:type="MSShapeGroup"></path>
        </g>
    </g>
</svg>