<?xml version="1.0" encoding="UTF-8" standalone="no"?>
<svg width="100px" height="100px" viewBox="0 0 100 100" version="1.1" xmlns="http://www.w3.org/2000/svg" xmlns:xlink="http://www.w3.org/1999/xlink" xmlns:sketch="http://www.bohemiancoding.com/sketch/ns">
    <!-- Generator: Sketch 3.2.2 (9983) - http://www.bohemiancoding.com/sketch -->
    <title>user-circle</title>
    <desc>Created with Sketch.</desc>
    <defs></defs>
    <g id="Icons" stroke="none" stroke-width="1" fill="none" fill-rule="evenodd" sketch:type="MSPage">
        <g id="user-circle" sketch:type="MSArtboardGroup" fill="#000000">
            <path d="M50,1 C22.9814,1 1,22.894697 1,49.8067254 C1,67.6797482 10.79412,84.1061397 26.5584,92.6766007 C33.98288,96.7548906 42.69704,99 51.09956,99 C54.54916,99 58.37116,98.3342763 62.46364,97.018447 C83.97856,91.3998167 99,71.9923105 99,49.8067254 C99,22.894697 77.0186,1 50,1 L50,1 Z M61.36604,93.2700904 C50.4508,96.0930714 38.37328,94.6444878 28.44392,89.2523208 C25.66464,87.7256464 23.15584,85.9725089 20.95868,84.0280489 C23.67328,82.1831547 26.95628,80.8966094 30.14716,79.6471573 C35.51364,77.5445635 40.58416,75.5571537 42.27172,71.0415554 L42.38736,70.5359178 C42.61864,67.9862544 42.601,66.0242241 42.58336,63.9470098 L42.57356,62.141161 L42.60884,60.9795609 L41.55828,60.4329256 C40.6998,59.8511494 38.40856,55.9134228 38.03028,52.3895773 L37.85584,50.7828599 L36.23884,50.6520579 C35.98796,50.6325352 34.9766,49.9297183 34.60616,46.8666082 C34.418,45.2911271 35.18632,44.7366827 35.19024,44.7347305 L36.43484,43.9811546 L36.06832,42.5774732 C33.68888,33.4584246 34.08284,26.4693016 37.20904,22.3675844 C39.64532,19.1697677 43.89852,17.4927686 49.81576,17.3853938 C53.49468,17.3853938 56.21516,18.301008 57.09128,19.8315869 L57.56952,20.6671581 L58.52404,20.7979601 C61.1426,21.1610821 63.00068,22.2738755 64.2002,24.200765 C67.21076,29.026774 65.46832,37.9447388 63.965,42.452528 L63.55144,43.9108729 L64.80584,44.7347305 C64.81368,44.7405873 65.582,45.2930794 65.38992,46.8685605 C65.02144,49.9316706 64.01008,50.6364397 63.7592,50.6540101 L62.1422,50.7828599 L61.96972,52.3895773 C61.58948,55.9309933 59.36684,59.8648153 58.58088,60.4134029 L57.53228,60.9600382 L57.52052,63.9567712 C57.50288,66.0300809 57.48524,67.990159 57.71652,70.5339655 L57.83216,71.0396032 C59.51776,75.5532491 64.57064,77.540659 69.91752,79.645205 C73.10252,80.8985617 76.37572,82.185107 79.08052,84.0319535 C75.88376,86.503526 68.99632,90.8004701 61.36604,93.2700904 L61.36604,93.2700904 Z M82.0754,81.3729631 C78.81592,78.9501972 74.88024,77.4020479 71.35616,76.0159369 C66.76976,74.2120403 62.79292,72.6482728 61.59536,69.9033826 C61.4072,67.6895095 61.42288,65.9715128 61.44052,63.9938643 L61.4464,63.0567752 C63.20452,61.2665445 65.01556,57.4615722 65.67412,54.0724332 C67.05396,53.3618072 68.76896,51.6145265 69.28444,47.3312483 C69.54316,45.2013228 68.91988,43.5633691 68.0614,42.4876688 C69.20016,38.6221762 71.5502,28.5777521 67.5322,22.1391689 C65.84856,19.4391808 63.29664,17.7387545 59.94112,17.0769353 C58.09088,14.7478784 54.54132,13.4789035 49.77852,13.4789035 C42.56376,13.6116578 37.28352,15.8079605 34.0848,20.0053389 C30.29612,24.9797203 29.59248,32.5193832 31.98956,42.4251962 C31.1056,43.5008965 30.45488,45.1603251 30.71556,47.3312483 C31.233,51.6145265 32.948,53.3637595 34.32588,54.0724332 C34.99424,57.4576676 36.85036,61.2743536 38.65552,63.0684888 L38.65944,63.9821507 C38.67708,65.9637037 38.69276,67.6836527 38.50264,69.9033826 C37.30312,72.6463206 33.3106,74.2100881 28.70656,76.0139846 C25.1668,77.4000956 21.20956,78.9501972 17.9344,81.3788199 C9.71416,73.0894856 4.92,61.8034185 4.92,49.8067254 C4.92,25.0480497 25.14328,4.90453803 50,4.90453803 C74.85868,4.90453803 95.08,25.0480497 95.08,49.8067254 C95.08,61.9420296 90.19568,73.1734332 82.0754,81.3729631 L82.0754,81.3729631 Z" id="Shape" sketch:type="MSShapeGroup"></path>
        </g>
    </g>
</svg>