<?xml version="1.0" encoding="UTF-8" standalone="no"?>
<svg width="100px" height="100px" viewBox="0 0 100 100" version="1.1" xmlns="http://www.w3.org/2000/svg" xmlns:xlink="http://www.w3.org/1999/xlink" xmlns:sketch="http://www.bohemiancoding.com/sketch/ns">
    <!-- Generator: Sketch 3.3.1 (12005) - http://www.bohemiancoding.com/sketch -->
    <title>question-circle</title>
    <desc>Created with Sketch.</desc>
    <defs></defs>
    <g id="Icons" stroke="none" stroke-width="1" fill="none" fill-rule="evenodd" sketch:type="MSPage">
        <g id="question-circle" sketch:type="MSArtboardGroup" fill="#000000">
            <path d="M49.9984375,0 C22.3859375,0 -0.0015625,22.384375 -0.0015625,50 C-0.0015625,77.615625 22.3828125,100 49.9984375,100 C77.6140625,100 100.001563,77.615625 100.001563,50 C100.001563,22.384375 77.6171875,0 50.0015625,0 L49.9984375,0 Z M49.9984375,93.85 C25.8734375,93.85 6.2484375,74.125 6.2484375,50 C6.2484375,25.875 25.8734375,6.25 49.9984375,6.25 C74.1234375,6.25 93.7515625,25.875 93.7515625,50 C93.7515625,74.125 74.1234375,93.85 49.9984375,93.85 L49.9984375,93.85 Z M45.4046875,78.171875 L53.2671875,78.171875 L53.2671875,70.2375 L45.4046875,70.2375 L45.4046875,78.171875 L45.4046875,78.171875 Z M49.9046875,21.83125 C45.3265625,21.83125 41.5546875,23.065625 38.5921875,25.53125 C35.6296875,27.996875 34.1890625,32.9375 34.2609375,37.034375 L34.3765625,37.2625 L41.5484375,37.2625 C41.5484375,34.821875 42.3640625,31.309375 43.9890625,30.053125 C45.6140625,28.796875 47.5890625,28.165625 49.9046875,28.165625 C52.5734375,28.165625 54.6265625,28.890625 56.0640625,30.340625 C57.5015625,31.790625 58.2171875,33.8625 58.2171875,36.55625 C58.2171875,38.821875 57.6859375,40.753125 56.6171875,42.353125 C55.5453125,43.953125 53.7546875,46.24375 51.2390625,49.21875 C48.6421875,51.559375 47.0390625,53.440625 46.4328125,54.8625 C45.8265625,56.284375 45.5046875,58.84375 45.4796875,62.528125 L52.9953125,62.528125 C52.9953125,60.215625 53.1421875,58.5125 53.4328125,57.415625 C53.7234375,56.31875 54.5578125,55.090625 55.9296875,53.715625 C58.8828125,50.86875 61.2515625,48.084375 63.0453125,45.359375 C64.8359375,42.640625 65.7328125,39.6375 65.7328125,36.35625 C65.7328125,31.778125 64.3484375,28.209375 61.5734375,25.65625 C58.7984375,23.103125 54.9046875,21.825 49.8984375,21.825 L49.9046875,21.83125 Z" id="Shape" sketch:type="MSShapeGroup"></path>
        </g>
    </g>
</svg>