<?xml version="1.0" encoding="UTF-8" standalone="no"?>
<svg width="100px" height="100px" viewBox="0 0 100 100" version="1.1" xmlns="http://www.w3.org/2000/svg" xmlns:xlink="http://www.w3.org/1999/xlink" xmlns:sketch="http://www.bohemiancoding.com/sketch/ns">
    <!-- Generator: Sketch 3.3 (11970) - http://www.bohemiancoding.com/sketch -->
    <title>warning-squared</title>
    <desc>Created with Sketch.</desc>
    <defs></defs>
    <g id="Icons" stroke="none" stroke-width="1" fill="none" fill-rule="evenodd" sketch:type="MSPage">
        <g id="warning-squared" sketch:type="MSArtboardGroup" fill="#000000">
            <path d="M50.0186515,5.24016041e-06 C47.8927436,-0.00231472597 45.7561121,0.765696792 44.0802356,2.31225222 C44.0589412,2.33262041 44.0380995,2.35345655 44.017726,2.37474538 L2.38630538,44.1826704 C-0.799860207,47.3679959 -0.770130722,52.5805155 2.32379574,55.9313848 C2.3441693,55.9526736 2.36501094,55.9735098 2.38630538,55.993878 L44.017726,97.6143235 C47.2038914,100.799649 52.4177855,100.769928 55.7695384,97.6768167 C55.7908328,97.6564485 55.8116745,97.6356123 55.832048,97.6143235 L97.4634686,55.993878 C100.78922,52.6690038 100.837163,47.3679959 97.6509976,44.1826704 L55.832048,2.37474538 C54.2389643,0.782082559 52.1445593,0.00232520629 50.0186515,5.24016041e-06 L50.0186515,5.24016041e-06 Z M49.9561418,3.99956758 C51.0807353,3.99724763 52.2118277,4.37986316 53.0191142,5.18693765 L94.8380637,46.9948627 C96.4526387,48.6090121 96.4630764,51.3071288 94.5880252,53.1816857 L53.0816239,94.7396381 C53.0601805,94.7594359 53.0407976,94.7828134 53.0191142,94.8021313 C51.1707512,96.4487611 48.4265079,96.3975587 46.8306598,94.8021313 L5.26174884,53.2441788 C5.24155773,53.2223212 5.21894224,53.2038033 5.1992392,53.1816857 C4.37629849,52.2577608 4.00525526,51.1108763 4.01155603,49.9945344 C4.01313128,49.715449 4.02213967,49.4532657 4.07406567,49.1821233 C4.2298439,48.3686984 4.60093593,47.5930092 5.1992392,46.9948627 L46.7681502,5.24943081 L46.8306598,5.18693765 C47.7437666,4.3740626 48.8581545,4.00183273 49.9561418,3.99956758 L49.9561418,3.99956758 Z M47.6432851,27.9969416 C47.0431926,27.9969416 46.8306598,28.4093965 46.8306598,28.8093527 L46.8306598,57.8061796 C46.8306598,58.406114 47.2432234,58.6185907 47.6432851,58.6185907 L52.2064889,58.6185907 C52.8065814,58.6185907 53.0191142,58.2061359 53.0191142,57.8061796 L53.0191142,28.8093527 C53.0191142,28.2094183 52.6065506,27.9969416 52.2064889,27.9969416 L47.6432851,27.9969416 L47.6432851,27.9969416 Z M47.6432851,65.1803727 C47.0431926,65.1803727 46.8306598,65.5928276 46.8306598,65.9927838 L46.8306598,71.3671957 C46.8306598,71.96713 47.2432234,72.1796068 47.6432851,72.1796068 L52.3940178,72.1796068 C52.9941104,72.1796068 53.2066431,71.7671519 53.2066431,71.3671957 L53.2066431,66.1802633 C53.2066431,65.5803289 52.7940795,65.3678522 52.3940178,65.3678522 L52.3940178,65.1803727 L47.6432851,65.1803727 L47.6432851,65.1803727 Z" id="Shape" sketch:type="MSShapeGroup"></path>
        </g>
    </g>
</svg>