<?xml version="1.0" encoding="UTF-8" standalone="no"?>
<svg width="100px" height="100px" viewBox="0 0 100 100" version="1.1" xmlns="http://www.w3.org/2000/svg" xmlns:xlink="http://www.w3.org/1999/xlink" xmlns:sketch="http://www.bohemiancoding.com/sketch/ns">
    <!-- Generator: Sketch 3.3 (11970) - http://www.bohemiancoding.com/sketch -->
    <title>refresh</title>
    <desc>Created with Sketch.</desc>
    <defs></defs>
    <g id="Icons" stroke="none" stroke-width="1" fill="none" fill-rule="evenodd" sketch:type="MSPage">
        <g id="refresh" sketch:type="MSArtboardGroup" fill="#000000">
            <path d="M48.5887795,87.7777541 C48.582576,87.7589659 48.5639652,87.7464404 48.5515581,87.7307835 L39.6401182,73.6740308 C39.0073533,72.6250194 37.6363625,72.2523855 36.5631435,72.8410845 L35.7690855,73.3327107 C34.7020701,73.9214096 34.7237826,75.4401276 35.3565476,76.489139 L41.0669412,85.4354839 C40.5799603,85.3258857 40.0867758,85.2382072 39.6091003,85.1129521 C29.6058308,82.473201 21.1441503,75.6374044 16.3891078,66.3622649 C11.8977173,57.6038026 11.0540307,47.6021835 14.0131374,38.2049203 C16.9722441,28.807657 23.6845155,21.1326513 32.3602194,16.6015484 C33.836671,15.8280982 34.4136037,13.9962425 33.6505636,12.5057069 C32.8875235,11.0120399 31.0698752,10.4296037 29.5934236,11.1999225 C19.487795,16.4794247 11.7178135,25.4163754 8.27172594,36.3636704 C4.82563834,47.3109654 5.80890546,58.9565576 11.0385217,69.1585848 C16.5783169,79.9555737 26.4327006,87.9124034 38.0861219,90.9936786 C38.2194989,91.0281238 38.3559776,91.046912 38.4893545,91.0844886 L30.6077086,95.1177025 C29.5406932,95.7095328 29.1870893,97.0372368 29.8198542,98.0862482 L30.1238295,98.8878808 C30.7596963,99.9368921 31.851526,100.309526 32.9154396,99.7208271 L47.3418603,92.2650178 C47.3604711,92.2524923 47.3790818,92.2556237 47.3976925,92.2430981 L48.3654507,91.7076326 C48.8989584,91.4101518 49.2556642,90.9279197 49.3952447,90.3861914 C49.5410288,89.8475945 49.4727894,89.2463701 49.1595087,88.7234301 L48.582576,87.7777541 L48.5887795,87.7777541 Z M88.9585635,31.2407372 C83.4280737,20.4468797 73.8776654,12.4869186 62.2304476,9.40564336 C61.4022699,9.18644695 60.5523798,9.01735257 59.7055914,8.84512682 L67.4414532,4.88393455 C68.5084686,4.29210425 69.1443353,2.9612689 68.5115704,1.91225751 L68.2044933,1.1137563 C67.5686265,0.0616135296 66.194534,-0.30788899 65.1306203,0.277678563 L50.7041996,7.73348789 C50.6855889,7.74288202 50.6669782,7.73975064 50.6483674,7.75227615 L49.6806093,8.28774167 C49.1439998,8.58522251 48.7903958,9.06745461 48.6508153,9.60918288 C48.5050312,10.1477798 48.5732706,10.7490042 48.8896531,11.2688128 L49.463484,12.2207515 C49.4727894,12.2395398 49.4882983,12.2520653 49.5007055,12.2677222 L58.4121453,26.3244748 C59.0418085,27.3734862 60.415901,27.7461201 61.4860182,27.1574212 L62.1870226,26.665795 C63.254038,26.077096 63.3222773,24.5583781 62.6926142,23.5093667 L56.9543045,14.5223138 C58.2167326,14.7195906 59.4698554,14.9544439 60.6981638,15.2801072 C70.7045352,17.926121 78.8622403,24.7587862 83.6110793,34.0245316 C88.1024698,42.7829939 88.9461564,52.7846129 85.9839479,62.1787448 C83.0279429,71.5791394 76.6165451,79.2478824 67.9377394,83.7883795 C66.4612878,84.5618297 65.8843551,86.390554 66.650497,87.884221 C67.1840047,88.9238382 68.2355111,89.5250627 69.3273409,89.5250627 C69.7926092,89.5250627 70.2640812,89.4154645 70.7107388,89.1837425 C80.8194692,83.9042404 88.2792717,74.9672896 91.7284611,64.023126 C95.1745487,53.0726996 94.1912816,41.4271075 88.9585635,31.2282117 L88.9585635,31.2407372 Z" id="Shape" sketch:type="MSShapeGroup"></path>
        </g>
    </g>
</svg>