<?xml version="1.0" encoding="UTF-8" standalone="no"?>
<svg width="100px" height="100px" viewBox="0 0 100 100" version="1.1" xmlns="http://www.w3.org/2000/svg" xmlns:xlink="http://www.w3.org/1999/xlink" xmlns:sketch="http://www.bohemiancoding.com/sketch/ns">
    <!-- Generator: Sketch 3.3 (11970) - http://www.bohemiancoding.com/sketch -->
    <title>plus-circle</title>
    <desc>Created with Sketch.</desc>
    <defs></defs>
    <g id="Icons" stroke="none" stroke-width="1" fill="none" fill-rule="evenodd" sketch:type="MSPage">
        <g id="plus-circle" sketch:type="MSArtboardGroup" fill="#000000">
            <path d="M50,0 C22.3875,0 0,22.384375 0,50 C0,77.615625 22.384375,100 50,100 C77.615625,100 100,77.615625 100,50 C100,22.384375 77.615625,0 50,0 L50,0 Z M50,93.85 C25.875,93.85 6.25,74.125 6.25,50 C6.25,25.875 25.875,6.25 50,6.25 C74.125,6.25 93.75,25.875 93.75,50 C93.75,74.125 74.125,93.85 50,93.85 L50,93.85 Z M71.875,46.875 L53.125,46.875 L53.125,28.125 C53.125,26.4 51.725,25 50,25 C48.275,25 46.875,26.4 46.875,28.125 L46.875,46.875 L28.125,46.875 C26.4,46.875 25,48.275 25,50 C25,51.725 26.4,53.125 28.125,53.125 L46.875,53.125 L46.875,71.875 C46.875,73.6 48.275,75 50,75 C51.725,75 53.125,73.6 53.125,71.875 L53.125,53.125 L71.875,53.125 C73.6,53.125 75,51.725 75,50 C75,48.275 73.6,46.875 71.875,46.875 L71.875,46.875 Z" id="Shape" sketch:type="MSShapeGroup"></path>
        </g>
    </g>
</svg>