<?xml version="1.0" encoding="UTF-8" standalone="no"?>
<svg width="100px" height="100px" viewBox="0 0 100 100" version="1.1" xmlns="http://www.w3.org/2000/svg" xmlns:xlink="http://www.w3.org/1999/xlink" xmlns:sketch="http://www.bohemiancoding.com/sketch/ns">
    <!-- Generator: Sketch 3.2.2 (9983) - http://www.bohemiancoding.com/sketch -->
    <title>trash</title>
    <desc>Created with Sketch.</desc>
    <defs></defs>
    <g id="Icons" stroke="none" stroke-width="1" fill="none" fill-rule="evenodd" sketch:type="MSPage">
        <g id="trash" sketch:type="MSArtboardGroup" fill="#000000">
            <path d="M42.8875,0 C39.9452079,0 37.3304555,0.721325 35.546875,2.58152174 C33.7632945,4.44171848 33.1,7.05755304 33.1,10.1902174 L33.1,10.8695652 L17.875,10.8695652 C16.0625001,10.8695652 14.4784869,11.6828591 13.3210937,12.8396739 C12.6644569,13.4959826 12.1823888,14.3297959 11.8257812,15.2173913 L9.175,15.2173913 L7,15.2173913 L7,17.3913043 L7,26.0869565 L7,28.2608696 L9.175,28.2608696 L13.525,28.2608696 L13.525,91.3043478 C13.525,96.1082696 17.4186765,100 22.225,100 L78.775,100 C83.5813237,100 87.475,96.1082696 87.475,91.3043478 L87.475,28.2608696 L91.825,28.2608696 L94,28.2608696 L94,26.0869565 L94,17.3913043 L94,15.2173913 L91.825,15.2173913 L89.1742188,15.2173913 C88.8176123,14.3297959 88.3355431,13.4959826 87.6789062,12.8396739 C86.5215126,11.6828591 84.9374993,10.8695652 83.125,10.8695652 L67.9,10.8695652 L67.9,10.1902174 C67.9,7.05755304 67.2367055,4.44171848 65.453125,2.58152174 C63.6695445,0.721325 61.0547921,0 58.1125,0 L42.8875,0 L42.8875,0 Z M42.8875,4.34782609 L58.1125,4.34782609 C60.3902079,4.34782609 61.608893,4.82215326 62.3265625,5.57065217 C63.044232,6.31915109 63.55,7.67070783 63.55,10.1902174 L63.55,10.8695652 L37.45,10.8695652 L37.45,10.1902174 C37.45,7.67070783 37.955768,6.31915109 38.6734375,5.57065217 C39.391107,4.82215326 40.6097921,4.34782609 42.8875,4.34782609 L42.8875,4.34782609 Z M17.875,15.2173913 L83.125,15.2173913 C83.4875007,15.2173913 84.0784874,15.4910539 84.5523438,15.9646739 C85.0262001,16.4382939 85.3,17.0289854 85.3,17.3913043 L85.3,19.5652174 L87.475,19.5652174 L89.65,19.5652174 L89.65,23.9130435 L11.35,23.9130435 L11.35,19.5652174 L13.525,19.5652174 L15.7,19.5652174 L15.7,17.3913043 C15.7,17.0289854 15.9737994,16.4382939 16.4476563,15.9646739 C16.9215131,15.4910539 17.5124999,15.2173913 17.875,15.2173913 L17.875,15.2173913 Z M17.875,28.2608696 L83.125,28.2608696 L83.125,91.3043478 C83.125,93.8917304 81.3636763,95.6521739 78.775,95.6521739 L22.225,95.6521739 C19.6363237,95.6521739 17.875,93.8917304 17.875,91.3043478 L17.875,28.2608696 L17.875,28.2608696 Z M32.8960937,36.888587 C32.804102,36.9053674 32.7132886,36.9280594 32.6242187,36.9565217 C31.6114768,37.1832136 30.9000178,38.093426 30.925,39.1304348 L30.925,84.7826087 C30.9139069,85.5665998 31.3260163,86.2958291 32.0035234,86.6910603 C32.6810306,87.0862915 33.5189694,87.0862915 34.1964766,86.6910603 C34.8739837,86.2958291 35.2860931,85.5665998 35.275,84.7826087 L35.275,39.1304348 C35.2972885,38.5050744 35.0489104,37.9004374 34.5933886,37.4711601 C34.1378667,37.0418827 33.5193753,36.829594 32.8960937,36.888587 L32.8960937,36.888587 Z M50.2960937,36.888587 C50.204102,36.9053674 50.1132886,36.9280594 50.0242187,36.9565217 C49.0114768,37.1832136 48.3000178,38.093426 48.325,39.1304348 L48.325,84.7826087 C48.3139069,85.5665998 48.7260163,86.2958291 49.4035234,86.6910603 C50.0810306,87.0862915 50.9189694,87.0862915 51.5964766,86.6910603 C52.2739837,86.2958291 52.6860931,85.5665998 52.675,84.7826087 L52.675,39.1304348 C52.6972885,38.5050744 52.4489104,37.9004374 51.9933886,37.4711601 C51.5378667,37.0418827 50.9193753,36.829594 50.2960937,36.888587 L50.2960937,36.888587 Z M67.6960937,36.888587 C67.604102,36.9053674 67.5132886,36.9280594 67.4242187,36.9565217 C66.4114768,37.1832136 65.7000178,38.093426 65.725,39.1304348 L65.725,84.7826087 C65.7139069,85.5665998 66.1260163,86.2958291 66.8035234,86.6910603 C67.4810306,87.0862915 68.3189694,87.0862915 68.9964766,86.6910603 C69.6739837,86.2958291 70.0860931,85.5665998 70.075,84.7826087 L70.075,39.1304348 C70.0972885,38.5050744 69.8489104,37.9004374 69.3933886,37.4711601 C68.9378667,37.0418827 68.3193753,36.829594 67.6960937,36.888587 L67.6960937,36.888587 Z" id="Shape" sketch:type="MSShapeGroup"></path>
        </g>
    </g>
</svg>