<?xml version="1.0" encoding="UTF-8" standalone="no"?>
<svg width="100px" height="100px" viewBox="0 0 100 100" version="1.1" xmlns="http://www.w3.org/2000/svg" xmlns:xlink="http://www.w3.org/1999/xlink" xmlns:sketch="http://www.bohemiancoding.com/sketch/ns">
    <!-- Generator: Sketch 3.2.2 (9983) - http://www.bohemiancoding.com/sketch -->
    <title>warning</title>
    <desc>Created with Sketch.</desc>
    <defs></defs>
    <g id="Icons" stroke="none" stroke-width="1" fill="none" fill-rule="evenodd" sketch:type="MSPage">
        <g id="warning" sketch:type="MSArtboardGroup" fill="#000000">
            <path d="M98.0694001,85.6632098 L56.1187954,8.66419077 C55.4992816,7.53385605 54.6437625,6.64046204 53.5495564,5.98467995 C52.458032,5.32822665 51.2739829,5 49.9994205,5 C48.724858,5 47.5408089,5.32889787 46.4486141,5.98467995 C45.3564193,6.64046204 44.5002298,7.53385605 43.8813865,8.66419077 L1.92944084,85.6632098 C0.654878362,87.9607963 0.691083713,90.2577117 2.03872736,92.554627 C2.65824116,93.6111275 3.50504411,94.4501527 4.57913621,95.0690177 C5.65389878,95.6892251 6.80978816,96 8.04814529,96 L91.9513661,96 C93.1910642,96 94.3462831,95.6892251 95.4210457,95.0690177 C96.4958082,94.4501527 97.3412703,93.6111275 97.9614545,92.554627 C99.3090982,90.2570404 99.3453035,87.9607963 98.0694001,85.6632098 L98.0694001,85.6632098 Z M54.9,64.688172 L45.1,64.688172 L45.1,35.3333333 L54.9,35.3333333 L54.9,64.688172 L54.9,64.688172 Z M54.9,84.2580645 L45.1,84.2580645 L45.1,74.4731183 L54.9,74.4731183 L54.9,84.2580645 L54.9,84.2580645 Z" id="Shape" sketch:type="MSShapeGroup"></path>
        </g>
    </g>
</svg>