<?xml version="1.0" standalone="no"?> <!DOCTYPE svg PUBLIC "-//W3C//DTD SVG 1.0//EN" "http://www.w3.org/TR/2001/REC-SVG-20010904/DTD/svg10.dtd" > <svg xmlns="http://www.w3.org/2000/svg" width="100%" height="100%">
<defs >
<font id="FuturaLT" horiz-adv-x="585" ><font-face
    font-family="FuturaLT"
    units-per-em="1000"
    panose-1="2 0 8 3 0 0 0 0 0 0"
    ascent="1009"
    descent="-260"
    alphabetic="0" />
<missing-glyph horiz-adv-x="416" />
<glyph unicode=" " glyph-name="space" horiz-adv-x="416" />
<glyph unicode="!" glyph-name="exclam" horiz-adv-x="462" d="M407 288H143L224 803H488L407 288ZM208 239T266 239T365 204T396 112Q387 56 337 22T227 -12T129 22T98 112Q107 169 157 204Z" />
<glyph unicode="&quot;" glyph-name="quotedbl" horiz-adv-x="788" d="M696 381H517L536 754H795L696 381ZM391 381H212L231 754H490L391 381Z" />
<glyph unicode="#" glyph-name="numbersign" horiz-adv-x="832" d="M438 801H580L492 577H628L716 801H858L769 577H877L858 453H726L672 315H798L778 191H619L545 0H402L477 191H341L267 0H124L198 191H76L96 315H248L302 453H173L192 577H349L438 801ZM445 453L391
315H528L585 453H445Z" />
<glyph unicode="$" glyph-name="dollar" horiz-adv-x="832" d="M460 752L474 874H645L617 758Q712 751 798 700L692 510Q627 574 527 574Q499 574 477 563T451 526Q450 518 452 512T460 501T471 494T486 490T501 487T517 485T530 484Q577 478 612 470T681 446T736
405T764 343T766 256Q750 157 674 89T495 9L483 -115H321L347 8Q231 12 122 92L230 290Q329 194 432 194Q517 194 524 242Q526 254 521 263T506 277T486 284T464 289L422 296Q370 305 332 319T263 357T220 422T216 517Q224 567 245 606T301 672T373 718T460 752Z"
/>
<glyph unicode="%" glyph-name="percent" horiz-adv-x="1145" d="M249 0L889 776H1026L390 0H249ZM840 404T946 404T1110 352T1153 198Q1143 129 1101 81T1002 10T880 -12Q832 -12 792 1T722 39T679 105T673 198Q689 300 764 352ZM945 254T922 254T884 238T866
198T871 160T905 145T943 160T961 198T955 237ZM278 766T384 766T549 714T592 560Q581 491 539 443T440 372T318 350Q271 350 231 363T160 401T117 467T112 560Q128 662 203 714ZM384 616T361 616T322 600T304 560T310 522T343 507T381 522T399 560T394 599Z" />
<glyph unicode="&amp;" glyph-name="ampersand" horiz-adv-x="962" d="M545 602Q525 602 509 588T490 553Q487 538 496 520T517 494Q574 523 579 558Q582 575 572 588T545 602ZM630 0L589 57Q527 20 468 4T340 -12Q282 -12 232 1T143 42T85 117T76 226Q88 304
149 351T295 414Q263 448 250 480T243 555Q251 608 283 650T360 716T454 753T554 766Q601 766 646 753T729 715T786 649T797 557Q787 492 737 440T620 369L678 300Q685 304 693 309T707 319T721 330T734 341T748 353T760 364T774 377T786 389T799 402T812 414L929
252L797 163L945 0H630ZM467 196L387 291Q371 281 363 276T345 258T333 233Q329 205 346 191T392 176Q416 176 467 196Z" />
<glyph unicode="&apos;" glyph-name="quotesingle" horiz-adv-x="493" d="M396 381H217L236 754H495L396 381Z" />
<glyph unicode="(" glyph-name="parenleft" horiz-adv-x="450" d="M335 839L510 727Q448 651 405 535T344 310Q302 46 378 -108L167 -219L137 -123Q105 -25 96 88T104 310Q121 417 166 531T274 743L335 839Z" />
<glyph unicode=")" glyph-name="parenright" horiz-adv-x="450" d="M170 727L381 839L412 743Q443 645 452 532T444 310Q427 203 382 89T275 -123L213 -219L38 -108Q162 46 204 310Q215 378 216 450T207 599T170 727Z" />
<glyph unicode="*" glyph-name="asterisk" horiz-adv-x="492" d="M357 380H251L265 469L181 425L142 511L234 562L158 610L225 700L295 655L310 754H416L400 650L489 700L528 610L443 562L513 520L445 425L372 472L357 380Z" />
<glyph unicode="+" glyph-name="plus" horiz-adv-x="800" d="M363 400L395 600H595L563 400H763L732 200H532L500 0H300L332 200H132L163 400H363Z" />
<glyph unicode="," glyph-name="comma" horiz-adv-x="416" d="M175 -166H-26L154 207H413L175 -166Z" />
<glyph unicode="-" glyph-name="hyphenminus" horiz-adv-x="485" d="M90 165L125 385H482L447 165H90Z" />
<glyph unicode="." glyph-name="period" horiz-adv-x="416" d="M187 239T245 239T344 204T375 112Q366 56 316 22T206 -12T108 22T77 112Q86 169 136 204Z" />
<glyph unicode="/" glyph-name="slash" horiz-adv-x="728" d="M143 -150H-6L690 811H838L143 -150Z" />
<glyph unicode="0" glyph-name="zero" horiz-adv-x="832" d="M537 766Q648 766 723 715T826 578T837 384Q823 299 788 227T700 102T574 18T414 -12Q301 -12 227 40T126 181T117 384Q130 464 165 534T254 655T380 736T537 766ZM529 532T500 532T448 517T412 477T390
428T378 377Q373 355 374 327T381 273T404 229T449 211T500 228T537 273T561 326T574 377Q579 400 578 427T572 477T548 516Z" />
<glyph unicode="1" glyph-name="one" horiz-adv-x="832" d="M266 504L304 742L693 754L574 0H302L383 512L266 504Z" />
<glyph unicode="2" glyph-name="two" horiz-adv-x="832" d="M775 0H26L369 267Q559 415 569 482Q573 507 558 524T517 542Q496 542 481 534T457 511T444 482T435 447H167Q208 614 301 690T562 766Q622 766 676 749T772 699T833 615T843 500Q835 445 805 397T731
314T638 254T533 213L531 205L663 223L812 232L775 0Z" />
<glyph unicode="3" glyph-name="three" horiz-adv-x="832" d="M104 264H380Q373 230 391 205T444 179Q473 179 499 199T529 248Q534 276 517 297T471 318Q458 318 434 314L459 471L480 469Q502 467 522 483T546 523Q549 546 537 559T501 573Q478 573 462 556T444
515H174Q236 766 539 766Q579 766 619 759T699 735T766 694T809 633T816 550Q809 503 778 463T700 404L699 398Q755 383 781 336T797 228Q789 175 761 133T695 65T608 20T512 -5T418 -12Q361 -12 313 -4T222 26T151 78T110 156T104 264Z" />
<glyph unicode="4" glyph-name="four" horiz-adv-x="832" d="M472 464L357 345L356 341L490 348L508 461Q512 489 530 523L524 527Q505 497 472 464ZM75 143L106 341L480 754H804L740 348L836 355L803 143L702 151L685 0H425L459 151L75 143Z" />
<glyph unicode="5" glyph-name="five" horiz-adv-x="832" d="M322 754H835L802 543H479Q460 485 441 456H448Q485 496 583 496Q690 496 755 431T803 260Q793 194 751 140T650 54T526 5T399 -12Q336 -12 246 6T108 49L170 253Q209 230 274 211T385 191Q405 191
426 194T471 206T510 229T530 266Q534 287 520 303T480 326T433 337T391 341Q286 341 186 308L322 754Z" />
<glyph unicode="6" glyph-name="six" horiz-adv-x="832" d="M474 754H833L559 542V536Q566 537 583 540T612 545T636 547Q700 547 747 510T812 416T821 295Q809 223 771 164T677 67T555 9T418 -12Q347 -12 286 9T180 71T116 172T107 307Q129 450 278 581L474 754ZM369
296Q363 256 385 230T447 203Q486 203 517 228T555 292Q562 333 539 361T475 390Q437 390 406 362T369 296Z" />
<glyph unicode="7" glyph-name="seven" horiz-adv-x="832" d="M379 519L172 512L210 754H942L394 0H91L451 477Q476 513 490 522L491 528L379 519Z" />
<glyph unicode="8" glyph-name="eight" horiz-adv-x="832" d="M537 766Q580 766 621 759T703 734T771 691T814 626T821 538Q813 486 776 447T686 392L685 385Q743 370 773 324T794 216Q786 165 757 125T688 59T599 18T504 -5T414 -12T327 -6T240 17T163 59T115
124T106 216Q116 278 161 324T269 385L270 392Q222 407 198 446T181 538Q191 597 228 643T319 714T427 753T537 766ZM531 576T507 576T465 559T442 517Q438 494 452 478T489 462T530 478T554 517Q558 542 545 559ZM495 317T466 317T412 297T381 246Q376 214 394
192T443 169T499 191T529 246Q534 276 515 296Z" />
<glyph unicode="9" glyph-name="nine" horiz-adv-x="832" d="M116 0L331 167Q367 195 382 201L383 206L341 204Q265 200 212 235T139 332T131 469Q142 540 180 597T273 691T393 746T525 766Q600 766 662 747T771 691T838 592T847 453Q834 373 795 311T684 184L480
0H116ZM400 457Q394 417 416 390T478 363Q515 363 545 390T581 453Q587 490 566 517T507 545Q470 545 438 520T400 457Z" />
<glyph unicode=":" glyph-name="colon" horiz-adv-x="416" d="M187 239T245 239T344 204T375 112Q366 56 316 22T206 -12T108 22T77 112Q86 169 136 204ZM235 543T294 543T392 508T423 416Q414 360 364 326T254 292T156 326T125 416Q134 473 184 508Z" />
<glyph unicode=";" glyph-name="semicolon" horiz-adv-x="416" d="M175 -166H-26L154 207H413L175 -166ZM285 543T344 543T442 508T473 416Q464 360 414 326T304 292T206 326T175 416Q184 473 234 508Z" />
<glyph unicode="&lt;" glyph-name="less" horiz-adv-x="800" d="M128 177L167 421L796 603L762 391L416 300L415 298L733 207L699 -5L128 177Z" />
<glyph unicode="=" glyph-name="equal" horiz-adv-x="800" d="M100 0L132 200H732L700 0H100ZM149 312L181 512H781L749 312H149Z" />
<glyph unicode="&gt;" glyph-name="greater" horiz-adv-x="800" d="M767 421L728 177L99 -5L133 207L479 298L480 300L162 391L196 603L767 421Z" />
<glyph unicode="?" glyph-name="question" horiz-adv-x="697" d="M313 294L343 488Q376 478 393 478Q430 478 459 499T494 557Q498 579 487 593T454 607Q431 607 414 588T392 543H135Q150 623 202 685T328 781T480 814Q565 814 628 784T722 690T741 541Q730 476
697 426T616 346T512 300T393 285Q352 285 313 294ZM337 239T395 239T494 204T525 112Q516 56 466 22T356 -12T258 22T227 112Q236 169 286 204Z" />
<glyph unicode="@" glyph-name="at" horiz-adv-x="800" d="M367 353Q361 315 377 289T429 262Q471 262 499 294T540 370Q552 413 536 439T483 466Q442 466 408 431T367 353ZM712 565L622 309Q604 259 610 250Q614 244 624 245Q653 248 691 301T743 416Q768 536
705 601T520 666Q395 666 306 586T195 375Q174 241 244 163T445 85Q573 85 630 117L701 52Q560 -15 422 -15Q315 -15 234 35T116 175T95 375Q113 485 178 574T338 715T539 766Q678 766 761 680Q857 583 836 450Q816 322 741 241Q700 196 656 174T573 154Q553 155
538 171T520 211Q460 154 383 154Q317 154 275 208T244 337Q259 432 327 503T486 574Q565 574 599 513L617 565H712Z" />
<glyph unicode="A" glyph-name="A" horiz-adv-x="823" d="M321 94L284 0H-6L375 754H678L828 0H538L528 94H321ZM398 273H508L497 406Q495 436 495 503H485L398 273Z" />
<glyph unicode="B" glyph-name="B" horiz-adv-x="736" d="M60 0L179 754H498Q546 754 585 749T661 730T722 694T757 633T760 545Q752 493 720 451T637 393L636 387Q696 365 724 320T742 208Q733 152 703 111T628 46T534 11T433 0H60ZM387 464H412Q431 464 443
465T470 472T494 489T506 520Q509 535 505 545T495 561T476 568T455 571T431 572Q426 572 424 572H405L387 464ZM362 305L343 180H374Q397 180 411 181T445 188T478 207T493 243Q496 261 490 273T475 292T448 301T419 304T389 305H362Z" />
<glyph unicode="C" glyph-name="C" horiz-adv-x="656" d="M729 735L692 448Q622 524 543 524Q481 524 431 481T371 377Q361 315 399 273T500 230Q586 230 669 300L616 18Q584 4 523 -4T416 -12Q310 -12 230 38T114 176T94 370Q111 478 177 569T343 713T550 766Q644
766 729 735Z" />
<glyph unicode="D" glyph-name="D" horiz-adv-x="827" d="M64 0L183 754H462Q560 754 636 732T766 665T842 543T848 366Q822 200 701 100T411 0H64ZM420 518L374 226H391Q463 226 513 261T574 367Q598 518 437 518H420Z" />
<glyph unicode="E" glyph-name="E" horiz-adv-x="624" d="M58 0L177 754H684L652 548H421L409 476H620L589 280H378L367 206H606L573 0H58Z" />
<glyph unicode="F" glyph-name="F" horiz-adv-x="602" d="M62 0L181 754H686L652 538H423L411 460H612L581 264H380L338 0H62Z" />
<glyph unicode="G" glyph-name="G" horiz-adv-x="891" d="M506 444H929Q922 401 919 383T907 329T889 272T866 222T833 169T787 122Q718 58 627 23T446 -12Q360 -12 289 14T168 89T98 210T91 372Q110 492 179 582T350 719T571 766Q640 766 708 745T834 679T911
572L640 478Q629 506 604 521T545 536Q475 536 426 485T365 361Q355 295 386 248T481 200Q517 200 552 217T602 266H478L506 444Z" />
<glyph unicode="H" glyph-name="H" horiz-adv-x="819" d="M62 0L181 754H445L405 500H573L613 754H877L758 0H494L536 262H368L326 0H62Z" />
<glyph unicode="I" glyph-name="I" horiz-adv-x="403" d="M64 0L183 754H457L338 0H64Z" />
<glyph unicode="J" glyph-name="J" horiz-adv-x="529" d="M319 754H587L507 246Q489 133 406 61T209 -12Q152 -12 95 10T-3 70L127 303Q131 288 132 281T139 260T150 241T165 230T187 224Q235 224 248 306L319 754Z" />
<glyph unicode="K" glyph-name="K" horiz-adv-x="821" d="M64 0L183 754H450L393 427H399Q401 434 405 442T412 456T421 471T430 484T440 499T450 512L620 754H919L625 387L825 0H507L413 228Q410 237 401 255T387 287T381 316H375L331 0H64Z" />
<glyph unicode="L" glyph-name="L" horiz-adv-x="579" d="M62 0L181 754H455L374 242H604L566 0H62Z" />
<glyph unicode="M" glyph-name="M" horiz-adv-x="1083" d="M31 0L272 754H554L596 358H603Q625 428 638 458L769 754H1048L1053 0H788L816 413H811Q793 360 782 338L619 0H459L412 319Q406 378 409 413H400Q386 350 379 322L296 0H31Z" />
<glyph unicode="N" glyph-name="N" horiz-adv-x="872" d="M58 0L177 754H440L620 336H628Q626 468 636 528L671 754H933L814 0H552L374 396H366Q367 298 359 245L320 0H58Z" />
<glyph unicode="O" glyph-name="O" horiz-adv-x="904" d="M573 766Q659 766 730 738T851 660T921 536T928 375Q910 257 839 168T667 34T450 -12Q364 -12 292 15T172 90T102 212T94 375Q113 490 183 580T356 718T573 766ZM598 518T535 518T426 476T370 371Q360
307 392 267T487 226T596 266T652 371Q662 433 630 475Z" />
<glyph unicode="P" glyph-name="P" horiz-adv-x="728" d="M62 0L181 754H528Q666 754 739 683T791 477Q772 362 695 295T502 227H362L326 0H62ZM413 548L392 417H419Q440 417 456 419T488 428T516 449T530 486Q533 503 528 515T515 533T493 543T467 547T439 548H413Z" />
<glyph unicode="Q" glyph-name="Q" horiz-adv-x="924" d="M832 147L924 24L695 -66L656 26Q563 -12 445 -12Q360 -12 291 16T176 94T111 217T105 375Q124 492 195 582T367 719T583 766Q673 766 745 739T864 663T932 540T937 375Q917 244 832 147ZM524 233L472
303L647 335Q659 358 662 377Q672 440 639 482T545 524Q480 524 436 484T382 380Q372 319 402 275T492 230Q513 230 524 233Z" />
<glyph unicode="R" glyph-name="R" horiz-adv-x="757" d="M62 0L181 754H512Q578 754 631 740T723 695T779 613T785 492Q772 409 732 366T608 296L607 290Q636 264 646 245L771 0H455L373 242H368L330 0H62ZM417 548L397 420H416Q435 420 449 422T479 430T503
449T516 483Q522 523 501 535T438 548H417Z" />
<glyph unicode="S" glyph-name="S" horiz-adv-x="663" d="M32 57L150 270L162 259Q240 190 322 190Q348 190 372 201T399 235Q398 241 399 245T398 253T393 259T387 264T379 268T371 271T362 273T353 275T345 277L291 287Q207 302 160 352T126 487Q140 573 198
638T335 734T497 766Q628 766 726 700L621 507Q547 564 471 564Q449 564 429 555T406 524Q405 518 406 514T410 506T417 500T426 495T436 492T446 489T455 487L515 473Q708 428 681 257Q670 192 634 140T546 55T434 5T311 -12Q240 -12 166 6T32 57Z" />
<glyph unicode="T" glyph-name="T" horiz-adv-x="596" d="M91 509L129 754H705L667 509L517 516L435 0H161L243 516L91 509Z" />
<glyph unicode="U" glyph-name="U" horiz-adv-x="815" d="M601 754H875L805 308Q779 148 674 68T405 -12T161 68T107 308L177 754H451L385 334Q381 304 380 279T393 239T442 223Q463 223 479 229T504 244T519 270T528 299T535 334L601 754Z" />
<glyph unicode="V" glyph-name="V" horiz-adv-x="814" d="M648 754H934L523 0H291L118 754H404L450 411Q459 347 451 299H457Q465 347 494 411L648 754Z" />
<glyph unicode="W" glyph-name="W" horiz-adv-x="1183" d="M117 754H401L425 304H431Q455 393 476 443L605 754H815L847 304H853Q874 388 893 437L1019 754H1304L919 0H680L659 410H650Q631 327 618 296L495 0H262L117 754Z" />
<glyph unicode="X" glyph-name="X" horiz-adv-x="831" d="M612 754H921L630 401L835 0H523L462 160Q454 181 454 206H446Q434 180 416 154L308 0H-4L324 401L142 754H451L490 647Q498 627 504 585H510Q520 611 543 647L612 754Z" />
<glyph unicode="Y" glyph-name="Y" horiz-adv-x="773" d="M111 754H421L474 557H482Q511 615 518 628L592 754H900L574 325L523 0H255L306 325L111 754Z" />
<glyph unicode="Z" glyph-name="Z" horiz-adv-x="771" d="M186 754H888L478 233L480 229Q523 233 545 233H773L736 0H2L344 441Q367 471 425 532L422 535Q383 526 355 526H150L186 754Z" />
<glyph unicode="[" glyph-name="bracketleft" horiz-adv-x="470" d="M271 -53H402L385 -155H35L188 811H538L522 709H391L271 -53Z" />
<glyph unicode="\" glyph-name="backslash" horiz-adv-x="728" d="M710 0H561L146 811H294L710 0Z" />
<glyph unicode="]" glyph-name="bracketright" horiz-adv-x="470" d="M52 -53H183L303 709H172L188 811H538L385 -155H35L52 -53Z" />
<glyph unicode="^" glyph-name="asciicircum" horiz-adv-x="800" d="M397 754H641L734 212H526L478 486H476L342 212H134L397 754Z" />
<glyph unicode="_" glyph-name="underscore" horiz-adv-x="500" d="M480 -125H-20L-12 -75H488L480 -125Z" />
<glyph unicode="`" glyph-name="grave" horiz-adv-x="420" d="M193 703L332 786L436 621L336 559L193 703Z" />
<glyph unicode="a" glyph-name="a" horiz-adv-x="720" d="M330 268Q325 234 338 212T385 190Q420 190 440 213T467 270Q472 301 456 321T409 341Q379 341 357 320T330 268ZM416 0L435 70H429Q383 28 344 8T254 -12Q212 -12 178 4T123 47T87 110T71 185T74 263Q82
314 105 363T162 453T246 518T349 543Q449 543 492 468H498L500 531H753L669 0H416Z" />
<glyph unicode="b" glyph-name="b" horiz-adv-x="720" d="M419 341Q388 341 367 319T341 266Q336 234 350 212T395 190Q424 190 447 214T474 268T463 319T419 341ZM50 0L178 811H436L401 587L369 460H378Q411 497 458 520T551 543Q594 543 628 527T683 482T717
418T731 341T727 261Q720 212 698 165T643 77T563 13T464 -12Q414 -12 373 12T306 79H300L292 0H50Z" />
<glyph unicode="c" glyph-name="c" horiz-adv-x="514" d="M548 516L514 301Q469 345 426 345Q390 345 364 324T332 266Q327 235 346 213T396 190Q423 190 446 200T503 231L457 13Q376 -12 323 -12Q191 -12 121 60T72 263Q90 382 181 462T390 543Q469 543 548 516Z" />
<glyph unicode="d" glyph-name="d" horiz-adv-x="720" d="M408 341Q377 341 356 319T330 266Q325 234 339 212T384 190Q413 190 436 214T463 268T452 319T408 341ZM428 0L446 79H440Q353 -12 252 -12Q210 -12 177 4T122 47T88 110T73 183T75 261Q83 312 105 361T159
451T239 518T341 543Q386 543 426 520T488 460H497L505 587L540 811H798L670 0H428Z" />
<glyph unicode="e" glyph-name="e" horiz-adv-x="698" d="M699 222H324Q322 200 322 180T333 145T371 131Q391 131 407 143T430 175H681Q655 114 599 71T479 8T352 -12T234 4T140 53T82 138T75 257Q95 386 195 464T425 543Q496 543 554 521T649 458T701 357T699
222ZM342 332H463Q467 360 453 380T411 401Q383 401 365 382T342 332Z" />
<glyph unicode="f" glyph-name="f" horiz-adv-x="430" d="M158 522L167 578Q205 819 435 819Q472 819 546 807L513 602Q491 611 480 611Q426 611 415 540L411 520L500 531L467 324L385 331L333 0H75L127 331L56 324L89 531L158 522Z" />
<glyph unicode="g" glyph-name="g" horiz-adv-x="722" d="M330 265Q325 232 341 211T391 190Q423 190 443 211T468 264T459 318T413 341T359 319T330 265ZM751 531L672 31Q660 -44 622 -101T528 -192T408 -243T271 -260Q157 -260 49 -218L25 -209L110 -30Q141
-61 189 -78T286 -95Q337 -95 373 -62T422 22L436 76H429Q404 35 356 12T259 -12Q190 -12 143 30T80 135T75 266T121 396T217 500T348 543Q448 543 489 455H496L501 531H751Z" />
<glyph unicode="h" glyph-name="h" horiz-adv-x="699" d="M50 0L178 811H436L401 587L366 440H370Q420 490 463 516T557 543Q605 543 638 526T686 479T705 410T702 326L650 0H398L441 274Q451 337 410 337Q361 337 351 274L308 0H50Z" />
<glyph unicode="i" glyph-name="i" horiz-adv-x="392" d="M67 0L151 531H409L325 0H67ZM264 819T326 819T422 786T448 695Q438 633 393 602T287 570T190 601T164 695Q173 752 218 785Z" />
<glyph unicode="j" glyph-name="j" horiz-adv-x="392" d="M32 -219L151 531H409L290 -219H32ZM264 819T326 819T422 786T448 695Q438 633 393 602T287 570T190 601T164 695Q173 752 218 785Z" />
<glyph unicode="k" glyph-name="k" horiz-adv-x="742" d="M52 0L180 811H438L363 334H369L397 379L501 531H802L566 271L728 0H424L347 195H341L310 0H52Z" />
<glyph unicode="l" glyph-name="l" horiz-adv-x="373" d="M57 0L185 811H443L315 0H57Z" />
<glyph unicode="m" glyph-name="m" horiz-adv-x="1011" d="M384 531L361 437H369Q392 485 440 514T540 543Q597 543 631 514T674 430H680Q744 543 859 543Q920 543 957 513T1006 437T1008 330L956 0H706L748 263Q750 279 751 288T751 309T742 328T721 334Q708
334 699 328T685 310T677 288T673 263L631 0H381L423 263Q425 279 426 288T426 309T417 328T396 334Q383 334 374 328T360 310T352 288T348 263L306 0H56L140 531H384Z" />
<glyph unicode="n" glyph-name="n" horiz-adv-x="703" d="M386 531L363 446H369Q421 498 459 520T555 543Q603 543 636 526T686 479T707 410T705 327L653 0H395L436 259Q439 275 439 284T439 307T428 327T404 334Q389 334 379 328T362 308T354 285T349 259L308
0H50L134 531H386Z" />
<glyph unicode="o" glyph-name="o" horiz-adv-x="714" d="M354 543T443 543T599 512T700 415T720 259Q707 174 651 111T517 18T355 -12Q292 -12 238 6T143 57T85 142T76 259Q90 349 145 414T277 511ZM443 341T411 341T356 319T327 263Q322 232 339 211T387 190T441
211T471 263Q476 296 460 318Z" />
<glyph unicode="p" glyph-name="p" horiz-adv-x="716" d="M417 341Q386 341 365 319T339 266Q334 234 348 212T393 190Q422 190 445 214T472 268T461 319T417 341ZM381 531L360 447H368Q396 491 446 517T549 543Q592 543 626 528T682 486T716 424T731 349T727
270Q719 222 697 173T641 83T559 15T459 -12Q414 -12 373 11T316 73H309L307 -12L274 -219H16L135 531H381Z" />
<glyph unicode="q" glyph-name="q" horiz-adv-x="716" d="M406 340Q375 340 354 318T328 265Q323 233 337 211T382 189Q410 189 433 213T461 267T450 318T406 340ZM749 531L630 -219H372L405 -12L431 73H424Q396 35 347 12T253 -12Q211 -12 177 5T122 51T87 117T72
193T75 270Q83 321 104 369T158 456T238 519T339 543Q391 543 433 517T490 447H498L503 531H749Z" />
<glyph unicode="r" glyph-name="r" horiz-adv-x="495" d="M573 543L532 281Q530 282 525 285T518 290T511 294T504 298T498 301T491 304T484 306T475 308T467 309T457 310Q408 310 378 282T339 204L307 0H49L133 531H391L374 460H380Q421 511 463 528T573 543Z" />
<glyph unicode="s" glyph-name="s" horiz-adv-x="533" d="M16 47L108 207L122 197Q195 148 246 148Q261 148 274 155T289 177Q288 182 289 185T288 192T284 198T278 202T272 204T265 206T257 208T250 209T242 210Q80 233 100 357Q107 405 135 442T204 500T288
532T377 543Q501 543 576 498L490 351Q436 395 378 395Q341 395 337 371Q335 360 342 353T358 344T386 338Q392 338 395 337Q432 331 458 322T506 295T536 250T538 183Q530 133 501 95T431 34T343 0T250 -12Q145 -12 16 47Z" />
<glyph unicode="t" glyph-name="t" horiz-adv-x="433" d="M455 702L427 524L514 528L481 325L396 330L344 0H84L136 330L72 325L105 528L167 524L195 702H455Z" />
<glyph unicode="u" glyph-name="u" horiz-adv-x="697" d="M133 531H389L346 257Q344 241 343 227T351 203T380 193Q408 193 418 210T434 257L477 531H733L686 231Q673 151 620 95T498 13T347 -12Q288 -12 238 2T149 46T94 122T86 231L133 531Z" />
<glyph unicode="v" glyph-name="v" horiz-adv-x="686" d="M78 531H355L384 280H391L415 345L499 531H776L461 0H227L78 531Z" />
<glyph unicode="w" glyph-name="w" horiz-adv-x="949" d="M69 531H341L355 236H363L390 324L474 531H643L665 236H671L698 324L777 531H1048L746 0H538L517 236H510L489 180L411 0H200L69 531Z" />
<glyph unicode="x" glyph-name="x" horiz-adv-x="737" d="M106 531H402L425 465L435 420H440L467 465L509 531H805L564 276L736 0H433L403 75L392 117H387L364 75L311 0H0L267 276L106 531Z" />
<glyph unicode="y" glyph-name="y" horiz-adv-x="658" d="M62 531H340L366 323L368 242H375L401 323L493 531H764L305 -219H33L213 53L62 531Z" />
<glyph unicode="z" glyph-name="z" horiz-adv-x="605" d="M668 501L473 267L408 200L407 194L461 200H608L576 0H16L22 36L216 274L279 334L280 338L219 331H94L126 531H673L668 501Z" />
<glyph unicode="{" glyph-name="braceleft" horiz-adv-x="470" d="M92 236L112 358Q131 367 140 372T163 388T185 415T196 451L229 658Q242 736 299 773T446 811H543L521 671H496Q480 671 469 666T453 651T445 633T441 611L414 445Q410 415 398 391T367 349T333
322T295 298V296Q315 282 326 273T350 245T368 203T367 148L341 -18Q340 -33 339 -46T346 -69T377 -79H402L380 -219H283Q193 -219 148 -181T115 -64L147 142Q151 163 148 178T135 205T116 221T92 236Z" />
<glyph unicode="|" glyph-name="bar" horiz-adv-x="728" d="M230 -214L389 786H589L430 -214H230Z" />
<glyph unicode="}" glyph-name="braceright" horiz-adv-x="470" d="M472 358L452 236Q434 227 425 222T401 205T379 179T367 142L335 -64Q322 -143 265 -181T117 -219H20L42 -79H67Q84 -79 95 -74T111 -59T119 -40T123 -18L149 148Q154 179 166 203T197 245T231
272T269 296V298Q249 312 239 321T214 349T196 391T196 445L223 611Q224 626 225 639T218 661T186 671H161L183 811H280Q371 811 416 774T449 658L416 451Q413 430 416 415T430 389T448 372T472 358Z" />
<glyph unicode="~" glyph-name="asciitilde" horiz-adv-x="800" d="M660 440L749 312Q732 286 700 252T621 183T540 149Q475 149 411 206Q361 250 318 250Q300 250 275 229T235 184L149 308Q172 355 233 403T351 452Q370 452 393 443T432 424T471 398Q475 395
486 387T505 374T522 363T543 355T566 352Q586 352 613 379T660 440Z" />
</font>
</defs>
</svg>
