<?xml version="1.0" standalone="no"?> <!DOCTYPE svg PUBLIC "-//W3C//DTD SVG 1.0//EN" "http://www.w3.org/TR/2001/REC-SVG-20010904/DTD/svg10.dtd" > <svg xmlns="http://www.w3.org/2000/svg" width="100%" height="100%">
<defs >
<font id="FuturaLT-Heavy" horiz-adv-x="434" ><font-face
    font-family="FuturaLT-Heavy"
    units-per-em="1000"
    panose-1="2 0 9 3 0 0 0 0 0 0"
    ascent="1037"
    descent="-264"
    alphabetic="0" />
<missing-glyph horiz-adv-x="289" />
<glyph unicode=" " glyph-name="space" horiz-adv-x="289" />
<glyph unicode="!" glyph-name="exclam" horiz-adv-x="325" d="M125 158T162 158T225 133T251 70T225 7T162 -20T99 6T73 70T99 132ZM91 217V754H233V217H91Z" />
<glyph unicode="&quot;" glyph-name="quotedbl" horiz-adv-x="488" d="M88 754H208L190 426H106L88 754ZM280 754H400L382 426H298L280 754Z" />
<glyph unicode="#" glyph-name="numbersign" horiz-adv-x="578" d="M211 726H317L278 523H379L418 726H523L484 523H564V410H466L442 286H536V173H418L385 0H279L312 173H211L178 0H72L105 173H14V286H127L151 410H55V523H172L211 726ZM257 410L233 286H335L361 410H257Z" />
<glyph unicode="$" glyph-name="dollar" horiz-adv-x="578" d="M268 -100V-5Q190 4 141 38T54 143L143 229Q197 122 283 122Q326 122 353 151T380 223Q380 240 374 255T360 279T335 300T308 316T272 333T238 349Q195 370 168 389T119 448T96 542Q96 626 141 683T268
755V848H341V754Q440 742 500 668L433 573Q386 634 322 634Q288 634 263 612T237 555Q237 537 243 524T268 497T297 478T339 457T380 438Q423 417 450 396T500 333T523 235Q523 147 474 82T341 0V-100H268Z" />
<glyph unicode="%" glyph-name="percent" horiz-adv-x="772" d="M107 774T184 774T312 724T363 595Q363 518 312 468T184 417T56 467T5 595Q5 673 56 723ZM219 693T184 693T127 663T104 595T126 528T184 498T242 528T264 595T242 662ZM553 780L621 746L217 -31L148
4L553 780ZM510 337T587 337T715 287T766 158Q766 81 715 31T587 -20T459 30T408 158Q408 236 459 286ZM622 256T587 256T530 226T507 158T529 91T587 61T645 91T667 158T645 225Z" />
<glyph unicode="&amp;" glyph-name="ampersand" horiz-adv-x="702" d="M383 177L266 334Q240 315 225 301T196 263T181 213Q181 176 208 144T271 112Q292 112 314 123T349 145T383 177ZM283 543L319 492L344 513Q386 549 386 595Q386 624 370 646T327 669Q298
669 282 649T265 599Q265 568 283 543ZM531 0L470 76Q360 -20 254 -20Q159 -20 96 42T33 200Q33 322 142 396L187 427Q126 512 126 587Q126 670 181 722T318 774Q401 774 456 723T511 588Q511 487 387 406L492 271L568 368L661 281L580 172L710 0H531Z" />
<glyph unicode="&apos;" glyph-name="quotesingle" horiz-adv-x="296" d="M88 754H208L190 426H106L88 754Z" />
<glyph unicode="(" glyph-name="parenleft" horiz-adv-x="271" d="M175 832L261 774Q179 588 179 324Q179 54 261 -125L175 -184Q74 15 74 330Q74 461 99 594T175 832Z" />
<glyph unicode=")" glyph-name="parenright" horiz-adv-x="271" d="M10 774L96 832Q147 728 172 595T197 330Q197 15 96 -184L10 -125Q92 54 92 324Q92 588 10 774Z" />
<glyph unicode="*" glyph-name="asterisk" horiz-adv-x="417" d="M166 754H252L250 653L327 705L363 638L282 588L363 538L327 471L250 523L252 424H166L169 523L91 471L55 538L134 588L54 638L89 705L169 653L166 754Z" />
<glyph unicode="+" glyph-name="plus" horiz-adv-x="578" d="M230 512H348V315H545V197H348V0H230V197H33V315H230V512Z" />
<glyph unicode="," glyph-name="comma" horiz-adv-x="289" d="M135 156L263 142L119 -159L26 -148L135 156Z" />
<glyph unicode="-" glyph-name="hyphenminus" horiz-adv-x="330" d="M43 378H287V263H43V378Z" />
<glyph unicode="." glyph-name="period" horiz-adv-x="289" d="M108 158T145 158T208 133T234 70T208 7T145 -20T82 6T56 70T82 132Z" />
<glyph unicode="/" glyph-name="slash" horiz-adv-x="539" d="M405 848L502 813L134 -162L37 -127L405 848Z" />
<glyph unicode="0" glyph-name="zero" horiz-adv-x="578" d="M231 774T289 774T394 748T472 681T522 586T550 480T559 376T551 273T522 168T471 73T394 6T289 -20T185 6T107 73T57 167T28 273T19 376T27 479T56 586T106 681T183 748ZM289 646Q253 646 226 616T187
540T169 453T163 378Q163 344 168 304T186 216T226 139T289 108Q326 108 352 138T391 216T409 303T415 378T410 453T392 539T353 616T289 646Z" />
<glyph unicode="1" glyph-name="one" horiz-adv-x="578" d="M244 626H145V754H391V0H244V626Z" />
<glyph unicode="2" glyph-name="two" horiz-adv-x="578" d="M289 128H536V0H28L220 242Q221 243 237 263T257 289T278 315T301 345T321 375T342 407T358 438T372 469T380 497T384 524Q384 569 357 607T287 646Q241 646 216 606T194 517H38Q46 631 110 702T286
774Q390 774 460 704T531 531Q531 456 497 393T400 257L289 128Z" />
<glyph unicode="3" glyph-name="three" horiz-adv-x="578" d="M199 557H59Q69 656 129 715T290 774Q388 774 447 716T507 561Q507 514 489 471T435 404Q483 383 507 331T532 220Q532 111 462 46T281 -20Q178 -20 108 48T31 218H179Q181 171 210 140T287 108T361
144T388 229Q388 278 359 315T282 349L255 347V452H271Q317 452 342 480T367 556Q367 596 344 624T281 652Q244 652 223 624T199 557Z" />
<glyph unicode="4" glyph-name="four" horiz-adv-x="578" d="M473 251H553V133H473V0H335V133H3V199L339 768H473V251ZM335 251V551H333L174 251H335Z" />
<glyph unicode="5" glyph-name="five" horiz-adv-x="578" d="M499 626H275L249 511L287 513Q394 513 462 437T530 251Q530 130 454 55T256 -20Q120 -20 32 80L76 206Q107 162 151 135T246 108Q306 108 343 152T381 257Q381 319 339 363T234 407Q165 407 113 358H90L171
754H499V626Z" />
<glyph unicode="6" glyph-name="six" horiz-adv-x="578" d="M313 785L421 707L266 488L268 486Q292 496 327 496Q427 496 489 422T551 246Q551 130 476 55T285 -20Q172 -20 97 52T21 236Q21 351 113 488L313 785ZM231 100T284 100T370 143T403 240Q403 295 370
338T284 381T198 338T164 240T197 143Z" />
<glyph unicode="7" glyph-name="seven" horiz-adv-x="578" d="M359 626H43V754H582L169 -20L48 49L359 626Z" />
<glyph unicode="8" glyph-name="eight" horiz-adv-x="578" d="M332 333T289 333T220 298T193 217T219 137T289 102T358 137T385 217T359 297ZM167 393Q121 416 95 461T68 559Q68 654 131 714T289 774T447 714T510 559Q510 507 484 462T411 393Q471 370 502 319T533
201Q533 103 461 42T289 -20T118 41T45 201Q45 268 76 319T167 393ZM328 664T289 664T226 632T202 559Q202 518 226 486T289 453T352 485T376 559Q376 599 352 631Z" />
<glyph unicode="9" glyph-name="nine" horiz-adv-x="578" d="M264 -32L156 47L311 266L309 268Q282 257 250 257Q150 257 88 331T26 507Q26 624 101 699T292 774Q405 774 480 702T556 517Q556 402 464 265L264 -32ZM346 654T293 654T207 611T174 513T207 415T293
372T379 415T413 513T380 610Z" />
<glyph unicode=":" glyph-name="colon" horiz-adv-x="289" d="M108 158T145 158T208 133T234 70T208 7T145 -20T82 6T56 70T82 132ZM108 518T145 518T208 493T234 430T208 367T145 340T82 366T56 430T82 492Z" />
<glyph unicode=";" glyph-name="semicolon" horiz-adv-x="289" d="M125 156L253 142L109 -159L16 -148L125 156ZM148 518T185 518T248 493T274 430T248 367T185 340T122 366T96 430T122 492Z" />
<glyph unicode="&lt;" glyph-name="less" horiz-adv-x="578" d="M33 196V316L545 498V372L220 257V255L545 140V14L33 196Z" />
<glyph unicode="=" glyph-name="equal" horiz-adv-x="578" d="M33 315V433H545V315H33ZM33 79V197H545V79H33Z" />
<glyph unicode="&gt;" glyph-name="greater" horiz-adv-x="578" d="M545 316V196L33 14V140L358 255V257L33 372V498L545 316Z" />
<glyph unicode="?" glyph-name="question" horiz-adv-x="487" d="M148 257V456Q164 452 184 452Q237 452 274 482T312 564Q312 598 294 625T243 652T194 628T176 570V558H30Q26 648 88 711T242 774Q334 774 395 713T457 559Q457 485 413 427T296 353L288 257H148ZM183
158T220 158T283 133T309 70T283 7T220 -20T157 6T131 70T157 132Z" />
<glyph unicode="@" glyph-name="at" horiz-adv-x="975" d="M590 372Q597 432 570 462T488 493Q430 493 397 450T364 346Q364 299 387 269T456 238Q573 238 590 372ZM615 507L629 570H700L650 310Q641 284 641 254T664 224Q700 224 733 284T766 418Q766 543 693
615T502 688Q377 688 293 599T209 377Q209 241 301 154T525 66Q646 66 705 109L780 49Q717 14 659 -3T511 -20Q348 -20 236 93T123 377Q123 546 233 660T505 774Q645 774 740 686Q852 589 852 454Q852 321 790 240Q721 148 636 152Q592 154 582 214Q520 152 446
152Q379 152 329 207T278 339Q278 435 335 507T482 579Q561 579 615 507Z" />
<glyph unicode="A" glyph-name="A" horiz-adv-x="676" d="M470 159H208L146 0H-9L285 774H399L685 0H528L470 159ZM429 279L335 553H333L250 279H429Z" />
<glyph unicode="B" glyph-name="B" horiz-adv-x="553" d="M201 328V118H232Q266 118 289 121T334 135T368 168T379 226Q379 254 370 274T347 304T311 320T271 327T225 328H201ZM54 0V754H237Q347 754 405 706T463 549Q463 505 447 465T397 403Q460 392 493 337T526
214Q526 108 460 54T285 0H54ZM201 636V440H219Q276 440 301 461T326 539Q326 593 299 614T220 636H201Z" />
<glyph unicode="C" glyph-name="C" horiz-adv-x="601" d="M558 730V554Q492 634 392 634Q291 634 231 556T170 374Q170 273 231 197T391 120Q437 120 481 142T558 200V25Q463 -20 387 -20Q231 -20 125 96T18 371Q18 478 64 570T196 718T390 774Q478 774 558 730Z" />
<glyph unicode="D" glyph-name="D" horiz-adv-x="646" d="M54 0V754H264Q426 754 527 647T628 376Q628 215 526 108T263 0H54ZM201 626V128H225Q476 128 476 377T225 626H201Z" />
<glyph unicode="E" glyph-name="E" horiz-adv-x="488" d="M444 626H201V460H435V332H201V128H444V0H54V754H444V626Z" />
<glyph unicode="F" glyph-name="F" horiz-adv-x="463" d="M428 626H201V460H414V332H201V0H54V754H428V626Z" />
<glyph unicode="G" glyph-name="G" horiz-adv-x="739" d="M395 401H720V382Q720 300 699 229T637 102T529 13T377 -20Q271 -20 188 35T61 180T18 374Q18 541 120 657T386 774Q483 774 562 727T684 594L554 524Q531 577 485 610T382 644Q283 644 227 561T170 374Q170
309 193 250T266 151T383 110Q451 110 502 161T555 281H395V401Z" />
<glyph unicode="H" glyph-name="H" horiz-adv-x="674" d="M201 457H473V754H620V0H473V337H201V0H54V754H201V457Z" />
<glyph unicode="I" glyph-name="I" horiz-adv-x="254" d="M201 754V0H54V754H201Z" />
<glyph unicode="J" glyph-name="J" horiz-adv-x="389" d="M339 754V256Q339 213 337 188T325 128T295 65Q237 -20 126 -20Q87 -20 47 0T-22 51L72 159Q78 141 95 126T129 110Q141 110 150 114T166 126T177 143T185 165T189 189T191 215T192 239T192 262T192 281V754H339Z" />
<glyph unicode="K" glyph-name="K" horiz-adv-x="620" d="M203 436L436 754H617L331 406L633 0H444L203 339H201V0H54V754H201V436H203Z" />
<glyph unicode="L" glyph-name="L" horiz-adv-x="402" d="M201 754V128H409V0H54V754H201Z" />
<glyph unicode="M" glyph-name="M" horiz-adv-x="836" d="M677 0L617 468H615L444 -10H393L228 468H226L159 0H11L138 774H242L428 277L606 774H712L825 0H677Z" />
<glyph unicode="N" glyph-name="N" horiz-adv-x="759" d="M54 0V774H160L557 247H559V754H706V-15H600L203 512H201V0H54Z" />
<glyph unicode="O" glyph-name="O" horiz-adv-x="782" d="M553 -20T391 -20T124 96T18 378Q18 540 124 657T391 774T658 657T764 378Q764 213 659 97ZM485 629T391 629T234 554T170 384Q170 293 236 209T391 125T546 209T612 384Q612 479 549 554Z" />
<glyph unicode="P" glyph-name="P" horiz-adv-x="528" d="M201 282V0H54V754H254Q515 754 515 520Q515 401 453 342T274 282H201ZM201 632V404H231Q302 404 333 428T365 521Q365 588 331 610T227 632H201Z" />
<glyph unicode="Q" glyph-name="Q" horiz-adv-x="782" d="M778 -17L630 -32L578 31Q502 -20 391 -20Q229 -20 124 96T18 378Q18 540 124 657T391 774T658 657T764 378Q764 220 675 105L778 -17ZM498 302L565 226Q612 284 612 382Q612 479 549 556T391 634Q289
634 230 554T170 369Q170 269 229 196T391 122Q432 122 470 147L346 290L498 302Z" />
<glyph unicode="R" glyph-name="R" horiz-adv-x="558" d="M351 318L564 0H386L203 304H201V0H54V754H253Q371 754 438 699T505 527Q505 451 464 391T351 318ZM201 634V407H220Q287 407 322 432T358 523T323 611T221 634H201Z" />
<glyph unicode="S" glyph-name="S" horiz-adv-x="526" d="M478 690L409 588Q363 650 296 650Q260 650 232 626T204 565Q204 540 220 521T263 489T322 463T385 433T443 392T486 329T503 238Q503 123 436 52T255 -20Q111 -20 23 127L118 220Q134 174 171 142T254
110Q298 110 324 142T351 219Q351 283 278 318Q266 324 220 342Q137 376 95 421T52 548Q52 643 115 708T272 774Q324 774 384 751T478 690Z" />
<glyph unicode="T" glyph-name="T" horiz-adv-x="451" d="M299 626V0H152V626H0V754H451V626H299Z" />
<glyph unicode="U" glyph-name="U" horiz-adv-x="660" d="M50 303V754H197V332Q197 298 198 273T208 214T229 159T268 123T330 108T392 123T431 159T452 213T461 272T463 332V754H610V303Q610 155 542 68T330 -20T118 67T50 303Z" />
<glyph unicode="V" glyph-name="V" horiz-adv-x="639" d="M144 754L325 246H327L495 754H653L360 -20H274L-14 754H144Z" />
<glyph unicode="W" glyph-name="W" horiz-adv-x="977" d="M140 754L292 240H294L444 764H531L687 240H689L837 754H991L736 -15H628L478 478H476L334 -15H226L-14 754H140Z" />
<glyph unicode="X" glyph-name="X" horiz-adv-x="623" d="M233 399L30 754H204L324 520L434 754H608L399 399L631 0H460L308 276L164 0H-8L233 399Z" />
<glyph unicode="Y" glyph-name="Y" horiz-adv-x="587" d="M218 346L-16 754H155L287 492L431 754H603L365 346V0H218V346Z" />
<glyph unicode="Z" glyph-name="Z" horiz-adv-x="575" d="M239 128H552V0H5L337 626H56V754H570L239 128Z" />
<glyph unicode="[" glyph-name="bracketleft" horiz-adv-x="288" d="M151 754V0H243V-91H45V845H243V754H151Z" />
<glyph unicode="\" glyph-name="backslash" horiz-adv-x="539" d="M30 848H142L510 0H398L30 848Z" />
<glyph unicode="]" glyph-name="bracketright" horiz-adv-x="288" d="M137 0V754H45V845H243V-91H45V0H137Z" />
<glyph unicode="^" glyph-name="asciicircum" horiz-adv-x="578" d="M33 329L226 754H350L545 329H416L289 612L162 329H33Z" />
<glyph unicode="_" glyph-name="underscore" horiz-adv-x="500" d="M500 -113V-188H0V-113H500Z" />
<glyph unicode="`" glyph-name="grave" horiz-adv-x="380" d="M79 712L181 774L301 606L230 562L79 712Z" />
<glyph unicode="a" glyph-name="a" horiz-adv-x="565" d="M514 491V0H376V45H374Q327 -16 241 -16Q138 -16 77 63T15 248Q15 352 76 429T239 507Q323 507 376 445V491H514ZM222 108T273 108T357 150T390 246T357 341T273 383T190 341T157 246T189 151Z" />
<glyph unicode="b" glyph-name="b" horiz-adv-x="565" d="M50 0V848H190V446Q241 507 326 507Q426 507 488 429T550 248Q550 141 489 63T323 -16Q284 -16 248 0T192 46H190V0H50ZM241 108T292 108T375 150T408 246T376 341T292 383T209 341T176 246T208 151Z" />
<glyph unicode="c" glyph-name="c" horiz-adv-x="421" d="M384 476V341Q336 389 281 389Q225 389 191 345T157 243Q157 183 192 143T286 102Q342 102 384 149V14Q330 -16 263 -16Q156 -16 86 60T15 244Q15 355 87 431T270 507Q334 507 384 476Z" />
<glyph unicode="d" glyph-name="d" horiz-adv-x="565" d="M375 0V46H373Q352 17 316 1T241 -16Q138 -16 77 63T15 248Q15 352 76 429T239 507Q278 507 314 491T373 446H375V848H515V0H375ZM222 108T273 108T356 150T389 246T357 341T273 383T190 341T157 246T189 151Z" />
<glyph unicode="e" glyph-name="e" horiz-adv-x="501" d="M486 223H163Q163 169 186 130T260 91Q321 91 354 158L483 137Q458 64 398 24T260 -16Q148 -16 82 55T15 241Q15 358 76 432T253 507T427 433T486 240V223ZM167 310H354Q348 351 324 380T261 409Q221 409
197 381T167 310Z" />
<glyph unicode="f" glyph-name="f" horiz-adv-x="303" d="M195 373V0H55V373H8V491H55V635Q55 734 100 797T240 860Q276 860 307 844V719Q273 736 250 736Q240 736 232 734T218 725T208 714T202 699T198 683T196 664T195 647T195 630T195 615V491H307V373H195Z" />
<glyph unicode="g" glyph-name="g" horiz-adv-x="562" d="M512 491V30Q512 -262 274 -262Q178 -262 105 -207T26 -58H174Q179 -97 205 -120T271 -144Q306 -144 328 -131T359 -90T370 -41T372 17V49H370Q348 19 312 2T236 -16Q133 -16 74 60T15 242Q15 350 77 428T243
507Q280 507 314 490T370 444H372V491H512ZM222 108T273 108T356 150T389 245T357 340T273 383T190 341T157 245T189 150Z" />
<glyph unicode="h" glyph-name="h" horiz-adv-x="540" d="M50 848H190V450H192Q233 507 320 507Q490 507 490 300V0H350V260Q350 288 350 298T346 331T335 365T313 385T274 395Q245 395 227 381T201 340T192 293T190 243V0H50V848Z" />
<glyph unicode="i" glyph-name="i" horiz-adv-x="253" d="M197 491V0H57V491H197ZM93 780T127 780T185 756T210 697Q210 662 186 638T127 614T68 638T44 697Q44 731 68 755Z" />
<glyph unicode="j" glyph-name="j" horiz-adv-x="253" d="M197 491V-262H57V491H197ZM93 780T127 780T185 756T210 697Q210 662 186 638T127 614T68 638T44 697Q44 731 68 755Z" />
<glyph unicode="k" glyph-name="k" horiz-adv-x="526" d="M190 848V311H192L339 491H521L314 275L537 0H353L192 209H190V0H50V848H190Z" />
<glyph unicode="l" glyph-name="l" horiz-adv-x="239" d="M190 848V0H50V848H190Z" />
<glyph unicode="m" glyph-name="m" horiz-adv-x="802" d="M190 491V447H192Q234 507 312 507Q406 507 453 430Q475 466 514 486T596 507Q752 507 752 306V0H612V258Q612 342 594 370Q578 395 546 395Q524 395 509 383T487 357T476 317T472 278T471 241V0H331V249Q331
252 331 259Q331 281 331 293T328 328T318 362T297 385T264 395Q238 395 222 381T199 340T192 296T190 248Q190 243 190 241V0H50V491H190Z" />
<glyph unicode="n" glyph-name="n" horiz-adv-x="540" d="M190 491V446H192Q232 507 320 507Q490 507 490 300V0H350V260Q350 288 350 298T346 331T335 365T313 385T274 395Q245 395 227 381T201 340T192 293T190 243V0H50V491H190Z" />
<glyph unicode="o" glyph-name="o" horiz-adv-x="548" d="M160 507T274 507T460 434T532 245T461 57T274 -16T88 57T16 245T88 433ZM326 383T274 383T190 341T158 245Q158 192 190 150T274 108T357 150T390 245Q390 299 358 341Z" />
<glyph unicode="p" glyph-name="p" horiz-adv-x="565" d="M190 491V446Q241 507 326 507Q426 507 488 429T550 248Q550 141 489 63T323 -16Q284 -16 248 0T192 46H190V-262H50V491H190ZM241 108T292 108T375 150T408 246T376 341T292 383T209 341T176 246T208 151Z" />
<glyph unicode="q" glyph-name="q" horiz-adv-x="565" d="M222 108T273 108T356 150T389 246T357 341T273 383T190 341T157 246T189 151ZM515 491V-262H375V46H373Q352 17 316 1T241 -16Q138 -16 77 63T15 248Q15 352 76 429T239 507Q278 507 314 491T373 446H375V491H515Z"
/>
<glyph unicode="r" glyph-name="r" horiz-adv-x="367" d="M190 491V440H192Q236 507 314 507Q341 507 372 495L355 365Q330 383 297 383Q269 383 249 373T217 348T200 310T192 267T190 221V0H50V491H190Z" />
<glyph unicode="s" glyph-name="s" horiz-adv-x="410" d="M362 456L302 375Q266 409 228 409Q210 409 196 397T182 367Q182 357 187 349T203 334T225 323T253 311T283 299Q329 279 356 248T384 158Q384 79 329 32T193 -16Q88 -16 20 66L84 149Q135 92 188 92Q212
92 228 106T244 145Q244 157 240 166T223 184T203 196T174 208T146 219Q100 239 74 267T48 348Q48 417 91 462T204 507Q304 507 362 456Z" />
<glyph unicode="t" glyph-name="t" horiz-adv-x="274" d="M207 373V0H67V373H19V491H67V657H207V491H293V373H207Z" />
<glyph unicode="u" glyph-name="u" horiz-adv-x="535" d="M47 491H187V225Q187 102 267 102T347 225V491H487V202Q487 -16 267 -16T47 202V491Z" />
<glyph unicode="v" glyph-name="v" horiz-adv-x="488" d="M136 491L251 214L352 491H505L279 -10H207L-18 491H136Z" />
<glyph unicode="w" glyph-name="w" horiz-adv-x="783" d="M135 491L237 208L357 507H424L545 204L649 491H801L573 -10H502L397 289L280 -10H208L-18 491H135Z" />
<glyph unicode="x" glyph-name="x" horiz-adv-x="549" d="M192 267L23 491H193L284 364L362 491H534L360 267L567 0H395L269 171L156 0H-18L192 267Z" />
<glyph unicode="y" glyph-name="y" horiz-adv-x="520" d="M191 75L-18 491H141L258 212L384 491H540L183 -262H29L191 75Z" />
<glyph unicode="z" glyph-name="z" horiz-adv-x="481" d="M232 118H465V0H-1L250 373H38V491H481L232 118Z" />
<glyph unicode="{" glyph-name="braceleft" horiz-adv-x="389" d="M68 300V373Q143 406 143 524V706Q143 761 172 799T228 838H320V747H280Q265 747 258 737T250 717T249 685V508Q249 456 231 415T200 359T173 336Q181 331 191 321T215 292T239 239T249 165V-12Q249
-34 250 -44T258 -64T280 -74H320V-165H228Q202 -165 173 -127T143 -33V149Q143 267 68 300Z" />
<glyph unicode="|" glyph-name="bar" horiz-adv-x="538" d="M328 848V0H210V848H328Z" />
<glyph unicode="}" glyph-name="braceright" horiz-adv-x="389" d="M321 373V300Q246 267 246 149V-33Q246 -88 217 -126T161 -165H69V-74H109Q124 -74 131 -64T139 -44T140 -12V165Q140 205 149 238T173 291T198 321T216 336Q203 345 190 359T158 414T140 508V685Q140
707 139 717T131 737T109 747H69V838H161Q187 838 216 800T246 706V524Q246 406 321 373Z" />
<glyph unicode="~" glyph-name="asciitilde" horiz-adv-x="578" d="M446 363L545 273Q527 242 517 226T486 183T441 143T393 130Q383 130 372 132T354 136T335 145T318 154T301 164T286 174Q276 180 252 197T214 220T188 227Q164 227 132 150L33 238Q40 248 61
279T97 329T136 365T186 383Q233 383 298 332Q353 285 392 285Q418 285 446 363Z" />
</font>
</defs>
</svg>
